<?xml version="1.0" encoding="utf-8"?>
<!-- Generator: Adobe Illustrator 16.0.0, SVG Export Plug-In . SVG Version: 6.00 Build 0)  -->
<!DOCTYPE svg PUBLIC "-//W3C//DTD SVG 1.1//EN" "http://www.w3.org/Graphics/SVG/1.1/DTD/svg11.dtd">
<svg version="1.1" id="Layer_1" xmlns="http://www.w3.org/2000/svg" xmlns:xlink="http://www.w3.org/1999/xlink" x="0px" y="0px"
	 width="250px" height="85px" viewBox="0 0 250 85" enable-background="new 0 0 250 85" xml:space="preserve">
<path fill="#FFFFFF" d="M22.05,31.346c-2.231,0-4.25,0.831-5.712,2.173c-1.462,1.342-2.367,3.195-2.367,5.243v9.502h6.717
	c-0.29,0.429-0.461,0.931-0.461,1.475c0,1.543,1.362,2.793,3.043,2.793s3.043-1.251,3.043-2.793c0-0.542-0.17-1.046-0.46-1.475
	h6.549v-6.011c-0.467,0.266-1.016,0.424-1.607,0.424c-1.681,0-3.043-1.251-3.043-2.793c0-1.545,1.362-2.795,3.043-2.793
	c0.591-0.001,1.14,0.157,1.607,0.423v-6.167H22.05z"/>
<path fill="none" stroke="#FFFFFF" stroke-width="0.25" d="M22.05,31.346c-2.231,0-4.25,0.831-5.712,2.173
	c-1.462,1.342-2.367,3.195-2.367,5.243v9.502h6.717c-0.29,0.429-0.461,0.931-0.461,1.475c0,1.543,1.362,2.793,3.043,2.793
	s3.043-1.251,3.043-2.793c0-0.542-0.17-1.046-0.46-1.475h6.549v-6.011c-0.467,0.266-1.016,0.424-1.607,0.424
	c-1.681,0-3.043-1.251-3.043-2.793c0-1.545,1.362-2.795,3.043-2.793c0.591-0.001,1.14,0.157,1.607,0.423v-6.167H22.05z"/>
<path fill="#FFFFFF" d="M32.402,54.274v-6.012h-6.549c0.291,0.43,0.46,0.933,0.46,1.476c0,1.542-1.363,2.793-3.043,2.793
	c-1.681,0-3.043-1.251-3.043-2.793c0-0.543,0.171-1.046,0.461-1.476H13.97v9.503c0,2.047,0.904,3.9,2.368,5.242
	c1.46,1.343,3.48,2.172,5.712,2.172h10.352v-6.165c0.467,0.266,1.015,0.425,1.606,0.425c1.68,0,3.042-1.252,3.043-2.795
	c0-1.544-1.363-2.793-3.043-2.793C33.417,53.852,32.869,54.008,32.402,54.274z"/>
<path fill="none" stroke="#FFFFFF" stroke-width="0.25" d="M32.402,54.274v-6.012h-6.549c0.291,0.43,0.46,0.933,0.46,1.476
	c0,1.542-1.363,2.793-3.043,2.793c-1.681,0-3.043-1.251-3.043-2.793c0-0.543,0.171-1.046,0.461-1.476H13.97v9.503
	c0,2.047,0.904,3.9,2.368,5.242c1.46,1.343,3.48,2.172,5.712,2.172h10.352v-6.165c0.467,0.266,1.015,0.425,1.606,0.425
	c1.68,0,3.042-1.252,3.043-2.795c0-1.544-1.363-2.793-3.043-2.793C33.417,53.852,32.869,54.008,32.402,54.274z"/>
<path fill="#FFFFFF" d="M32.402,42.252v6.011h6.549c-0.291-0.427-0.462-0.933-0.461-1.476c0-1.542,1.362-2.794,3.042-2.794
	c1.682,0,3.043,1.252,3.043,2.794c0,0.543-0.171,1.049-0.461,1.476h6.718v-9.502c0-2.047-0.904-3.9-2.366-5.243
	c-1.461-1.342-3.483-2.172-5.712-2.172H32.402v6.167c-0.467-0.267-1.018-0.425-1.607-0.425c-1.682,0.001-3.044,1.25-3.044,2.795
	c0,1.542,1.362,2.793,3.044,2.793C31.384,42.676,31.935,42.519,32.402,42.252z"/>
<path fill="none" stroke="#FFFFFF" stroke-width="0.25" d="M32.402,42.252v6.011h6.549c-0.291-0.427-0.462-0.933-0.461-1.476
	c0-1.542,1.362-2.794,3.042-2.794c1.682,0,3.043,1.252,3.043,2.794c0,0.543-0.171,1.049-0.461,1.476h6.718v-9.502
	c0-2.047-0.904-3.9-2.366-5.243c-1.461-1.342-3.483-2.172-5.712-2.172H32.402v6.167c-0.467-0.267-1.018-0.425-1.607-0.425
	c-1.682,0.001-3.044,1.25-3.044,2.795c0,1.542,1.362,2.793,3.044,2.793C31.384,42.676,31.935,42.519,32.402,42.252z"/>
<path fill="#FFFFFF" d="M50.255,54.43c0.29-0.429,0.461-0.934,0.461-1.475c0-1.542-1.363-2.793-3.045-2.793
	c-1.68,0-3.042,1.25-3.042,2.793c0,0.541,0.171,1.046,0.461,1.475h-6.55v6.012c0.467-0.267,1.017-0.424,1.607-0.424
	c1.681,0,3.043,1.251,3.043,2.794c0,1.542-1.362,2.792-3.043,2.793c-0.59,0-1.14-0.156-1.607-0.424v6.166h10.351
	c2.232,0,4.253-0.83,5.714-2.171c1.463-1.342,2.368-3.195,2.368-5.244v-9.501L50.255,54.43z"/>
<path fill="none" stroke="#FFFFFF" stroke-width="0.25" d="M50.255,54.43c0.29-0.429,0.461-0.934,0.461-1.475
	c0-1.542-1.363-2.793-3.045-2.793c-1.68,0-3.042,1.25-3.042,2.793c0,0.541,0.171,1.046,0.461,1.475h-6.55v6.012
	c0.467-0.267,1.017-0.424,1.607-0.424c1.681,0,3.043,1.251,3.043,2.794c0,1.542-1.362,2.792-3.043,2.793
	c-0.59,0-1.14-0.156-1.607-0.424v6.166h10.351c2.232,0,4.253-0.83,5.714-2.171c1.463-1.342,2.368-3.195,2.368-5.244v-9.501
	L50.255,54.43z"/>
<path fill="#FFFFFF" d="M10.018,38.781c-2.428,2.891-1.161,5.256,2.816,5.256h40.082c3.978,0,5.244-2.366,2.817-5.256L37.29,16.822
	c-2.427-2.892-6.401-2.892-8.829,0L10.018,38.781z"/>
<path fill="none" stroke="#FFFFFF" stroke-width="0.25" d="M10.018,38.781c-2.428,2.891-1.161,5.256,2.816,5.256h40.082
	c3.978,0,5.244-2.366,2.817-5.256L37.29,16.822c-2.427-2.892-6.401-2.892-8.829,0L10.018,38.781z"/>
<g>
	<path fill="#FFFFFF" d="M81.897,51l-1.383-3.563h-0.188c-1.203,1.516-2.441,2.566-3.715,3.152s-2.934,0.879-4.98,0.879
		c-2.516,0-4.496-0.719-5.941-2.156s-2.168-3.484-2.168-6.141c0-2.781,0.973-4.832,2.918-6.152s4.879-2.051,8.801-2.191l4.547-0.141
		v-1.148c0-2.656-1.359-3.984-4.078-3.984c-2.094,0-4.555,0.633-7.383,1.898l-2.367-4.828c3.016-1.578,6.359-2.367,10.031-2.367
		c3.516,0,6.211,0.766,8.086,2.297s2.813,3.859,2.813,6.984V51H81.897z M79.788,38.859l-2.766,0.094
		c-2.078,0.063-3.625,0.438-4.641,1.125s-1.523,1.734-1.523,3.141c0,2.016,1.156,3.023,3.469,3.023c1.656,0,2.98-0.477,3.973-1.43
		s1.488-2.219,1.488-3.797V38.859z"/>
	<path fill="#FFFFFF" d="M112.53,43.219c0,2.688-0.934,4.734-2.801,6.141s-4.66,2.109-8.379,2.109c-1.906,0-3.531-0.129-4.875-0.387
		s-2.602-0.637-3.773-1.137v-5.906c1.328,0.625,2.824,1.148,4.488,1.57s3.129,0.633,4.395,0.633c2.594,0,3.891-0.75,3.891-2.25
		c0-0.563-0.172-1.02-0.516-1.371s-0.938-0.75-1.781-1.195s-1.969-0.965-3.375-1.559c-2.016-0.844-3.496-1.625-4.441-2.344
		s-1.633-1.543-2.063-2.473s-0.645-2.074-0.645-3.434c0-2.328,0.902-4.129,2.707-5.402s4.363-1.91,7.676-1.91
		c3.156,0,6.227,0.688,9.211,2.063l-2.156,5.156c-1.313-0.563-2.539-1.023-3.68-1.383s-2.305-0.539-3.492-0.539
		c-2.109,0-3.164,0.57-3.164,1.711c0,0.641,0.34,1.195,1.02,1.664s2.168,1.164,4.465,2.086c2.047,0.828,3.547,1.602,4.5,2.32
		s1.656,1.547,2.109,2.484S112.53,41.922,112.53,43.219z"/>
	<path fill="#FFFFFF" d="M136.389,43.219c0,2.688-0.934,4.734-2.801,6.141s-4.66,2.109-8.379,2.109
		c-1.906,0-3.531-0.129-4.875-0.387s-2.602-0.637-3.773-1.137v-5.906c1.328,0.625,2.824,1.148,4.488,1.57s3.129,0.633,4.394,0.633
		c2.594,0,3.891-0.75,3.891-2.25c0-0.563-0.172-1.02-0.516-1.371s-0.938-0.75-1.781-1.195s-1.969-0.965-3.375-1.559
		c-2.016-0.844-3.496-1.625-4.441-2.344s-1.633-1.543-2.063-2.473s-0.645-2.074-0.645-3.434c0-2.328,0.902-4.129,2.707-5.402
		s4.363-1.91,7.675-1.91c3.156,0,6.227,0.688,9.211,2.063l-2.156,5.156c-1.313-0.563-2.539-1.023-3.68-1.383
		s-2.305-0.539-3.492-0.539c-2.109,0-3.164,0.57-3.164,1.711c0,0.641,0.34,1.195,1.02,1.664c0.679,0.469,2.167,1.164,4.464,2.086
		c2.047,0.828,3.547,1.602,4.5,2.32s1.656,1.547,2.109,2.484S136.389,41.922,136.389,43.219z"/>
	<path fill="#FFFFFF" d="M158.607,51l-1.383-3.563h-0.188c-1.203,1.516-2.441,2.566-3.715,3.152s-2.934,0.879-4.98,0.879
		c-2.516,0-4.496-0.719-5.941-2.156s-2.168-3.484-2.168-6.141c0-2.781,0.973-4.832,2.918-6.152s4.879-2.051,8.801-2.191l4.547-0.141
		v-1.148c0-2.656-1.359-3.984-4.078-3.984c-2.094,0-4.555,0.633-7.383,1.898l-2.367-4.828c3.016-1.578,6.359-2.367,10.031-2.367
		c3.516,0,6.211,0.766,8.086,2.297s2.813,3.859,2.813,6.984V51H158.607z M156.498,38.859l-2.766,0.094
		c-2.078,0.063-3.625,0.438-4.641,1.125s-1.523,1.734-1.523,3.141c0,2.016,1.156,3.023,3.469,3.023c1.656,0,2.98-0.477,3.973-1.43
		s1.488-2.219,1.488-3.797V38.859z"/>
	<path fill="#FFFFFF" d="M179.256,51.469c-3.078,0-5.496-1.195-7.254-3.586s-2.637-5.703-2.637-9.938
		c0-4.297,0.895-7.645,2.684-10.043s4.254-3.598,7.395-3.598c3.297,0,5.813,1.281,7.547,3.844h0.234
		c-0.359-1.953-0.539-3.695-0.539-5.227v-8.391h7.172V51h-5.484l-1.383-3.398h-0.305C185.061,50.18,182.584,51.469,179.256,51.469z
		 M181.764,45.773c1.828,0,3.168-0.531,4.02-1.594s1.316-2.867,1.395-5.414v-0.773c0-2.813-0.434-4.828-1.301-6.047
		s-2.277-1.828-4.23-1.828c-1.594,0-2.832,0.676-3.715,2.027s-1.324,3.316-1.324,5.895s0.445,4.512,1.336,5.801
		S180.107,45.773,181.764,45.773z"/>
	<path fill="#FFFFFF" d="M201.029,18.023c0-2.328,1.297-3.492,3.891-3.492s3.891,1.164,3.891,3.492c0,1.109-0.324,1.973-0.973,2.59
		s-1.621,0.926-2.918,0.926C202.326,21.539,201.029,20.367,201.029,18.023z M208.482,51h-7.148V24.797h7.148V51z"/>
	<path fill="#FFFFFF" d="M232.623,51l-1.383-3.563h-0.188c-1.203,1.516-2.441,2.566-3.715,3.152s-2.934,0.879-4.98,0.879
		c-2.516,0-4.496-0.719-5.941-2.156s-2.168-3.484-2.168-6.141c0-2.781,0.973-4.832,2.918-6.152s4.879-2.051,8.801-2.191l4.547-0.141
		v-1.148c0-2.656-1.359-3.984-4.078-3.984c-2.094,0-4.555,0.633-7.383,1.898l-2.367-4.828c3.016-1.578,6.359-2.367,10.031-2.367
		c3.516,0,6.211,0.766,8.086,2.297s2.813,3.859,2.813,6.984V51H232.623z M230.514,38.859l-2.766,0.094
		c-2.078,0.063-3.625,0.438-4.641,1.125s-1.523,1.734-1.523,3.141c0,2.016,1.156,3.023,3.469,3.023c1.656,0,2.98-0.477,3.973-1.43
		s1.488-2.219,1.488-3.797V38.859z"/>
</g>
<g>
	<path fill="#FFFFFF" d="M69.997,57.194v0.732l-1.417,0.168c0.13,0.163,0.247,0.376,0.349,0.639c0.103,0.264,0.154,0.56,0.154,0.891
		c0,0.749-0.256,1.348-0.768,1.794c-0.512,0.447-1.215,0.671-2.109,0.671c-0.228,0-0.442-0.019-0.643-0.056
		c-0.493,0.261-0.74,0.589-0.74,0.984c0,0.209,0.086,0.364,0.258,0.464c0.172,0.101,0.468,0.15,0.887,0.15h1.354
		c0.829,0,1.465,0.175,1.91,0.523c0.444,0.35,0.667,0.856,0.667,1.522c0,0.847-0.34,1.493-1.02,1.938s-1.671,0.667-2.975,0.667
		c-1.001,0-1.772-0.187-2.314-0.559c-0.542-0.373-0.813-0.898-0.813-1.578c0-0.466,0.149-0.868,0.447-1.208s0.717-0.57,1.257-0.691
		c-0.196-0.088-0.36-0.226-0.492-0.412c-0.133-0.186-0.199-0.402-0.199-0.649c0-0.279,0.075-0.523,0.224-0.732
		c0.149-0.21,0.384-0.412,0.705-0.607c-0.396-0.163-0.718-0.44-0.967-0.831c-0.25-0.392-0.374-0.838-0.374-1.341
		c0-0.838,0.251-1.484,0.754-1.938c0.503-0.454,1.215-0.681,2.137-0.681c0.4,0,0.761,0.046,1.082,0.14H69.997z M63.895,66.132
		c0,0.414,0.174,0.729,0.523,0.942s0.85,0.321,1.501,0.321c0.973,0,1.693-0.146,2.161-0.437c0.468-0.291,0.702-0.686,0.702-1.184
		c0-0.414-0.128-0.702-0.384-0.862c-0.256-0.161-0.738-0.241-1.445-0.241h-1.39c-0.526,0-0.936,0.126-1.229,0.377
		C64.041,65.301,63.895,65.661,63.895,66.132z M64.523,59.645c0,0.535,0.151,0.94,0.454,1.215c0.303,0.275,0.724,0.412,1.264,0.412
		c1.131,0,1.697-0.549,1.697-1.647c0-1.149-0.572-1.725-1.717-1.725c-0.545,0-0.964,0.146-1.257,0.439
		C64.669,58.632,64.523,59.067,64.523,59.645z"/>
	<path fill="#FFFFFF" d="M76.031,64.847l-0.23-1.089h-0.056c-0.382,0.479-0.762,0.804-1.142,0.974s-0.853,0.255-1.421,0.255
		c-0.759,0-1.354-0.195-1.784-0.587c-0.431-0.391-0.646-0.947-0.646-1.668c0-1.546,1.236-2.355,3.708-2.431l1.298-0.042v-0.475
		c0-0.601-0.129-1.044-0.387-1.33s-0.672-0.43-1.24-0.43c-0.638,0-1.359,0.196-2.165,0.587l-0.356-0.887
		c0.377-0.205,0.79-0.365,1.239-0.481s0.9-0.175,1.351-0.175c0.913,0,1.589,0.202,2.029,0.607c0.439,0.405,0.66,1.055,0.66,1.948
		v5.223H76.031z M73.413,64.029c0.722,0,1.289-0.197,1.701-0.593c0.412-0.396,0.618-0.95,0.618-1.662v-0.691l-1.159,0.049
		c-0.921,0.033-1.586,0.176-1.993,0.43c-0.408,0.254-0.611,0.648-0.611,1.184c0,0.419,0.127,0.737,0.381,0.956
		C72.602,63.921,72.957,64.029,73.413,64.029z"/>
	<path fill="#FFFFFF" d="M82.526,57.055c0.34,0,0.645,0.027,0.915,0.083l-0.161,1.076c-0.316-0.07-0.596-0.105-0.838-0.105
		c-0.619,0-1.148,0.252-1.588,0.754c-0.44,0.503-0.66,1.129-0.66,1.879v4.105h-1.159v-7.652h0.957l0.133,1.417h0.056
		c0.284-0.498,0.626-0.882,1.026-1.152C81.607,57.189,82.047,57.055,82.526,57.055z"/>
	<path fill="#FFFFFF" d="M89.838,63.82h-0.063c-0.536,0.777-1.336,1.166-2.402,1.166c-1.001,0-1.78-0.342-2.336-1.026
		s-0.834-1.657-0.834-2.919c0-1.261,0.279-2.241,0.838-2.939s1.336-1.047,2.333-1.047c1.038,0,1.834,0.377,2.388,1.131h0.091
		l-0.049-0.552l-0.028-0.537v-3.114h1.159v10.864h-0.943L89.838,63.82z M87.52,64.016c0.792,0,1.365-0.215,1.721-0.646
		s0.534-1.125,0.534-2.084v-0.245c0-1.084-0.181-1.858-0.541-2.321c-0.361-0.463-0.937-0.695-1.729-0.695
		c-0.68,0-1.2,0.265-1.561,0.793s-0.541,1.274-0.541,2.238c0,0.978,0.179,1.715,0.538,2.213S86.826,64.016,87.52,64.016z"/>
	<path fill="#FFFFFF" d="M96.382,64.986c-1.131,0-2.024-0.345-2.678-1.033c-0.654-0.689-0.981-1.646-0.981-2.87
		c0-1.233,0.304-2.213,0.912-2.939s1.423-1.089,2.447-1.089c0.959,0,1.718,0.315,2.276,0.945c0.559,0.631,0.838,1.463,0.838,2.497
		v0.732h-5.272c0.023,0.898,0.25,1.581,0.681,2.046c0.431,0.466,1.037,0.698,1.819,0.698c0.824,0,1.638-0.172,2.443-0.517v1.033
		c-0.41,0.178-0.797,0.304-1.162,0.381C97.339,64.948,96.898,64.986,96.382,64.986z M96.067,58.024c-0.614,0-1.104,0.2-1.47,0.601
		s-0.581,0.955-0.646,1.662h4.001c0-0.73-0.163-1.29-0.489-1.68C97.138,58.22,96.672,58.024,96.067,58.024z"/>
	<path fill="#FFFFFF" d="M109.609,63.82h-0.063c-0.536,0.777-1.336,1.166-2.402,1.166c-1.001,0-1.78-0.342-2.336-1.026
		s-0.834-1.657-0.834-2.919c0-1.261,0.279-2.241,0.838-2.939s1.336-1.047,2.333-1.047c1.038,0,1.834,0.377,2.388,1.131h0.091
		l-0.049-0.552l-0.028-0.537v-3.114h1.159v10.864h-0.943L109.609,63.82z M107.291,64.016c0.792,0,1.365-0.215,1.721-0.646
		s0.534-1.125,0.534-2.084v-0.245c0-1.084-0.181-1.858-0.541-2.321c-0.361-0.463-0.937-0.695-1.729-0.695
		c-0.68,0-1.2,0.265-1.561,0.793s-0.541,1.274-0.541,2.238c0,0.978,0.179,1.715,0.538,2.213S106.597,64.016,107.291,64.016z"/>
	<path fill="#FFFFFF" d="M113.918,54.639l-0.279,3.687h-0.733l-0.286-3.687H113.918z"/>
	<path fill="#FFFFFF" d="M119.073,64.986c-1.131,0-2.024-0.345-2.678-1.033c-0.654-0.689-0.981-1.646-0.981-2.87
		c0-1.233,0.304-2.213,0.912-2.939s1.423-1.089,2.447-1.089c0.959,0,1.718,0.315,2.276,0.945c0.559,0.631,0.838,1.463,0.838,2.497
		v0.732h-5.272c0.023,0.898,0.25,1.581,0.681,2.046c0.431,0.466,1.037,0.698,1.819,0.698c0.824,0,1.638-0.172,2.443-0.517v1.033
		c-0.41,0.178-0.797,0.304-1.162,0.381C120.03,64.948,119.589,64.986,119.073,64.986z M118.758,58.024
		c-0.614,0-1.104,0.2-1.47,0.601s-0.581,0.955-0.646,1.662h4.001c0-0.73-0.163-1.29-0.489-1.68
		C119.829,58.22,119.363,58.024,118.758,58.024z"/>
	<path fill="#FFFFFF" d="M128.856,64.847v-4.95c0-0.624-0.142-1.09-0.426-1.396c-0.284-0.308-0.729-0.461-1.334-0.461
		c-0.801,0-1.388,0.216-1.759,0.649c-0.373,0.433-0.559,1.147-0.559,2.144v4.015h-1.159v-7.652h0.942l0.188,1.047h0.056
		c0.237-0.377,0.57-0.669,0.998-0.876c0.429-0.207,0.906-0.311,1.432-0.311c0.922,0,1.615,0.222,2.081,0.666
		c0.466,0.445,0.698,1.156,0.698,2.134v4.992H128.856z"/>
	<path fill="#FFFFFF" d="M135.603,58.095h-1.948v6.752h-1.158v-6.752h-1.369v-0.523l1.369-0.419v-0.426
		c0-1.881,0.82-2.821,2.464-2.821c0.405,0,0.88,0.081,1.425,0.244l-0.301,0.929c-0.447-0.145-0.828-0.216-1.145-0.216
		c-0.438,0-0.762,0.146-0.971,0.436c-0.209,0.291-0.314,0.758-0.314,1.4v0.496h1.948V58.095z"/>
	<path fill="#FFFFFF" d="M141.463,64.847l-0.23-1.089h-0.057c-0.381,0.479-0.762,0.804-1.141,0.974
		c-0.38,0.17-0.854,0.255-1.422,0.255c-0.758,0-1.354-0.195-1.783-0.587c-0.432-0.391-0.646-0.947-0.646-1.668
		c0-1.546,1.236-2.355,3.708-2.431l1.298-0.042v-0.475c0-0.601-0.129-1.044-0.387-1.33s-0.672-0.43-1.24-0.43
		c-0.637,0-1.358,0.196-2.164,0.587l-0.355-0.887c0.377-0.205,0.789-0.365,1.238-0.481s0.9-0.175,1.352-0.175
		c0.912,0,1.589,0.202,2.029,0.607c0.439,0.405,0.659,1.055,0.659,1.948v5.223H141.463z M138.844,64.029
		c0.722,0,1.289-0.197,1.701-0.593c0.411-0.396,0.617-0.95,0.617-1.662v-0.691l-1.159,0.049c-0.921,0.033-1.586,0.176-1.993,0.43
		c-0.408,0.254-0.611,0.648-0.611,1.184c0,0.419,0.127,0.737,0.381,0.956C138.033,63.921,138.388,64.029,138.844,64.029z"/>
	<path fill="#FFFFFF" d="M149.703,64.847v-4.95c0-0.624-0.143-1.09-0.426-1.396c-0.285-0.308-0.729-0.461-1.334-0.461
		c-0.801,0-1.388,0.216-1.76,0.649c-0.373,0.433-0.559,1.147-0.559,2.144v4.015h-1.159v-7.652h0.942l0.188,1.047h0.056
		c0.238-0.377,0.57-0.669,0.999-0.876s0.905-0.311,1.431-0.311c0.922,0,1.615,0.222,2.082,0.666
		c0.465,0.445,0.697,1.156,0.697,2.134v4.992H149.703z"/>
	<path fill="#FFFFFF" d="M155.472,64.029c0.204,0,0.402-0.015,0.593-0.045c0.191-0.03,0.343-0.062,0.455-0.095v0.887
		c-0.126,0.062-0.311,0.111-0.556,0.15c-0.244,0.04-0.464,0.06-0.659,0.06c-1.48,0-2.221-0.779-2.221-2.339v-4.553h-1.097v-0.559
		l1.097-0.481l0.488-1.634h0.67v1.773h2.221v0.9h-2.221v4.504c0,0.461,0.109,0.814,0.328,1.061
		C154.789,63.906,155.09,64.029,155.472,64.029z"/>
	<path fill="#FFFFFF" d="M162.742,62.759c0,0.712-0.266,1.262-0.797,1.648c-0.53,0.386-1.275,0.579-2.234,0.579
		c-1.015,0-1.806-0.16-2.373-0.481V63.43c0.367,0.186,0.762,0.332,1.184,0.439c0.42,0.107,0.826,0.16,1.218,0.16
		c0.604,0,1.07-0.096,1.396-0.289c0.325-0.193,0.489-0.488,0.489-0.884c0-0.298-0.13-0.553-0.389-0.765
		c-0.258-0.212-0.762-0.462-1.512-0.75c-0.711-0.266-1.218-0.497-1.518-0.695c-0.301-0.197-0.523-0.422-0.671-0.674
		c-0.146-0.251-0.22-0.552-0.22-0.9c0-0.624,0.254-1.116,0.761-1.477c0.507-0.361,1.204-0.541,2.088-0.541
		c0.824,0,1.63,0.167,2.416,0.502l-0.412,0.943c-0.769-0.316-1.464-0.476-2.087-0.476c-0.55,0-0.965,0.087-1.244,0.259
		s-0.418,0.41-0.418,0.712c0,0.205,0.052,0.38,0.156,0.524c0.105,0.144,0.273,0.281,0.507,0.411
		c0.232,0.131,0.679,0.319,1.341,0.566c0.907,0.33,1.521,0.663,1.84,0.998C162.582,61.83,162.742,62.252,162.742,62.759z"/>
	<path fill="#FFFFFF" d="M167.758,55.12c0-0.266,0.064-0.46,0.195-0.583s0.293-0.185,0.488-0.185c0.187,0,0.348,0.063,0.482,0.188
		c0.135,0.125,0.202,0.318,0.202,0.579s-0.067,0.455-0.202,0.583s-0.296,0.192-0.482,0.192c-0.195,0-0.357-0.064-0.488-0.192
		S167.758,55.381,167.758,55.12z M169.015,64.847h-1.159v-7.652h1.159V64.847z"/>
	<path fill="#FFFFFF" d="M176.466,64.847v-4.95c0-0.624-0.142-1.09-0.426-1.396c-0.284-0.308-0.729-0.461-1.334-0.461
		c-0.801,0-1.388,0.216-1.759,0.649c-0.373,0.433-0.559,1.147-0.559,2.144v4.015h-1.16v-7.652h0.943l0.188,1.047h0.057
		c0.237-0.377,0.57-0.669,0.998-0.876c0.429-0.207,0.906-0.311,1.432-0.311c0.922,0,1.615,0.222,2.081,0.666
		c0.466,0.445,0.698,1.156,0.698,2.134v4.992H176.466z"/>
	<path fill="#FFFFFF" d="M182.234,64.029c0.205,0,0.402-0.015,0.594-0.045c0.19-0.03,0.342-0.062,0.453-0.095v0.887
		c-0.125,0.062-0.311,0.111-0.555,0.15c-0.244,0.04-0.465,0.06-0.66,0.06c-1.48,0-2.221-0.779-2.221-2.339v-4.553h-1.096v-0.559
		l1.096-0.481l0.489-1.634h0.671v1.773h2.221v0.9h-2.221v4.504c0,0.461,0.109,0.814,0.328,1.061
		C181.553,63.906,181.853,64.029,182.234,64.029z"/>
	<path fill="#FFFFFF" d="M187.801,64.986c-1.131,0-2.023-0.345-2.678-1.033c-0.654-0.689-0.981-1.646-0.981-2.87
		c0-1.233,0.304-2.213,0.911-2.939s1.424-1.089,2.447-1.089c0.959,0,1.718,0.315,2.276,0.945c0.559,0.631,0.838,1.463,0.838,2.497
		v0.732h-5.271c0.023,0.898,0.25,1.581,0.681,2.046c0.431,0.466,1.037,0.698,1.819,0.698c0.823,0,1.639-0.172,2.443-0.517v1.033
		c-0.409,0.178-0.797,0.304-1.162,0.381S188.317,64.986,187.801,64.986z M187.486,58.024c-0.614,0-1.104,0.2-1.47,0.601
		s-0.581,0.955-0.646,1.662h4.001c0-0.73-0.163-1.29-0.489-1.68C188.557,58.22,188.091,58.024,187.486,58.024z"/>
	<path fill="#FFFFFF" d="M193.507,64.847h-1.159V53.982h1.159V64.847z"/>
	<path fill="#FFFFFF" d="M196.88,64.847h-1.159V53.982h1.159V64.847z"/>
	<path fill="#FFFFFF" d="M198.997,55.12c0-0.266,0.065-0.46,0.195-0.583c0.131-0.123,0.294-0.185,0.489-0.185
		c0.187,0,0.347,0.063,0.481,0.188c0.136,0.125,0.203,0.318,0.203,0.579s-0.067,0.455-0.203,0.583
		c-0.135,0.128-0.295,0.192-0.481,0.192c-0.195,0-0.358-0.064-0.489-0.192C199.063,55.575,198.997,55.381,198.997,55.12z
		 M200.254,64.847h-1.159v-7.652h1.159V64.847z"/>
	<path fill="#FFFFFF" d="M208.732,57.194v0.732l-1.418,0.168c0.131,0.163,0.247,0.376,0.35,0.639
		c0.103,0.264,0.153,0.56,0.153,0.891c0,0.749-0.256,1.348-0.768,1.794c-0.513,0.447-1.215,0.671-2.108,0.671
		c-0.229,0-0.442-0.019-0.643-0.056c-0.494,0.261-0.74,0.589-0.74,0.984c0,0.209,0.086,0.364,0.258,0.464
		c0.173,0.101,0.468,0.15,0.887,0.15h1.355c0.828,0,1.465,0.175,1.909,0.523c0.444,0.35,0.667,0.856,0.667,1.522
		c0,0.847-0.34,1.493-1.02,1.938s-1.671,0.667-2.975,0.667c-1.001,0-1.772-0.187-2.314-0.559c-0.543-0.373-0.813-0.898-0.813-1.578
		c0-0.466,0.148-0.868,0.446-1.208s0.717-0.57,1.257-0.691c-0.195-0.088-0.359-0.226-0.492-0.412
		c-0.132-0.186-0.198-0.402-0.198-0.649c0-0.279,0.074-0.523,0.223-0.732c0.149-0.21,0.385-0.412,0.706-0.607
		c-0.396-0.163-0.719-0.44-0.968-0.831c-0.249-0.392-0.373-0.838-0.373-1.341c0-0.838,0.251-1.484,0.754-1.938
		c0.503-0.454,1.215-0.681,2.137-0.681c0.4,0,0.761,0.046,1.082,0.14H208.732z M202.63,66.132c0,0.414,0.175,0.729,0.523,0.942
		c0.35,0.214,0.85,0.321,1.501,0.321c0.974,0,1.693-0.146,2.161-0.437s0.702-0.686,0.702-1.184c0-0.414-0.128-0.702-0.384-0.862
		c-0.257-0.161-0.738-0.241-1.445-0.241h-1.39c-0.526,0-0.936,0.126-1.229,0.377C202.776,65.301,202.63,65.661,202.63,66.132z
		 M203.258,59.645c0,0.535,0.151,0.94,0.454,1.215c0.303,0.275,0.724,0.412,1.264,0.412c1.132,0,1.697-0.549,1.697-1.647
		c0-1.149-0.573-1.725-1.718-1.725c-0.545,0-0.964,0.146-1.257,0.439C203.404,58.632,203.258,59.067,203.258,59.645z"/>
	<path fill="#FFFFFF" d="M213.293,64.986c-1.131,0-2.024-0.345-2.678-1.033c-0.654-0.689-0.981-1.646-0.981-2.87
		c0-1.233,0.304-2.213,0.911-2.939s1.424-1.089,2.447-1.089c0.959,0,1.718,0.315,2.276,0.945c0.559,0.631,0.838,1.463,0.838,2.497
		v0.732h-5.271c0.023,0.898,0.25,1.581,0.681,2.046c0.431,0.466,1.037,0.698,1.819,0.698c0.823,0,1.639-0.172,2.443-0.517v1.033
		c-0.409,0.178-0.797,0.304-1.162,0.381S213.81,64.986,213.293,64.986z M212.979,58.024c-0.614,0-1.104,0.2-1.47,0.601
		s-0.581,0.955-0.646,1.662h4.001c0-0.73-0.163-1.29-0.489-1.68C214.049,58.22,213.584,58.024,212.979,58.024z"/>
	<path fill="#FFFFFF" d="M223.077,64.847v-4.95c0-0.624-0.143-1.09-0.426-1.396c-0.284-0.308-0.729-0.461-1.334-0.461
		c-0.801,0-1.387,0.216-1.76,0.649c-0.372,0.433-0.559,1.147-0.559,2.144v4.015h-1.159v-7.652h0.943l0.188,1.047h0.056
		c0.237-0.377,0.57-0.669,0.998-0.876c0.429-0.207,0.905-0.311,1.432-0.311c0.922,0,1.615,0.222,2.081,0.666
		c0.465,0.445,0.698,1.156,0.698,2.134v4.992H223.077z"/>
	<path fill="#FFFFFF" d="M228.846,64.029c0.204,0,0.402-0.015,0.593-0.045c0.191-0.03,0.343-0.062,0.454-0.095v0.887
		c-0.126,0.062-0.311,0.111-0.555,0.15c-0.245,0.04-0.465,0.06-0.66,0.06c-1.48,0-2.221-0.779-2.221-2.339v-4.553h-1.096v-0.559
		l1.096-0.481l0.489-1.634h0.67v1.773h2.221v0.9h-2.221v4.504c0,0.461,0.109,0.814,0.328,1.061
		C228.163,63.906,228.464,64.029,228.846,64.029z"/>
	<path fill="#FFFFFF" d="M234.412,64.986c-1.131,0-2.024-0.345-2.678-1.033c-0.654-0.689-0.981-1.646-0.981-2.87
		c0-1.233,0.304-2.213,0.911-2.939s1.424-1.089,2.447-1.089c0.959,0,1.718,0.315,2.276,0.945c0.559,0.631,0.838,1.463,0.838,2.497
		v0.732h-5.271c0.023,0.898,0.25,1.581,0.681,2.046c0.431,0.466,1.037,0.698,1.819,0.698c0.823,0,1.639-0.172,2.443-0.517v1.033
		c-0.409,0.178-0.797,0.304-1.162,0.381S234.929,64.986,234.412,64.986z M234.098,58.024c-0.614,0-1.104,0.2-1.47,0.601
		s-0.581,0.955-0.646,1.662h4.001c0-0.73-0.163-1.29-0.489-1.68C235.168,58.22,234.703,58.024,234.098,58.024z"/>
</g>
</svg>
