<?xml version="1.0" encoding="UTF-8"?>
<svg xmlns="http://www.w3.org/2000/svg" xmlns:xlink="http://www.w3.org/1999/xlink" width="402pt" height="115pt" viewBox="0 0 402 115" version="1.1">
<g id="surface1">
<path style=" stroke:none;fill-rule:nonzero;fill:rgb(100%,100%,100%);fill-opacity:1;" d="M 171.40625 25.421875 C 171.488281 23.382812 170.679688 21.410156 169.191406 20.015625 C 167.761719 18.699219 165.875 17.988281 163.933594 18.03125 C 161.921875 17.972656 159.972656 18.730469 158.53125 20.136719 C 157.089844 21.558594 156.3125 23.519531 156.382812 25.546875 C 156.332031 27.398438 157.023438 29.195312 158.308594 30.535156 L 155.816406 36.53125 C 154.816406 32.300781 152.675781 29.09375 149.417969 27.066406 C 146.601562 25.382812 143.363281 24.535156 140.078125 24.625 C 138.558594 24.632812 137.039062 24.761719 135.535156 25.011719 L 116.519531 28.027344 C 116.121094 28.085938 115.769531 28.300781 115.53125 28.625 C 115.296875 28.949219 115.203125 29.355469 115.269531 29.75 L 121.683594 70.320312 C 121.796875 71.054688 122.429688 71.59375 123.171875 71.589844 L 123.40625 71.589844 L 136.8125 69.46875 C 137.207031 69.402344 137.5625 69.183594 137.796875 68.859375 C 138.035156 68.535156 138.128906 68.132812 138.066406 67.738281 L 136.636719 58.695312 L 140.753906 58.019531 C 146.402344 57.121094 150.621094 54.910156 153.316406 51.429688 C 155.671875 48.386719 156.691406 44.621094 156.375 40.203125 L 162.617188 40.203125 C 163.121094 40.203125 163.59375 39.949219 163.871094 39.527344 L 169.550781 30.972656 C 170.707031 29.347656 171.351562 27.417969 171.40625 25.421875 Z M 140.148438 43.734375 C 139.636719 44.421875 138.851562 44.851562 138 44.910156 L 134.578125 45.449219 L 133.515625 38.769531 L 136.941406 38.230469 C 137.207031 38.183594 137.472656 38.164062 137.742188 38.160156 C 138.324219 38.136719 138.898438 38.304688 139.371094 38.640625 C 140.046875 39.246094 140.464844 40.089844 140.53125 40.996094 C 140.753906 41.921875 140.617188 42.902344 140.148438 43.734375 Z M 140.148438 43.734375 "/>
<path style=" stroke:none;fill-rule:nonzero;fill:rgb(100%,100%,100%);fill-opacity:1;" d="M 123.191406 73.117188 C 121.664062 73.125 120.367188 72.011719 120.136719 70.503906 L 113.722656 29.933594 C 113.457031 28.246094 114.605469 26.660156 116.289062 26.390625 L 135.304688 23.375 C 141.328125 22.421875 146.359375 23.191406 150.285156 25.652344 C 152.742188 27.195312 154.710938 29.410156 155.957031 32.035156 L 156.488281 30.746094 C 155.371094 29.21875 154.78125 27.363281 154.816406 25.46875 C 154.746094 23.03125 155.695312 20.671875 157.4375 18.960938 C 159.164062 17.257812 161.507812 16.332031 163.933594 16.398438 C 166.269531 16.351562 168.535156 17.207031 170.261719 18.789062 C 172.09375 20.492188 173.089844 22.910156 172.996094 25.410156 C 172.941406 27.703125 172.214844 29.925781 170.902344 31.804688 L 165.222656 40.367188 C 164.640625 41.21875 163.675781 41.726562 162.640625 41.71875 L 158.023438 41.71875 C 158.101562 45.535156 156.882812 49.269531 154.574219 52.308594 C 151.628906 56.113281 147.0625 58.527344 141.003906 59.488281 L 138.453125 59.894531 L 139.65625 67.414062 C 139.917969 69.101562 138.765625 70.683594 137.082031 70.949219 L 123.675781 73.078125 C 123.515625 73.105469 123.351562 73.117188 123.191406 73.117188 Z M 116.863281 29.527344 L 123.257812 69.933594 L 136.507812 67.832031 L 135.0625 58.867188 C 134.996094 58.445312 135.101562 58.015625 135.355469 57.675781 C 135.613281 57.335938 135.992188 57.109375 136.414062 57.054688 L 140.53125 56.378906 C 145.765625 55.546875 149.65625 53.53125 152.085938 50.386719 C 154.195312 47.683594 155.113281 44.253906 154.820312 40.246094 C 154.785156 39.773438 154.964844 39.3125 155.300781 38.984375 C 155.640625 38.660156 156.109375 38.5 156.578125 38.554688 L 162.609375 38.554688 L 168.261719 30.035156 C 169.230469 28.675781 169.773438 27.058594 169.828125 25.390625 C 169.914062 23.800781 169.304688 22.25 168.152344 21.148438 C 167.015625 20.097656 165.511719 19.539062 163.964844 19.589844 C 162.375 19.523438 160.832031 20.117188 159.691406 21.230469 C 158.558594 22.347656 157.953125 23.894531 158.015625 25.484375 C 157.96875 26.925781 158.5 28.324219 159.496094 29.367188 C 159.933594 29.824219 160.0625 30.496094 159.820312 31.082031 L 157.335938 37.082031 C 157.066406 37.710938 156.425781 38.101562 155.742188 38.046875 C 155.0625 37.992188 154.488281 37.503906 154.328125 36.835938 C 153.429688 33.023438 151.511719 30.167969 148.628906 28.359375 C 145.375 26.328125 141.074219 25.695312 135.832031 26.519531 Z M 134.578125 47.039062 C 134.242188 47.042969 133.914062 46.9375 133.644531 46.734375 C 133.300781 46.492188 133.074219 46.117188 133.007812 45.699219 L 131.949219 39.019531 C 131.886719 38.601562 131.992188 38.171875 132.246094 37.828125 C 132.5 37.488281 132.878906 37.261719 133.300781 37.203125 L 136.722656 36.660156 C 137.984375 36.378906 139.304688 36.640625 140.363281 37.382812 C 141.378906 38.230469 142.015625 39.449219 142.132812 40.765625 C 142.429688 42.085938 142.203125 43.46875 141.503906 44.625 C 140.75 45.691406 139.574219 46.375 138.277344 46.5 L 134.851562 47.039062 C 134.761719 47.046875 134.667969 47.046875 134.578125 47.039062 Z M 140.148438 43.734375 Z M 135.332031 40.089844 L 135.894531 43.640625 L 137.765625 43.339844 C 138.171875 43.328125 138.558594 43.15625 138.835938 42.859375 C 139.074219 42.355469 139.125 41.785156 138.980469 41.246094 C 138.949219 40.742188 138.753906 40.265625 138.417969 39.894531 C 138.222656 39.757812 137.980469 39.699219 137.742188 39.730469 C 137.558594 39.734375 137.375 39.75 137.191406 39.777344 Z M 135.332031 40.089844 "/>
<path style=" stroke:none;fill-rule:nonzero;fill:rgb(100%,100%,100%);fill-opacity:1;" d="M 106.199219 40.765625 C 104.328125 38.152344 101.71875 36.164062 98.703125 35.058594 C 96.660156 34.320312 94.5 33.949219 92.328125 33.964844 C 91.074219 33.96875 89.824219 34.074219 88.585938 34.273438 C 85.257812 34.738281 82.09375 36.011719 79.371094 37.984375 C 76.847656 39.84375 74.929688 42.398438 73.84375 45.335938 C 73.097656 47.410156 72.734375 49.605469 72.785156 51.8125 L 70.847656 52.207031 L 70.847656 20.425781 L 26.335938 20.425781 L 26.335938 75.683594 L 70.875 75.683594 L 70.875 56.9375 L 75.757812 62.503906 C 76.074219 63.015625 76.421875 63.511719 76.789062 63.992188 C 78.738281 66.4375 81.371094 68.246094 84.351562 69.183594 C 86.332031 69.8125 88.394531 70.125 90.472656 70.109375 C 91.847656 70.105469 93.222656 69.992188 94.585938 69.773438 C 97.578125 69.34375 100.464844 68.335938 103.074219 66.804688 C 105.472656 65.363281 107.507812 63.394531 109.027344 61.042969 C 109.457031 60.371094 109.289062 59.484375 108.644531 59.015625 L 102.714844 54.769531 L 108.914062 53.78125 C 109.679688 53.664062 110.230469 52.980469 110.183594 52.207031 C 110.183594 51.753906 110.082031 51.152344 109.960938 50.367188 C 109.484375 46.914062 108.195312 43.621094 106.199219 40.765625 Z M 92.84375 47.121094 L 88.667969 47.796875 C 88.773438 47.476562 88.914062 47.171875 89.085938 46.882812 C 89.398438 46.355469 89.9375 46 90.546875 45.925781 C 90.679688 45.902344 90.8125 45.890625 90.945312 45.890625 C 91.445312 45.882812 91.929688 46.074219 92.296875 46.417969 C 92.519531 46.617188 92.703125 46.855469 92.84375 47.121094 Z M 92.84375 47.121094 "/>
<path style=" stroke:none;fill-rule:nonzero;fill:rgb(100%,100%,100%);fill-opacity:1;" d="M 70.847656 77.265625 L 26.335938 77.265625 C 25.464844 77.265625 24.753906 76.558594 24.75 75.683594 L 24.75 20.425781 C 24.75 19.550781 25.460938 18.835938 26.335938 18.835938 L 70.875 18.835938 C 71.746094 18.839844 72.453125 19.550781 72.453125 20.425781 L 72.453125 44.625 C 73.65625 41.476562 75.738281 38.738281 78.449219 36.742188 C 81.378906 34.613281 84.78125 33.234375 88.363281 32.734375 C 92.011719 32.066406 95.769531 32.355469 99.269531 33.570312 C 102.578125 34.78125 105.445312 36.964844 107.496094 39.832031 C 109.644531 42.898438 111.03125 46.429688 111.546875 50.136719 C 111.675781 50.96875 111.757812 51.617188 111.785156 52.125 C 111.882812 53.714844 110.757812 55.117188 109.183594 55.363281 L 106.808594 55.742188 L 109.554688 57.703125 C 110.90625 58.664062 111.257812 60.519531 110.351562 61.910156 C 108.703125 64.457031 106.492188 66.59375 103.890625 68.15625 C 101.105469 69.796875 98.027344 70.878906 94.828125 71.339844 C 91.167969 71.992188 87.40625 71.761719 83.855469 70.664062 C 80.574219 69.632812 77.675781 67.640625 75.539062 64.945312 C 75.15625 64.457031 74.800781 63.949219 74.472656 63.421875 L 72.449219 61.117188 L 72.449219 75.65625 C 72.453125 76.082031 72.289062 76.496094 71.988281 76.796875 C 71.6875 77.101562 71.273438 77.269531 70.847656 77.265625 Z M 27.898438 74.09375 L 69.261719 74.09375 L 69.261719 56.9375 C 69.261719 56.28125 69.671875 55.691406 70.285156 55.457031 C 70.902344 55.222656 71.597656 55.398438 72.035156 55.890625 L 76.917969 61.457031 C 76.976562 61.519531 77.027344 61.585938 77.074219 61.660156 C 78.828125 64.546875 81.582031 66.6875 84.8125 67.675781 C 87.894531 68.605469 91.148438 68.789062 94.3125 68.210938 C 97.105469 67.808594 99.792969 66.871094 102.230469 65.445312 C 104.394531 64.140625 106.242188 62.363281 107.632812 60.246094 L 101.78125 56.074219 C 101.261719 55.699219 101.015625 55.042969 101.164062 54.417969 C 101.3125 53.789062 101.824219 53.316406 102.457031 53.214844 L 108.589844 52.238281 C 108.589844 51.847656 108.496094 51.320312 108.386719 50.628906 C 107.953125 47.417969 106.761719 44.355469 104.910156 41.699219 C 103.226562 39.339844 100.871094 37.546875 98.15625 36.546875 C 95.160156 35.523438 91.953125 35.289062 88.84375 35.871094 C 85.769531 36.296875 82.847656 37.472656 80.328125 39.292969 C 78.050781 40.964844 76.316406 43.273438 75.335938 45.925781 C 74.660156 47.816406 74.332031 49.816406 74.371094 51.828125 C 74.386719 52.589844 73.851562 53.253906 73.101562 53.402344 L 71.164062 53.792969 C 70.699219 53.890625 70.214844 53.769531 69.847656 53.46875 C 69.476562 53.167969 69.265625 52.714844 69.265625 52.238281 L 69.265625 22.007812 L 27.898438 22.007812 Z M 88.667969 49.359375 C 88.160156 49.355469 87.6875 49.109375 87.390625 48.699219 C 87.09375 48.289062 87.007812 47.761719 87.164062 47.277344 C 87.304688 46.832031 87.503906 46.40625 87.75 46.011719 C 88.328125 45.101562 89.273438 44.488281 90.339844 44.332031 C 91.40625 44.171875 92.488281 44.484375 93.308594 45.1875 C 93.6875 45.519531 94.003906 45.917969 94.238281 46.363281 C 94.476562 46.820312 94.476562 47.363281 94.238281 47.816406 C 94.015625 48.269531 93.589844 48.59375 93.09375 48.683594 L 88.917969 49.359375 C 88.835938 49.367188 88.75 49.367188 88.667969 49.359375 Z M 88.667969 49.359375 "/>
<path style=" stroke:none;fill-rule:nonzero;fill:rgb(100%,100%,100%);fill-opacity:1;" d="M 238.898438 36.964844 L 232.984375 36.125 L 234.015625 28.75 C 234.074219 28.351562 233.972656 27.949219 233.730469 27.628906 C 233.492188 27.308594 233.128906 27.097656 232.734375 27.046875 L 219.753906 25.214844 L 219.542969 25.214844 C 219.214844 25.214844 218.894531 25.320312 218.632812 25.519531 C 218.316406 25.761719 218.105469 26.117188 218.050781 26.511719 L 217.011719 33.894531 L 214.160156 33.496094 C 214.089844 33.488281 214.019531 33.488281 213.945312 33.496094 C 213.195312 33.496094 212.5625 34.050781 212.460938 34.792969 L 211.71875 40.097656 L 210.699219 33.761719 C 210.636719 33.367188 210.417969 33.015625 210.097656 32.78125 C 209.839844 32.59375 209.53125 32.492188 209.210938 32.488281 C 209.132812 32.480469 209.054688 32.480469 208.976562 32.488281 L 205.464844 33.042969 C 206.398438 32.5 207.210938 31.765625 207.839844 30.886719 C 209.117188 29.105469 209.605469 26.878906 209.191406 24.726562 C 208.90625 22.5625 207.75 20.605469 205.992188 19.316406 C 204.644531 18.328125 203.015625 17.804688 201.34375 17.824219 C 200.839844 17.824219 200.335938 17.867188 199.839844 17.945312 C 197.664062 18.214844 195.695312 19.378906 194.40625 21.152344 C 193.117188 22.929688 192.625 25.160156 193.039062 27.316406 C 193.324219 29.480469 194.480469 31.433594 196.238281 32.726562 C 197.125 33.378906 198.140625 33.832031 199.21875 34.058594 L 195.988281 34.570312 C 195.183594 34.699219 194.628906 35.445312 194.734375 36.253906 C 194.617188 36.199219 194.488281 36.160156 194.363281 36.140625 L 188.414062 35.308594 L 189.453125 27.925781 C 189.566406 27.101562 188.992188 26.339844 188.167969 26.222656 L 175.191406 24.394531 C 175.121094 24.390625 175.050781 24.390625 174.980469 24.394531 C 174.238281 24.40625 173.613281 24.957031 173.507812 25.695312 L 172.476562 33.0625 L 169.617188 32.65625 L 169.410156 32.65625 C 169.082031 32.660156 168.765625 32.765625 168.503906 32.960938 C 168.183594 33.199219 167.96875 33.558594 167.917969 33.957031 L 166.761719 42.191406 C 166.707031 42.589844 166.808594 42.992188 167.050781 43.308594 C 167.292969 43.628906 167.648438 43.839844 168.042969 43.894531 L 170.894531 44.300781 L 169.503906 54.335938 C 168.984375 58.046875 169.808594 61.238281 171.949219 63.800781 C 174.089844 66.363281 177.113281 67.914062 181.039062 68.46875 C 182.289062 68.640625 183.554688 68.730469 184.820312 68.730469 C 185.394531 68.730469 185.96875 68.730469 186.542969 68.675781 C 188.175781 68.609375 189.789062 68.277344 191.316406 67.691406 C 191.929688 67.433594 192.304688 66.804688 192.234375 66.140625 L 191.28125 56.898438 C 191.242188 56.46875 191.015625 56.082031 190.667969 55.828125 C 190.410156 55.644531 190.101562 55.542969 189.78125 55.546875 C 189.671875 55.535156 189.5625 55.535156 189.453125 55.546875 C 188.648438 55.75 187.828125 55.871094 187 55.902344 C 186.878906 55.914062 186.757812 55.914062 186.636719 55.902344 L 186.5625 55.902344 C 186.300781 55.917969 186.050781 55.804688 185.886719 55.601562 C 185.703125 55.296875 185.652344 54.933594 185.746094 54.59375 L 186.878906 46.480469 L 192.800781 47.308594 C 192.875 47.316406 192.945312 47.316406 193.019531 47.308594 C 193.769531 47.308594 194.402344 46.75 194.503906 46.003906 L 195.355469 39.972656 L 199.765625 67.871094 C 199.875 68.609375 200.511719 69.152344 201.257812 69.144531 L 201.484375 69.144531 L 214.492188 67.113281 C 214.886719 67.050781 215.242188 66.832031 215.476562 66.507812 C 215.710938 66.183594 215.804688 65.78125 215.742188 65.382812 L 215.363281 62.992188 C 215.695312 63.5625 216.070312 64.109375 216.492188 64.621094 C 218.597656 67.164062 221.65625 68.730469 225.574219 69.277344 C 226.828125 69.460938 228.09375 69.550781 229.363281 69.550781 C 229.929688 69.550781 230.511719 69.550781 231.085938 69.496094 C 232.71875 69.425781 234.332031 69.089844 235.859375 68.5 C 236.472656 68.246094 236.84375 67.621094 236.777344 66.960938 L 235.804688 57.742188 C 235.765625 57.3125 235.539062 56.917969 235.183594 56.667969 C 234.929688 56.484375 234.621094 56.386719 234.304688 56.382812 C 234.195312 56.382812 234.082031 56.398438 233.976562 56.425781 C 233.171875 56.628906 232.351562 56.746094 231.523438 56.777344 C 231.402344 56.785156 231.28125 56.785156 231.160156 56.777344 L 231.085938 56.777344 C 230.597656 56.730469 230.46875 56.554688 230.410156 56.464844 C 230.222656 56.160156 230.179688 55.789062 230.28125 55.445312 L 231.402344 47.332031 L 237.324219 48.164062 L 237.535156 48.164062 C 237.859375 48.160156 238.179688 48.054688 238.4375 47.859375 C 238.761719 47.621094 238.972656 47.261719 239.027344 46.863281 L 240.179688 38.628906 C 240.238281 38.230469 240.132812 37.828125 239.890625 37.507812 C 239.644531 37.203125 239.289062 37.007812 238.898438 36.964844 Z M 212.445312 44.671875 L 212.582031 44.707031 L 215.4375 45.105469 L 214.085938 54.910156 Z M 212.445312 44.671875 "/>
<path style=" stroke:none;fill-rule:nonzero;fill:rgb(100%,100%,100%);fill-opacity:1;" d="M 229.34375 71.160156 C 228.003906 71.15625 226.664062 71.0625 225.339844 70.882812 C 222.222656 70.53125 219.277344 69.285156 216.855469 67.289062 C 216.820312 67.351562 216.777344 67.410156 216.734375 67.464844 C 216.253906 68.132812 215.523438 68.582031 214.707031 68.703125 L 201.703125 70.730469 C 200.894531 70.863281 200.070312 70.664062 199.40625 70.183594 C 198.742188 69.699219 198.292969 68.96875 198.164062 68.15625 L 195.003906 48.164062 C 194.332031 48.753906 193.4375 49.023438 192.550781 48.898438 L 188.195312 48.285156 L 187.34375 54.308594 C 187.925781 54.25 188.5 54.152344 189.066406 54.011719 C 189.929688 53.816406 190.835938 54 191.554688 54.515625 C 192.273438 55.03125 192.738281 55.832031 192.828125 56.714844 L 193.816406 66 C 193.964844 67.359375 193.195312 68.652344 191.929688 69.171875 C 190.242188 69.828125 188.457031 70.203125 186.648438 70.277344 C 184.703125 70.402344 182.75 70.328125 180.820312 70.054688 C 176.5 69.449219 173.101562 67.695312 170.738281 64.835938 C 168.375 61.976562 167.363281 58.292969 167.945312 54.121094 L 169.132812 45.640625 L 167.847656 45.457031 C 166.160156 45.21875 164.984375 43.65625 165.214844 41.960938 L 166.375 33.71875 C 166.621094 32.046875 168.160156 30.882812 169.835938 31.101562 L 171.125 31.285156 L 171.941406 25.46875 C 172.183594 23.78125 173.738281 22.605469 175.425781 22.832031 L 188.414062 24.652344 C 189.226562 24.765625 189.960938 25.195312 190.453125 25.851562 C 190.949219 26.507812 191.160156 27.335938 191.046875 28.148438 L 190.230469 33.957031 L 193.605469 34.429688 C 193.859375 34.019531 194.207031 33.671875 194.617188 33.421875 C 192.925781 31.894531 191.828125 29.816406 191.523438 27.554688 C 190.910156 24.074219 192.222656 20.53125 194.953125 18.292969 C 197.683594 16.050781 201.410156 15.460938 204.695312 16.746094 C 207.984375 18.035156 210.324219 20.996094 210.8125 24.496094 C 211.214844 26.703125 210.835938 28.984375 209.738281 30.941406 C 210.226562 31.015625 210.6875 31.207031 211.089844 31.496094 C 211.480469 31.785156 211.804688 32.15625 212.027344 32.589844 C 212.695312 32.042969 213.5625 31.796875 214.417969 31.914062 L 215.707031 32.097656 L 216.519531 26.289062 C 216.632812 25.480469 217.066406 24.75 217.722656 24.261719 C 218.375 23.769531 219.199219 23.554688 220.011719 23.664062 L 232.984375 25.46875 C 234.675781 25.707031 235.851562 27.273438 235.617188 28.964844 L 234.800781 34.78125 L 239.15625 35.390625 C 240.847656 35.628906 242.027344 37.191406 241.789062 38.886719 L 240.59375 47.128906 C 240.480469 47.941406 240.046875 48.675781 239.394531 49.167969 C 238.738281 49.660156 237.914062 49.875 237.101562 49.757812 L 232.746094 49.148438 L 231.902344 55.175781 C 232.480469 55.113281 233.058594 55.011719 233.625 54.875 C 234.488281 54.683594 235.390625 54.867188 236.109375 55.382812 C 236.828125 55.902344 237.292969 56.699219 237.386719 57.582031 L 238.332031 66.824219 C 238.480469 68.183594 237.710938 69.476562 236.445312 69.996094 C 234.757812 70.648438 232.976562 71.023438 231.167969 71.105469 C 230.566406 71.144531 229.949219 71.160156 229.34375 71.160156 Z M 215.34375 61.433594 C 215.902344 61.441406 216.417969 61.746094 216.695312 62.234375 C 216.980469 62.726562 217.304688 63.195312 217.667969 63.632812 C 219.511719 65.863281 222.230469 67.242188 225.769531 67.738281 C 227.488281 67.980469 229.226562 68.046875 230.957031 67.933594 C 232.394531 67.875 233.816406 67.589844 235.164062 67.085938 L 234.230469 57.988281 C 233.160156 58.289062 232.042969 58.402344 230.929688 58.324219 C 230.214844 58.292969 229.550781 57.945312 229.121094 57.371094 C 228.695312 56.738281 228.539062 55.960938 228.6875 55.214844 L 229.824219 47.101562 C 229.945312 46.234375 230.746094 45.628906 231.613281 45.75 L 237.460938 46.574219 L 238.59375 38.460938 L 232.746094 37.640625 C 231.878906 37.519531 231.277344 36.71875 231.394531 35.847656 L 232.421875 28.539062 L 219.589844 26.734375 L 218.570312 34.042969 C 218.511719 34.457031 218.289062 34.832031 217.957031 35.085938 C 217.621094 35.339844 217.199219 35.449219 216.78125 35.390625 L 214.007812 35.003906 L 213.269531 40.222656 C 213.15625 40.996094 212.496094 41.570312 211.71875 41.578125 C 210.933594 41.578125 210.265625 41.003906 210.152344 40.222656 L 209.164062 34.003906 L 205.734375 34.542969 C 204.980469 34.65625 204.253906 34.222656 204 33.503906 C 203.75 32.785156 204.039062 31.988281 204.695312 31.601562 C 205.4375 31.171875 206.082031 30.585938 206.585938 29.886719 C 207.621094 28.449219 208.011719 26.648438 207.664062 24.910156 C 207.074219 21.308594 203.683594 18.871094 200.089844 19.460938 C 196.492188 20.050781 194.054688 23.445312 194.644531 27.046875 C 194.851562 28.808594 195.78125 30.402344 197.210938 31.449219 C 197.910156 31.953125 198.707031 32.3125 199.546875 32.496094 C 200.289062 32.660156 200.808594 33.328125 200.789062 34.085938 C 200.769531 34.847656 200.214844 35.484375 199.46875 35.613281 L 196.3125 36.113281 C 196.363281 36.667969 196.117188 37.203125 195.664062 37.527344 C 195.214844 37.855469 194.628906 37.917969 194.117188 37.695312 L 188.214844 36.863281 C 187.800781 36.808594 187.421875 36.585938 187.167969 36.25 C 186.914062 35.914062 186.804688 35.488281 186.867188 35.070312 L 187.890625 27.769531 L 175.0625 25.964844 L 174.035156 33.265625 C 173.976562 33.683594 173.753906 34.058594 173.421875 34.316406 C 173.082031 34.5625 172.660156 34.671875 172.246094 34.617188 L 169.503906 34.242188 L 168.367188 42.355469 L 171.144531 42.738281 C 172.011719 42.863281 172.617188 43.667969 172.496094 44.539062 L 171.058594 54.558594 C 170.597656 57.8125 171.300781 60.582031 173.148438 62.808594 C 175 65.03125 177.714844 66.417969 181.253906 66.917969 C 182.972656 67.15625 184.710938 67.222656 186.441406 67.113281 C 187.871094 67.054688 189.285156 66.765625 190.628906 66.261719 L 189.695312 57.167969 C 188.621094 57.460938 187.503906 57.578125 186.394531 57.507812 C 185.675781 57.472656 185.011719 57.121094 184.582031 56.546875 C 184.164062 55.910156 184.011719 55.136719 184.15625 54.390625 L 185.292969 46.277344 C 185.347656 45.859375 185.570312 45.480469 185.90625 45.226562 C 186.242188 44.972656 186.664062 44.863281 187.082031 44.921875 L 192.921875 45.742188 L 193.761719 39.785156 C 193.882812 39.015625 194.546875 38.449219 195.328125 38.449219 C 196.105469 38.449219 196.769531 39.015625 196.894531 39.785156 L 201.296875 67.617188 L 214.128906 65.585938 L 213.761719 63.269531 C 213.6875 62.808594 213.816406 62.34375 214.117188 61.988281 C 214.417969 61.636719 214.859375 61.433594 215.324219 61.433594 Z M 231.820312 55.808594 Z M 237.546875 46.65625 Z M 238.683594 38.539062 Z M 169.394531 34.242188 Z M 219.53125 26.800781 Z M 214.074219 56.492188 C 213.292969 56.492188 212.628906 55.914062 212.515625 55.140625 L 210.894531 44.910156 C 210.808594 44.386719 210.992188 43.855469 211.378906 43.496094 C 211.765625 43.136719 212.308594 42.992188 212.824219 43.117188 L 212.886719 43.117188 L 215.675781 43.511719 C 216.542969 43.632812 217.144531 44.433594 217.023438 45.300781 L 215.675781 55.101562 C 215.558594 55.875 214.894531 56.449219 214.113281 56.453125 Z M 212.8125 43.132812 Z M 212.8125 43.132812 "/>
<path style=" stroke:none;fill-rule:nonzero;fill:rgb(100%,100%,100%);fill-opacity:1;" d="M 385.960938 47.8125 C 385.121094 45.003906 383.476562 42.5 381.234375 40.617188 C 378.90625 38.734375 376.101562 37.539062 373.128906 37.175781 C 372.496094 37.085938 371.859375 37.042969 371.21875 37.039062 C 369.523438 37.027344 367.847656 37.394531 366.308594 38.109375 L 367.882812 26.898438 C 367.9375 26.5 367.835938 26.097656 367.59375 25.777344 C 367.355469 25.460938 366.996094 25.25 366.601562 25.195312 L 353.566406 23.359375 C 353.496094 23.355469 353.425781 23.355469 353.355469 23.359375 C 352.601562 23.347656 351.953125 23.898438 351.835938 24.644531 L 346.746094 60.785156 L 342.296875 32.652344 C 342.175781 31.921875 341.546875 31.382812 340.808594 31.378906 C 340.730469 31.375 340.652344 31.375 340.574219 31.378906 L 327.566406 33.441406 C 327.171875 33.503906 326.820312 33.71875 326.585938 34.039062 C 326.351562 34.363281 326.253906 34.765625 326.316406 35.160156 L 328.796875 50.839844 C 329.011719 51.824219 328.90625 52.847656 328.5 53.769531 C 328.210938 54.359375 327.632812 54.757812 326.980469 54.824219 C 326.863281 54.832031 326.746094 54.832031 326.628906 54.824219 C 326.21875 54.828125 325.824219 54.667969 325.527344 54.382812 C 324.972656 53.804688 324.625 53.058594 324.546875 52.261719 L 321.949219 35.828125 C 321.835938 35.09375 321.203125 34.550781 320.460938 34.550781 L 320.226562 34.550781 L 307.226562 36.578125 L 307.015625 36.632812 L 307.015625 24.867188 C 307.015625 24.035156 306.34375 23.359375 305.511719 23.359375 L 292.347656 23.359375 C 291.519531 23.359375 290.84375 24.035156 290.84375 24.867188 L 290.84375 56.363281 L 282.660156 49.996094 C 282.328125 49.734375 281.90625 49.628906 281.492188 49.695312 C 281.074219 49.769531 280.707031 50.015625 280.476562 50.375 C 279.507812 51.816406 278.289062 53.074219 276.878906 54.09375 C 275.757812 54.980469 274.4375 55.589844 273.035156 55.871094 C 272.679688 55.925781 272.320312 55.957031 271.960938 55.957031 C 271.070312 55.957031 270.191406 55.765625 269.382812 55.398438 C 268.1875 54.851562 267.171875 53.980469 266.445312 52.886719 C 265.605469 51.625 265.0625 50.1875 264.859375 48.683594 C 264.59375 47.191406 264.675781 45.660156 265.09375 44.207031 C 265.449219 42.960938 266.152344 41.839844 267.121094 40.976562 C 268.308594 39.925781 269.839844 39.34375 271.429688 39.339844 C 272.589844 39.363281 273.738281 39.613281 274.804688 40.074219 C 276.472656 40.769531 277.988281 41.792969 279.253906 43.085938 C 279.539062 43.367188 279.921875 43.527344 280.320312 43.53125 L 280.496094 43.53125 C 280.957031 43.476562 281.363281 43.214844 281.605469 42.820312 L 287.890625 32.394531 C 288.285156 31.746094 288.132812 30.90625 287.542969 30.433594 C 284.816406 28.300781 281.671875 26.765625 278.316406 25.921875 C 276.140625 25.339844 273.898438 25.035156 271.644531 25.019531 C 270.4375 25.015625 269.234375 25.113281 268.046875 25.300781 C 263.855469 25.90625 259.882812 27.554688 256.496094 30.101562 C 253.308594 32.519531 250.84375 35.761719 249.367188 39.480469 C 247.875 43.308594 247.457031 47.46875 248.15625 51.515625 C 248.75 55.617188 250.410156 59.484375 252.972656 62.738281 C 255.449219 65.878906 258.742188 68.269531 262.492188 69.644531 C 265.058594 70.59375 267.773438 71.074219 270.511719 71.0625 C 271.914062 71.058594 273.3125 70.945312 274.695312 70.726562 C 278.183594 70.132812 281.496094 68.777344 284.402344 66.757812 C 286.859375 65.109375 289.035156 63.074219 290.84375 60.730469 L 290.84375 68.332031 C 290.84375 69.164062 291.519531 69.839844 292.347656 69.839844 L 305.511719 69.839844 C 306.34375 69.839844 307.015625 69.164062 307.015625 68.332031 L 307.015625 45.03125 L 309.164062 58.609375 C 309.503906 61.050781 310.429688 63.371094 311.867188 65.371094 C 313.1875 67.199219 314.992188 68.621094 317.078125 69.476562 C 318.519531 70.058594 320.058594 70.355469 321.609375 70.347656 C 322.355469 70.34375 323.101562 70.285156 323.839844 70.164062 C 325.957031 69.863281 327.96875 69.035156 329.6875 67.757812 C 330.246094 67.328125 330.769531 66.847656 331.246094 66.332031 L 331.328125 66.859375 C 331.386719 67.253906 331.605469 67.609375 331.929688 67.84375 C 332.1875 68.03125 332.496094 68.128906 332.8125 68.128906 C 332.894531 68.136719 332.972656 68.136719 333.050781 68.128906 L 346.015625 66.101562 L 345.78125 67.75 C 345.667969 68.574219 346.242188 69.335938 347.0625 69.453125 L 360.105469 71.285156 C 360.171875 71.292969 360.242188 71.292969 360.3125 71.285156 C 361.0625 71.285156 361.699219 70.730469 361.796875 69.988281 C 362.269531 70.390625 362.765625 70.753906 363.292969 71.082031 C 364.859375 72.050781 366.613281 72.675781 368.4375 72.917969 C 369.292969 73.035156 370.152344 73.097656 371.015625 73.097656 C 373.082031 73.113281 375.128906 72.703125 377.027344 71.886719 C 379.652344 70.730469 381.878906 68.824219 383.429688 66.40625 C 385.132812 63.699219 386.214844 60.648438 386.589844 57.472656 C 387.113281 54.246094 386.898438 50.941406 385.960938 47.8125 Z M 367.410156 49.691406 C 367.574219 49.691406 367.734375 49.703125 367.898438 49.730469 C 368.792969 49.820312 369.585938 50.355469 370.011719 51.152344 C 370.578125 52.292969 370.753906 53.589844 370.503906 54.84375 C 370.394531 56.101562 369.871094 57.289062 369.019531 58.222656 C 368.511719 58.753906 367.8125 59.050781 367.078125 59.046875 C 366.917969 59.046875 366.753906 59.035156 366.59375 59.015625 C 365.707031 58.929688 364.921875 58.398438 364.511719 57.609375 C 363.957031 56.457031 363.792969 55.15625 364.039062 53.902344 C 364.148438 52.632812 364.664062 51.433594 365.511719 50.480469 C 366.007812 49.960938 366.695312 49.675781 367.410156 49.691406 Z M 367.410156 49.691406 "/>
<path style=" stroke:none;fill-rule:nonzero;fill:rgb(100%,100%,100%);fill-opacity:1;" d="M 371.011719 74.648438 C 370.070312 74.644531 369.136719 74.578125 368.207031 74.445312 C 366.164062 74.183594 364.199219 73.492188 362.441406 72.414062 L 362.164062 72.234375 C 361.507812 72.726562 360.6875 72.941406 359.875 72.828125 L 346.832031 70.996094 C 345.320312 70.78125 344.191406 69.496094 344.171875 67.96875 L 333.292969 69.644531 C 333.132812 69.671875 332.96875 69.683594 332.808594 69.683594 C 332.15625 69.6875 331.523438 69.480469 330.996094 69.097656 C 330.910156 69.035156 330.828125 68.96875 330.746094 68.898438 L 330.640625 68.980469 C 328.714844 70.414062 326.460938 71.34375 324.082031 71.6875 C 321.523438 72.132812 318.886719 71.859375 316.472656 70.902344 C 314.117188 69.933594 312.078125 68.332031 310.582031 66.269531 C 309.769531 65.160156 309.109375 63.945312 308.617188 62.660156 L 308.617188 68.339844 C 308.613281 70.046875 307.230469 71.433594 305.523438 71.433594 L 292.347656 71.433594 C 290.644531 71.433594 289.261719 70.046875 289.257812 68.339844 L 289.257812 64.871094 C 288.03125 66.054688 286.699219 67.128906 285.285156 68.082031 C 282.1875 70.226562 278.660156 71.667969 274.945312 72.300781 C 270.582031 73.050781 266.101562 72.648438 261.941406 71.136719 C 257.921875 69.664062 254.390625 67.105469 251.734375 63.746094 C 249 60.277344 247.226562 56.148438 246.589844 51.773438 C 245.847656 47.453125 246.300781 43.011719 247.894531 38.925781 C 249.476562 34.941406 252.117188 31.464844 255.53125 28.878906 C 259.125 26.167969 263.34375 24.410156 267.796875 23.765625 C 275.144531 22.734375 282.601562 24.695312 288.5 29.210938 C 288.808594 29.453125 289.0625 29.753906 289.257812 30.09375 L 289.257812 24.890625 C 289.261719 23.179688 290.644531 21.796875 292.347656 21.792969 L 305.511719 21.792969 C 307.214844 21.789062 308.601562 23.164062 308.617188 24.867188 L 308.617188 34.863281 L 319.996094 33.058594 C 320.808594 32.921875 321.636719 33.121094 322.300781 33.605469 C 322.964844 34.089844 323.40625 34.820312 323.527344 35.632812 L 326.113281 52.0625 C 326.148438 52.5 326.3125 52.917969 326.585938 53.261719 L 326.648438 53.308594 C 326.675781 53.300781 326.703125 53.300781 326.730469 53.308594 C 327 53.265625 327.019531 53.226562 327.09375 53.078125 C 327.34375 52.464844 327.390625 51.785156 327.230469 51.144531 L 324.75 35.464844 C 324.484375 33.777344 325.632812 32.191406 327.316406 31.921875 L 340.359375 29.832031 C 340.519531 29.820312 340.683594 29.820312 340.84375 29.832031 C 342.363281 29.824219 343.660156 30.9375 343.890625 32.441406 L 346.652344 50.035156 L 350.25 24.410156 C 350.367188 23.601562 350.796875 22.871094 351.445312 22.378906 C 352.105469 21.890625 352.929688 21.679688 353.742188 21.792969 L 366.777344 23.625 C 368.46875 23.863281 369.644531 25.425781 369.410156 27.121094 L 368.195312 35.78125 C 369.871094 35.410156 371.605469 35.351562 373.304688 35.605469 C 376.574219 36.003906 379.667969 37.316406 382.226562 39.394531 C 384.710938 41.46875 386.535156 44.230469 387.472656 47.332031 C 388.472656 50.6875 388.703125 54.226562 388.148438 57.683594 C 387.734375 61.085938 386.570312 64.351562 384.730469 67.242188 C 383.019531 69.925781 380.550781 72.042969 377.640625 73.328125 C 375.542969 74.21875 373.289062 74.667969 371.011719 74.648438 Z M 361.792969 68.359375 C 362.171875 68.359375 362.539062 68.496094 362.824219 68.746094 C 363.234375 69.09375 363.667969 69.414062 364.121094 69.699219 C 365.5 70.546875 367.046875 71.097656 368.652344 71.308594 C 371.265625 71.726562 373.945312 71.410156 376.390625 70.394531 C 378.734375 69.359375 380.71875 67.652344 382.097656 65.492188 C 383.671875 62.996094 384.671875 60.175781 385.023438 57.242188 C 385.503906 54.253906 385.308594 51.195312 384.457031 48.289062 C 383.695312 45.769531 382.21875 43.527344 380.199219 41.839844 C 378.097656 40.140625 375.5625 39.070312 372.878906 38.75 C 370.867188 38.425781 368.804688 38.699219 366.945312 39.542969 C 366.421875 39.792969 365.800781 39.730469 365.335938 39.378906 C 364.847656 39.039062 364.589844 38.453125 364.667969 37.863281 L 366.230469 26.734375 L 353.351562 24.921875 L 348.285156 60.980469 C 348.171875 61.753906 347.511719 62.328125 346.734375 62.335938 C 345.945312 62.335938 345.28125 61.761719 345.164062 60.980469 L 340.730469 32.929688 L 327.898438 34.957031 L 330.371094 50.5625 C 330.644531 51.882812 330.480469 53.257812 329.902344 54.476562 C 329.382812 55.507812 328.382812 56.214844 327.234375 56.355469 C 326.238281 56.539062 325.210938 56.238281 324.46875 55.546875 C 323.640625 54.730469 323.121094 53.65625 322.996094 52.503906 L 320.410156 36.148438 L 307.53125 38.175781 L 307.488281 38.175781 C 307.011719 38.316406 306.496094 38.222656 306.097656 37.925781 C 305.699219 37.628906 305.464844 37.160156 305.464844 36.660156 L 305.464844 24.941406 L 292.410156 24.941406 L 292.410156 56.363281 C 292.410156 56.96875 292.066406 57.523438 291.523438 57.789062 C 290.980469 58.054688 290.335938 57.988281 289.859375 57.613281 L 281.753906 51.300781 C 280.695312 52.882812 279.375 54.265625 277.84375 55.398438 C 276.515625 56.441406 274.960938 57.152344 273.304688 57.472656 C 271.769531 57.726562 270.191406 57.515625 268.773438 56.863281 C 267.316406 56.203125 266.074219 55.148438 265.1875 53.816406 C 263.246094 50.847656 262.664062 47.191406 263.59375 43.765625 C 264.035156 42.242188 264.894531 40.871094 266.074219 39.8125 C 267.230469 38.769531 268.667969 38.09375 270.207031 37.863281 C 271.96875 37.640625 273.757812 37.902344 275.378906 38.628906 C 277.203125 39.398438 278.859375 40.519531 280.253906 41.921875 L 286.453125 31.636719 C 281.257812 27.710938 274.722656 26.007812 268.273438 26.902344 C 264.351562 27.464844 260.636719 29.011719 257.46875 31.402344 C 254.507812 33.640625 252.214844 36.648438 250.84375 40.101562 C 249.460938 43.664062 249.074219 47.535156 249.722656 51.300781 C 250.277344 55.128906 251.828125 58.746094 254.222656 61.785156 C 256.515625 64.695312 259.570312 66.910156 263.046875 68.183594 C 269.90625 70.648438 277.53125 69.640625 283.515625 65.480469 C 285.832031 63.921875 287.886719 62 289.59375 59.792969 C 290.011719 59.257812 290.71875 59.050781 291.359375 59.269531 C 291.996094 59.488281 292.429688 60.089844 292.429688 60.765625 L 292.429688 68.292969 L 305.445312 68.292969 L 305.445312 45.03125 C 305.417969 44.1875 306.058594 43.472656 306.898438 43.40625 C 307.738281 43.335938 308.484375 43.945312 308.589844 44.78125 L 310.738281 58.359375 C 311.03125 60.550781 311.855469 62.640625 313.136719 64.445312 C 314.289062 66.035156 315.859375 67.273438 317.671875 68.019531 C 319.554688 68.761719 321.601562 68.96875 323.589844 68.617188 C 325.449219 68.351562 327.214844 67.625 328.730469 66.507812 C 329.214844 66.136719 329.664062 65.722656 330.078125 65.277344 C 330.492188 64.84375 331.113281 64.679688 331.683594 64.855469 C 332.253906 65.027344 332.679688 65.511719 332.78125 66.101562 L 332.855469 66.546875 L 345.738281 64.519531 C 346.234375 64.441406 346.734375 64.601562 347.089844 64.953125 C 347.445312 65.304688 347.617188 65.804688 347.550781 66.304688 L 347.328125 67.878906 L 360.238281 69.644531 C 360.34375 69.101562 360.722656 68.65625 361.238281 68.460938 C 361.414062 68.394531 361.601562 68.359375 361.792969 68.359375 Z M 271.421875 40.949219 C 271.183594 40.945312 270.941406 40.964844 270.707031 41 C 269.757812 41.128906 268.875 41.542969 268.167969 42.183594 C 267.417969 42.855469 266.875 43.726562 266.605469 44.695312 C 266.261719 45.917969 266.199219 47.203125 266.425781 48.453125 C 266.597656 49.726562 267.058594 50.941406 267.773438 52.007812 C 268.335938 52.867188 269.125 53.550781 270.058594 53.976562 C 270.917969 54.371094 271.878906 54.496094 272.8125 54.328125 C 273.96875 54.089844 275.046875 53.582031 275.964844 52.839844 C 277.222656 51.914062 278.304688 50.769531 279.160156 49.460938 C 279.636719 48.742188 280.386719 48.253906 281.234375 48.109375 C 282.082031 47.984375 282.945312 48.203125 283.632812 48.714844 L 289.257812 53.097656 L 289.257812 33.132812 L 289.222656 33.191406 L 282.957031 43.640625 C 282.464844 44.457031 281.621094 45 280.675781 45.113281 C 279.730469 45.226562 278.785156 44.898438 278.113281 44.21875 C 276.992188 43.078125 275.652344 42.175781 274.175781 41.5625 C 273.304688 41.183594 272.371094 40.976562 271.421875 40.949219 Z M 281.6875 51.246094 Z M 367.078125 60.664062 C 366.84375 60.664062 366.605469 60.644531 366.371094 60.609375 C 364.992188 60.457031 363.78125 59.632812 363.128906 58.40625 C 362.394531 56.957031 362.15625 55.308594 362.453125 53.714844 C 362.605469 52.085938 363.289062 50.558594 364.398438 49.359375 C 365.363281 48.363281 366.753906 47.90625 368.121094 48.136719 C 369.519531 48.289062 370.75 49.121094 371.421875 50.359375 C 372.171875 51.816406 372.410156 53.484375 372.097656 55.09375 C 371.949219 56.714844 371.261719 58.238281 370.144531 59.421875 C 369.332031 60.230469 368.226562 60.679688 367.078125 60.664062 Z M 367.410156 51.28125 C 367.109375 51.269531 366.824219 51.398438 366.632812 51.632812 C 366.039062 52.34375 365.679688 53.226562 365.613281 54.152344 C 365.421875 55.0625 365.519531 56.007812 365.898438 56.859375 C 366.0625 57.214844 366.414062 57.453125 366.808594 57.464844 C 367.214844 57.570312 367.640625 57.433594 367.910156 57.113281 C 368.511719 56.414062 368.871094 55.539062 368.9375 54.621094 C 369.132812 53.707031 369.023438 52.757812 368.632812 51.914062 C 368.457031 51.539062 368.089844 51.292969 367.675781 51.273438 C 367.585938 51.269531 367.496094 51.269531 367.410156 51.28125 Z M 367.410156 51.28125 "/>
<path style=" stroke:none;fill-rule:nonzero;fill:rgb(100%,100%,100%);fill-opacity:1;" d="M 87.789062 92.761719 L 90.242188 92.761719 L 90.242188 96.628906 C 89.085938 97.871094 87.441406 98.535156 85.75 98.441406 C 84.242188 98.488281 82.777344 97.914062 81.699219 96.851562 C 80.617188 95.800781 80.027344 94.34375 80.070312 92.835938 C 80.027344 91.308594 80.632812 89.835938 81.734375 88.777344 C 82.789062 87.714844 84.234375 87.128906 85.730469 87.15625 C 87.230469 87.140625 88.675781 87.691406 89.78125 88.703125 L 88.519531 90.523438 C 88.121094 90.15625 87.664062 89.859375 87.167969 89.644531 C 86.738281 89.476562 86.28125 89.394531 85.820312 89.402344 C 84.941406 89.382812 84.097656 89.722656 83.480469 90.347656 C 82.230469 91.753906 82.210938 93.875 83.441406 95.304688 C 84.003906 95.90625 84.792969 96.242188 85.617188 96.238281 C 86.347656 96.261719 87.070312 96.09375 87.714844 95.75 Z M 87.789062 92.761719 "/>
<path style=" stroke:none;fill-rule:nonzero;fill:rgb(100%,100%,100%);fill-opacity:1;" d="M 98.46875 98.3125 L 96.035156 98.3125 L 96.035156 93.984375 L 92.269531 87.386719 L 94.894531 87.386719 L 97.25 91.441406 L 99.601562 87.386719 L 102.234375 87.386719 L 98.46875 93.984375 Z M 98.46875 98.3125 "/>
<path style=" stroke:none;fill-rule:nonzero;fill:rgb(100%,100%,100%);fill-opacity:1;" d="M 114.707031 91.457031 L 111.765625 97.414062 L 110.320312 97.414062 L 107.375 91.457031 L 107.375 98.3125 L 104.945312 98.3125 L 104.945312 87.414062 L 108.230469 87.414062 L 111.035156 93.402344 L 113.859375 87.414062 L 117.125 87.414062 L 117.125 98.3125 L 114.695312 98.3125 Z M 114.707031 91.457031 "/>
<path style=" stroke:none;fill-rule:nonzero;fill:rgb(100%,100%,100%);fill-opacity:1;" d="M 134.902344 87.414062 L 134.902344 89.582031 L 129.496094 89.582031 L 129.496094 91.828125 L 134.386719 91.828125 L 134.386719 93.902344 L 129.511719 93.902344 L 129.511719 96.164062 L 135.0625 96.164062 L 135.0625 98.3125 L 127.046875 98.3125 L 127.046875 87.414062 Z M 131.863281 86.289062 L 129.660156 86.289062 L 131.636719 83.53125 L 134.054688 84.546875 Z M 131.863281 86.289062 "/>
<path style=" stroke:none;fill-rule:nonzero;fill:rgb(100%,100%,100%);fill-opacity:1;" d="M 142.816406 94.355469 L 145.582031 87.414062 L 148.21875 87.414062 L 143.839844 98.3125 L 141.816406 98.3125 L 137.441406 87.414062 L 140.074219 87.414062 Z M 142.816406 94.355469 "/>
<path style=" stroke:none;fill-rule:nonzero;fill:rgb(100%,100%,100%);fill-opacity:1;" d="M 158.921875 87.414062 L 158.921875 89.582031 L 153.519531 89.582031 L 153.519531 91.828125 L 158.394531 91.828125 L 158.394531 93.902344 L 153.5 93.902344 L 153.5 96.164062 L 159.089844 96.164062 L 159.089844 98.3125 L 151.066406 98.3125 L 151.066406 87.414062 Z M 158.921875 87.414062 "/>
<path style=" stroke:none;fill-rule:nonzero;fill:rgb(100%,100%,100%);fill-opacity:1;" d="M 162.8125 87.414062 L 165.242188 87.414062 L 165.242188 98.3125 L 162.8125 98.3125 Z M 162.8125 87.414062 "/>
<path style=" stroke:none;fill-rule:nonzero;fill:rgb(100%,100%,100%);fill-opacity:1;" d="M 169.503906 98.3125 L 169.503906 87.414062 L 171.929688 87.414062 L 171.929688 96.148438 L 176.574219 96.148438 L 176.574219 98.3125 Z M 169.503906 98.3125 "/>
<path style=" stroke:none;fill-rule:nonzero;fill:rgb(100%,100%,100%);fill-opacity:1;" d="M 191.910156 97.367188 C 191.058594 98.066406 189.984375 98.445312 188.878906 98.425781 C 187.863281 98.46875 186.867188 98.160156 186.054688 97.546875 C 185.320312 96.96875 184.910156 96.070312 184.949219 95.132812 C 184.949219 93.996094 185.710938 92.980469 187.238281 92.09375 C 186.945312 91.757812 186.695312 91.390625 186.488281 90.996094 C 186.328125 90.648438 186.246094 90.265625 186.257812 89.882812 C 186.214844 89.085938 186.574219 88.320312 187.21875 87.851562 C 187.878906 87.386719 188.671875 87.148438 189.480469 87.175781 C 190.277344 87.152344 191.0625 87.390625 191.714844 87.851562 C 192.328125 88.28125 192.679688 88.996094 192.644531 89.746094 C 192.644531 90.765625 191.902344 91.707031 190.417969 92.585938 C 191 93.308594 191.429688 93.835938 191.722656 94.160156 C 191.980469 93.683594 192.183594 93.175781 192.316406 92.644531 L 194.140625 93.957031 C 193.910156 94.59375 193.617188 95.203125 193.269531 95.777344 L 194.808594 97.3125 L 193.269531 98.773438 Z M 187.722656 96.121094 C 188.058594 96.371094 188.472656 96.5 188.890625 96.480469 C 189.46875 96.441406 190.011719 96.199219 190.429688 95.804688 C 189.675781 95.007812 189.019531 94.277344 188.464844 93.621094 C 187.667969 94.121094 187.269531 94.65625 187.269531 95.230469 C 187.269531 95.589844 187.445312 95.925781 187.738281 96.136719 Z M 189.480469 88.988281 C 189.25 88.988281 189.03125 89.074219 188.863281 89.230469 C 188.675781 89.402344 188.574219 89.652344 188.59375 89.90625 C 188.679688 90.359375 188.894531 90.773438 189.214844 91.097656 C 189.992188 90.6875 190.382812 90.292969 190.382812 89.933594 C 190.398438 89.679688 190.296875 89.433594 190.105469 89.257812 C 189.933594 89.101562 189.710938 89.007812 189.480469 89 Z M 189.480469 88.988281 "/>
<path style=" stroke:none;fill-rule:nonzero;fill:rgb(100%,100%,100%);fill-opacity:1;" d="M 213.4375 91.457031 L 210.496094 97.414062 L 209.042969 97.414062 L 206.117188 91.457031 L 206.117188 98.3125 L 203.6875 98.3125 L 203.6875 87.414062 L 206.976562 87.414062 L 209.777344 93.402344 L 212.59375 87.414062 L 215.871094 87.414062 L 215.871094 98.3125 L 213.4375 98.3125 Z M 213.4375 91.457031 "/>
<path style=" stroke:none;fill-rule:nonzero;fill:rgb(100%,100%,100%);fill-opacity:1;" d="M 222.988281 95.5 C 223.378906 96 223.988281 96.28125 224.621094 96.257812 C 225.253906 96.285156 225.863281 96 226.25 95.5 C 226.679688 94.898438 226.894531 94.167969 226.851562 93.429688 L 226.851562 87.414062 L 229.28125 87.414062 L 229.28125 93.5 C 229.371094 94.84375 228.894531 96.164062 227.972656 97.144531 C 226.058594 98.84375 223.179688 98.84375 221.265625 97.144531 C 220.339844 96.167969 219.863281 94.851562 219.949219 93.511719 L 219.949219 87.425781 L 222.378906 87.425781 L 222.378906 93.445312 C 222.339844 94.179688 222.554688 94.90625 222.988281 95.5 Z M 222.988281 95.5 "/>
<path style=" stroke:none;fill-rule:nonzero;fill:rgb(100%,100%,100%);fill-opacity:1;" d="M 233.359375 98.3125 L 233.359375 87.414062 L 235.792969 87.414062 L 235.792969 96.148438 L 240.410156 96.148438 L 240.410156 98.3125 Z M 233.359375 98.3125 "/>
<path style=" stroke:none;fill-rule:nonzero;fill:rgb(100%,100%,100%);fill-opacity:1;" d="M 247.414062 89.523438 L 247.414062 98.3125 L 244.984375 98.3125 L 244.984375 89.523438 L 241.898438 89.523438 L 241.898438 87.414062 L 250.492188 87.414062 L 250.492188 89.523438 Z M 247.414062 89.523438 "/>
<path style=" stroke:none;fill-rule:nonzero;fill:rgb(100%,100%,100%);fill-opacity:1;" d="M 253.828125 87.414062 L 256.261719 87.414062 L 256.261719 98.3125 L 253.828125 98.3125 Z M 253.828125 87.414062 "/>
<path style=" stroke:none;fill-rule:nonzero;fill:rgb(100%,100%,100%);fill-opacity:1;" d="M 263.039062 89.589844 C 262.8125 89.777344 262.683594 90.058594 262.695312 90.355469 C 262.691406 90.664062 262.855469 90.953125 263.121094 91.113281 C 263.75 91.425781 264.414062 91.652344 265.101562 91.789062 C 265.980469 91.96875 266.808594 92.359375 267.503906 92.929688 C 268.105469 93.511719 268.417969 94.328125 268.363281 95.160156 C 268.390625 96.082031 267.984375 96.964844 267.269531 97.542969 C 266.445312 98.179688 265.417969 98.503906 264.378906 98.453125 C 262.632812 98.445312 260.960938 97.757812 259.71875 96.535156 L 261.171875 94.757812 C 262.035156 95.648438 263.191406 96.199219 264.425781 96.304688 C 264.796875 96.324219 265.164062 96.222656 265.472656 96.011719 C 265.722656 95.832031 265.867188 95.542969 265.867188 95.234375 C 265.867188 94.925781 265.722656 94.632812 265.472656 94.453125 C 264.972656 94.171875 264.429688 93.976562 263.863281 93.871094 C 262.867188 93.683594 261.917969 93.28125 261.089844 92.695312 C 260.460938 92.109375 260.132812 91.269531 260.203125 90.414062 C 260.15625 89.480469 260.574219 88.585938 261.320312 88.023438 C 262.125 87.4375 263.105469 87.140625 264.101562 87.175781 C 264.84375 87.179688 265.582031 87.308594 266.28125 87.554688 C 266.972656 87.789062 267.617188 88.144531 268.179688 88.609375 L 266.949219 90.386719 C 266.121094 89.714844 265.089844 89.335938 264.019531 89.3125 C 263.671875 89.285156 263.324219 89.382812 263.039062 89.589844 Z M 263.039062 89.589844 "/>
<path style=" stroke:none;fill-rule:nonzero;fill:rgb(100%,100%,100%);fill-opacity:1;" d="M 279.492188 88.386719 C 280.308594 89.160156 280.730469 90.261719 280.640625 91.382812 C 280.734375 92.496094 280.300781 93.59375 279.464844 94.335938 C 278.40625 95.042969 277.140625 95.375 275.871094 95.277344 L 274.421875 95.277344 L 274.421875 98.3125 L 271.996094 98.3125 L 271.996094 87.414062 L 275.839844 87.414062 C 277.511719 87.414062 278.730469 87.738281 279.492188 88.386719 Z M 277.707031 92.679688 C 278.027344 92.269531 278.183594 91.757812 278.148438 91.238281 C 278.203125 90.722656 277.988281 90.210938 277.582031 89.886719 C 277.042969 89.585938 276.425781 89.445312 275.8125 89.488281 L 274.421875 89.488281 L 274.421875 93.152344 L 276.0625 93.152344 C 276.652344 93.226562 277.246094 93.058594 277.707031 92.679688 Z M 277.707031 92.679688 "/>
<path style=" stroke:none;fill-rule:nonzero;fill:rgb(100%,100%,100%);fill-opacity:1;" d="M 293.253906 96.8125 C 290.976562 98.949219 287.429688 98.949219 285.152344 96.8125 C 282.953125 94.585938 282.953125 91.003906 285.152344 88.777344 C 287.429688 86.640625 290.976562 86.640625 293.253906 88.777344 C 295.457031 91 295.457031 94.589844 293.253906 96.8125 Z M 292.410156 92.800781 C 292.429688 91.882812 292.09375 90.992188 291.472656 90.3125 C 290.886719 89.660156 290.050781 89.285156 289.175781 89.285156 C 288.300781 89.285156 287.464844 89.660156 286.878906 90.3125 C 285.636719 91.734375 285.636719 93.859375 286.878906 95.285156 C 287.464844 95.933594 288.300781 96.304688 289.175781 96.304688 C 290.050781 96.304688 290.886719 95.933594 291.472656 95.285156 C 292.09375 94.609375 292.433594 93.71875 292.410156 92.800781 Z M 292.410156 92.800781 "/>
<path style=" stroke:none;fill-rule:nonzero;fill:rgb(100%,100%,100%);fill-opacity:1;" d="M 307.355469 91.03125 C 307.355469 92.78125 306.679688 93.910156 305.28125 94.410156 L 308.035156 98.304688 L 305.046875 98.304688 L 302.632812 94.832031 L 300.953125 94.832031 L 300.953125 98.304688 L 298.523438 98.304688 L 298.523438 87.414062 L 302.648438 87.414062 C 304.34375 87.414062 305.546875 87.695312 306.269531 88.273438 C 307.042969 88.96875 307.445312 89.992188 307.355469 91.03125 Z M 304.425781 92.328125 C 304.753906 91.984375 304.917969 91.511719 304.875 91.039062 C 304.933594 90.582031 304.757812 90.128906 304.410156 89.832031 C 303.90625 89.566406 303.335938 89.453125 302.769531 89.503906 L 300.953125 89.503906 L 300.953125 92.734375 L 302.730469 92.734375 C 303.324219 92.796875 303.921875 92.65625 304.425781 92.328125 Z M 304.425781 92.328125 "/>
<path style=" stroke:none;fill-rule:nonzero;fill:rgb(100%,100%,100%);fill-opacity:1;" d="M 315.796875 89.523438 L 315.796875 98.3125 L 313.34375 98.3125 L 313.34375 89.523438 L 310.257812 89.523438 L 310.257812 87.414062 L 318.882812 87.414062 L 318.882812 89.523438 Z M 315.796875 89.523438 "/>
<path style=" stroke:none;fill-rule:nonzero;fill:rgb(100%,100%,100%);fill-opacity:1;" d="M 324.671875 89.589844 C 324.4375 89.773438 324.308594 90.058594 324.320312 90.355469 C 324.316406 90.664062 324.476562 90.953125 324.746094 91.113281 C 325.371094 91.425781 326.035156 91.652344 326.722656 91.789062 C 327.605469 91.96875 328.429688 92.359375 329.128906 92.929688 C 329.726562 93.511719 330.042969 94.328125 329.984375 95.160156 C 330.011719 96.082031 329.605469 96.964844 328.890625 97.542969 C 328.066406 98.179688 327.042969 98.503906 326 98.453125 C 324.257812 98.445312 322.585938 97.757812 321.339844 96.535156 L 322.792969 94.757812 C 323.65625 95.648438 324.8125 96.199219 326.046875 96.304688 C 326.417969 96.324219 326.785156 96.222656 327.09375 96.011719 C 327.34375 95.832031 327.492188 95.542969 327.492188 95.234375 C 327.492188 94.925781 327.34375 94.632812 327.09375 94.453125 C 326.59375 94.171875 326.050781 93.976562 325.488281 93.871094 C 324.488281 93.683594 323.539062 93.28125 322.710938 92.695312 C 322.082031 92.109375 321.753906 91.269531 321.828125 90.414062 C 321.777344 89.480469 322.195312 88.585938 322.941406 88.023438 C 323.75 87.4375 324.726562 87.140625 325.722656 87.175781 C 326.464844 87.179688 327.203125 87.308594 327.90625 87.554688 C 328.597656 87.785156 329.242188 88.144531 329.800781 88.609375 L 328.574219 90.386719 C 327.742188 89.710938 326.710938 89.335938 325.640625 89.3125 C 325.296875 89.28125 324.949219 89.382812 324.671875 89.589844 Z M 324.671875 89.589844 "/>
<path style=" stroke:none;fill-rule:nonzero;fill:rgb(90.196078%,20%,7.058824%);fill-opacity:1;" d="M 26.308594 20.425781 L 70.847656 20.425781 L 70.847656 75.683594 L 26.308594 75.683594 Z M 26.308594 20.425781 "/>
<path style=" stroke:none;fill-rule:nonzero;fill:rgb(100%,100%,100%);fill-opacity:1;" d="M 33.765625 28.785156 L 47.175781 26.660156 L 51.84375 56.054688 L 99.269531 46.457031 L 101.039062 57.621094 L 40.203125 69.347656 Z M 33.765625 28.785156 "/>
<path style=" stroke:none;fill-rule:nonzero;fill:rgb(90.196078%,20%,7.058824%);fill-opacity:1;" d="M 184.800781 68 C 183.566406 68 182.335938 67.914062 181.117188 67.738281 C 177.390625 67.214844 174.492188 65.707031 172.507812 63.34375 C 170.523438 60.976562 169.738281 57.933594 170.234375 54.445312 L 171.746094 43.625 L 168.152344 43.136719 C 167.957031 43.109375 167.777344 43.007812 167.660156 42.847656 C 167.539062 42.6875 167.484375 42.484375 167.511719 42.285156 L 168.667969 34.050781 C 168.707031 33.667969 169.03125 33.375 169.414062 33.375 L 169.503906 33.375 L 173.101562 33.882812 L 174.242188 25.769531 C 174.289062 25.386719 174.609375 25.097656 174.992188 25.09375 L 175.09375 25.09375 L 188.074219 26.925781 C 188.273438 26.949219 188.453125 27.054688 188.574219 27.210938 C 188.691406 27.371094 188.746094 27.570312 188.714844 27.769531 L 187.574219 35.882812 L 194.246094 36.824219 C 194.445312 36.847656 194.625 36.953125 194.746094 37.113281 C 194.863281 37.277344 194.914062 37.476562 194.886719 37.675781 L 193.742188 45.976562 C 193.695312 46.359375 193.375 46.648438 192.992188 46.65625 L 192.890625 46.65625 L 186.21875 45.714844 L 184.980469 54.503906 C 184.859375 55.039062 184.960938 55.601562 185.257812 56.058594 C 185.546875 56.441406 185.996094 56.667969 186.472656 56.675781 C 186.640625 56.699219 186.8125 56.710938 186.980469 56.707031 C 187.863281 56.679688 188.742188 56.554688 189.601562 56.335938 C 189.65625 56.332031 189.707031 56.332031 189.761719 56.335938 C 189.921875 56.339844 190.078125 56.390625 190.207031 56.480469 C 190.378906 56.609375 190.488281 56.800781 190.511719 57.011719 L 191.464844 66.261719 C 191.496094 66.59375 191.308594 66.90625 191.003906 67.035156 C 189.554688 67.589844 188.023438 67.902344 186.472656 67.96875 C 185.921875 67.980469 185.351562 68 184.800781 68 Z M 184.800781 68 "/>
<path style=" stroke:none;fill-rule:nonzero;fill:rgb(18.039216%,17.647059%,17.254902%);fill-opacity:1;" d="M 175 25.890625 L 187.980469 27.722656 L 186.730469 36.601562 L 194.160156 37.640625 L 192.996094 45.875 L 185.570312 44.835938 L 184.21875 54.410156 C 184.074219 55.136719 184.222656 55.890625 184.628906 56.507812 C 185.046875 57.0625 185.691406 57.398438 186.386719 57.425781 C 186.578125 57.453125 186.769531 57.46875 186.960938 57.464844 C 187.898438 57.4375 188.832031 57.304688 189.742188 57.074219 L 190.695312 66.316406 C 189.324219 66.839844 187.875 67.136719 186.40625 67.1875 C 185.867188 67.230469 185.320312 67.242188 184.777344 67.242188 C 183.582031 67.246094 182.390625 67.160156 181.207031 66.992188 C 177.660156 66.507812 174.953125 65.136719 173.089844 62.882812 C 171.21875 60.625 170.515625 57.859375 170.976562 54.566406 L 172.597656 43.023438 L 168.253906 42.410156 L 169.410156 34.171875 L 173.75 34.789062 L 175 25.910156 M 175 24.402344 C 174.25 24.402344 173.617188 24.953125 173.507812 25.695312 L 172.46875 33.0625 L 169.617188 32.65625 L 169.410156 32.65625 C 169.082031 32.660156 168.765625 32.765625 168.503906 32.960938 C 168.183594 33.203125 167.972656 33.558594 167.917969 33.957031 L 166.761719 42.191406 C 166.707031 42.589844 166.808594 42.992188 167.050781 43.308594 C 167.292969 43.628906 167.648438 43.839844 168.042969 43.894531 L 170.894531 44.300781 L 169.503906 54.335938 C 168.984375 58.046875 169.808594 61.238281 171.949219 63.800781 C 174.089844 66.363281 177.113281 67.914062 181.039062 68.46875 C 182.289062 68.640625 183.554688 68.730469 184.820312 68.730469 C 185.394531 68.730469 185.96875 68.730469 186.542969 68.675781 C 188.175781 68.609375 189.789062 68.277344 191.316406 67.691406 C 191.929688 67.433594 192.304688 66.804688 192.234375 66.140625 L 191.28125 56.898438 C 191.242188 56.46875 191.015625 56.082031 190.667969 55.828125 C 190.410156 55.644531 190.101562 55.542969 189.78125 55.546875 C 189.671875 55.535156 189.5625 55.535156 189.453125 55.546875 C 188.648438 55.75 187.828125 55.871094 187 55.902344 C 186.878906 55.914062 186.757812 55.914062 186.636719 55.902344 L 186.5625 55.902344 C 186.300781 55.917969 186.050781 55.804688 185.886719 55.601562 C 185.703125 55.296875 185.652344 54.933594 185.746094 54.59375 L 186.878906 46.480469 L 192.800781 47.308594 C 192.875 47.316406 192.945312 47.316406 193.019531 47.308594 C 193.769531 47.308594 194.402344 46.75 194.503906 46.003906 L 195.636719 37.863281 C 195.695312 37.46875 195.59375 37.066406 195.355469 36.746094 C 195.113281 36.425781 194.757812 36.214844 194.363281 36.160156 L 188.414062 35.308594 L 189.453125 27.925781 C 189.566406 27.101562 188.992188 26.339844 188.167969 26.222656 L 175.191406 24.394531 C 175.121094 24.390625 175.050781 24.390625 174.980469 24.394531 Z M 175 24.402344 "/>
<path style=" stroke:none;fill-rule:nonzero;fill:rgb(90.196078%,20%,7.058824%);fill-opacity:1;" d="M 292.347656 24.113281 L 305.511719 24.113281 C 305.929688 24.113281 306.269531 24.449219 306.269531 24.867188 L 306.269531 68.332031 C 306.269531 68.75 305.929688 69.089844 305.511719 69.089844 L 292.347656 69.089844 C 291.933594 69.089844 291.59375 68.75 291.59375 68.332031 L 291.59375 24.867188 C 291.59375 24.449219 291.933594 24.113281 292.347656 24.113281 Z M 292.347656 24.113281 "/>
<path style=" stroke:none;fill-rule:nonzero;fill:rgb(18.039216%,17.647059%,17.254902%);fill-opacity:1;" d="M 305.511719 24.867188 L 305.511719 68.339844 L 292.347656 68.339844 L 292.347656 24.867188 L 305.511719 24.867188 M 305.511719 23.359375 L 292.347656 23.359375 C 291.519531 23.359375 290.84375 24.035156 290.84375 24.867188 L 290.84375 68.339844 C 290.84375 69.171875 291.519531 69.847656 292.347656 69.847656 L 305.511719 69.847656 C 306.34375 69.847656 307.015625 69.171875 307.015625 68.339844 L 307.015625 24.867188 C 307.015625 24.035156 306.34375 23.359375 305.511719 23.359375 Z M 305.511719 23.359375 "/>
<path style=" stroke:none;fill-rule:nonzero;fill:rgb(100%,86.666667%,0%);fill-opacity:1;" d="M 156.558594 39.417969 C 156.3125 39.410156 156.082031 39.28125 155.949219 39.074219 C 155.816406 38.867188 155.789062 38.609375 155.882812 38.378906 L 159.257812 30.265625 C 157.882812 29.058594 157.125 27.292969 157.191406 25.464844 C 157.132812 23.652344 157.832031 21.894531 159.117188 20.617188 C 160.414062 19.355469 162.167969 18.675781 163.972656 18.734375 C 165.71875 18.699219 167.410156 19.335938 168.699219 20.515625 C 170.03125 21.78125 170.75 23.566406 170.664062 25.402344 C 170.613281 27.234375 170.019531 29.011719 168.964844 30.507812 L 163.269531 39.082031 C 163.132812 39.292969 162.894531 39.421875 162.640625 39.417969 Z M 156.558594 39.417969 "/>
<path style=" stroke:none;fill-rule:nonzero;fill:rgb(18.039216%,17.647059%,17.254902%);fill-opacity:1;" d="M 163.933594 19.507812 C 165.488281 19.472656 167 20.039062 168.152344 21.089844 C 169.335938 22.210938 169.964844 23.796875 169.882812 25.421875 C 169.832031 27.109375 169.28125 28.738281 168.300781 30.109375 L 162.621094 38.664062 L 156.542969 38.664062 L 160.117188 30.054688 C 158.652344 29.003906 157.820312 27.285156 157.894531 25.484375 C 157.835938 23.875 158.449219 22.3125 159.589844 21.175781 C 160.746094 20.050781 162.308594 19.449219 163.917969 19.507812 M 163.917969 18 C 161.90625 17.9375 159.957031 18.699219 158.515625 20.101562 C 157.078125 21.527344 156.296875 23.488281 156.367188 25.511719 C 156.316406 27.367188 157.011719 29.164062 158.292969 30.5 L 155.132812 38.113281 C 154.941406 38.578125 154.992188 39.109375 155.273438 39.527344 C 155.550781 39.945312 156.023438 40.195312 156.523438 40.195312 L 162.601562 40.195312 C 163.105469 40.195312 163.578125 39.941406 163.859375 39.519531 L 169.539062 30.96875 C 170.679688 29.347656 171.316406 27.425781 171.367188 25.445312 C 171.445312 23.402344 170.640625 21.429688 169.152344 20.035156 C 167.71875 18.71875 165.835938 18.007812 163.890625 18.054688 Z M 163.917969 18 "/>
<path style=" stroke:none;fill-rule:nonzero;fill:rgb(100%,86.666667%,0%);fill-opacity:1;" d="M 270.511719 70.320312 C 267.867188 70.332031 265.242188 69.875 262.757812 68.96875 C 259.136719 67.636719 255.953125 65.332031 253.558594 62.308594 C 251.074219 59.140625 249.46875 55.375 248.898438 51.386719 C 248.222656 47.476562 248.625 43.449219 250.066406 39.75 C 251.492188 36.160156 253.875 33.027344 256.957031 30.699219 C 260.238281 28.226562 264.09375 26.621094 268.160156 26.039062 C 269.3125 25.855469 270.476562 25.765625 271.644531 25.769531 C 273.824219 25.78125 275.992188 26.070312 278.101562 26.632812 C 281.355469 27.449219 284.402344 28.9375 287.046875 31 C 287.339844 31.238281 287.414062 31.65625 287.222656 31.980469 L 280.929688 42.429688 C 280.8125 42.628906 280.605469 42.765625 280.375 42.792969 L 280.289062 42.792969 C 280.085938 42.796875 279.894531 42.714844 279.753906 42.570312 C 278.414062 41.210938 276.820312 40.132812 275.0625 39.398438 C 273.910156 38.902344 272.675781 38.632812 271.421875 38.609375 C 271.058594 38.609375 270.695312 38.636719 270.335938 38.6875 C 268.949219 38.894531 267.65625 39.5 266.613281 40.433594 C 265.550781 41.394531 264.773438 42.632812 264.371094 44.011719 C 263.917969 45.574219 263.832031 47.21875 264.113281 48.816406 C 264.34375 50.4375 264.9375 51.984375 265.851562 53.339844 C 266.65625 54.550781 267.78125 55.511719 269.097656 56.121094 C 270.003906 56.535156 270.992188 56.75 271.988281 56.75 C 272.386719 56.746094 272.785156 56.714844 273.175781 56.65625 C 274.699219 56.359375 276.132812 55.703125 277.351562 54.742188 C 278.828125 53.65625 280.097656 52.3125 281.105469 50.777344 C 281.21875 50.605469 281.40625 50.484375 281.613281 50.453125 L 281.734375 50.453125 C 281.902344 50.449219 282.066406 50.507812 282.191406 50.617188 L 291.25 57.664062 C 291.558594 57.902344 291.632812 58.339844 291.417969 58.667969 C 289.464844 61.640625 286.941406 64.191406 283.988281 66.167969 C 281.175781 68.125 277.964844 69.4375 274.589844 70.015625 C 273.238281 70.222656 271.875 70.324219 270.511719 70.320312 Z M 270.511719 70.320312 "/>
<path style=" stroke:none;fill-rule:nonzero;fill:rgb(18.039216%,17.647059%,17.254902%);fill-opacity:1;" d="M 271.644531 26.539062 C 273.761719 26.550781 275.867188 26.835938 277.910156 27.382812 C 281.066406 28.167969 284.019531 29.609375 286.574219 31.617188 L 280.289062 42.042969 C 278.882812 40.609375 277.199219 39.472656 275.34375 38.703125 C 274.105469 38.167969 272.773438 37.882812 271.421875 37.863281 C 269.464844 37.875 267.578125 38.59375 266.113281 39.894531 C 264.941406 40.941406 264.089844 42.296875 263.648438 43.808594 C 263.164062 45.480469 263.066406 47.238281 263.371094 48.953125 C 263.617188 50.6875 264.253906 52.34375 265.230469 53.792969 C 266.109375 55.105469 267.339844 56.144531 268.773438 56.796875 C 269.78125 57.246094 270.871094 57.476562 271.976562 57.472656 C 272.414062 57.472656 272.851562 57.4375 273.285156 57.363281 C 274.925781 57.0625 276.46875 56.363281 277.78125 55.335938 C 279.328125 54.195312 280.660156 52.789062 281.71875 51.183594 L 290.789062 58.230469 C 288.890625 61.117188 286.429688 63.59375 283.558594 65.511719 C 280.835938 67.414062 277.730469 68.6875 274.460938 69.246094 C 273.152344 69.453125 271.832031 69.558594 270.511719 69.5625 C 267.949219 69.566406 265.410156 69.109375 263.015625 68.210938 C 259.523438 66.933594 256.453125 64.710938 254.152344 61.785156 C 251.75 58.738281 250.191406 55.109375 249.644531 51.265625 C 248.980469 47.484375 249.367188 43.597656 250.765625 40.019531 C 252.136719 36.554688 254.4375 33.53125 257.414062 31.285156 C 260.597656 28.886719 264.335938 27.335938 268.28125 26.777344 C 269.398438 26.597656 270.527344 26.511719 271.65625 26.511719 M 271.65625 25.003906 C 270.453125 25.003906 269.25 25.097656 268.058594 25.289062 C 263.867188 25.890625 259.894531 27.542969 256.511719 30.089844 C 253.324219 32.503906 250.855469 35.746094 249.378906 39.46875 C 247.890625 43.292969 247.472656 47.457031 248.171875 51.503906 C 248.765625 55.601562 250.425781 59.472656 252.984375 62.726562 C 255.457031 65.867188 258.746094 68.261719 262.492188 69.644531 C 265.058594 70.59375 267.773438 71.074219 270.511719 71.0625 C 271.914062 71.058594 273.3125 70.945312 274.695312 70.726562 C 278.183594 70.132812 281.496094 68.777344 284.402344 66.757812 C 287.4375 64.726562 290.039062 62.105469 292.046875 59.046875 C 292.484375 58.390625 292.339844 57.5 291.707031 57.019531 L 282.660156 49.972656 C 282.328125 49.714844 281.90625 49.609375 281.492188 49.675781 C 281.074219 49.75 280.707031 49.996094 280.476562 50.351562 C 279.507812 51.804688 278.289062 53.070312 276.878906 54.09375 C 275.757812 54.980469 274.4375 55.589844 273.035156 55.871094 C 272.679688 55.925781 272.320312 55.957031 271.960938 55.957031 C 271.070312 55.957031 270.191406 55.765625 269.382812 55.398438 C 268.1875 54.851562 267.171875 53.980469 266.445312 52.886719 C 265.605469 51.625 265.0625 50.1875 264.859375 48.683594 C 264.59375 47.191406 264.675781 45.660156 265.09375 44.207031 C 265.449219 42.960938 266.152344 41.839844 267.121094 40.976562 C 268.308594 39.925781 269.839844 39.34375 271.429688 39.339844 C 272.589844 39.363281 273.738281 39.613281 274.804688 40.074219 C 276.472656 40.769531 277.988281 41.792969 279.253906 43.085938 C 279.539062 43.367188 279.921875 43.527344 280.320312 43.53125 L 280.496094 43.53125 C 280.957031 43.476562 281.363281 43.214844 281.605469 42.820312 L 287.890625 32.394531 C 288.285156 31.746094 288.132812 30.90625 287.542969 30.433594 C 284.816406 28.300781 281.671875 26.765625 278.316406 25.921875 C 276.140625 25.339844 273.898438 25.035156 271.644531 25.019531 Z M 271.65625 25.003906 "/>
<path style=" stroke:none;fill-rule:nonzero;fill:rgb(46.27451%,72.156863%,16.470588%);fill-opacity:1;" d="M 90.445312 69.359375 C 88.445312 69.371094 86.460938 69.070312 84.554688 68.46875 C 81.714844 67.578125 79.207031 65.851562 77.355469 63.519531 C 75.453125 61.03125 74.230469 58.09375 73.804688 54.992188 C 73.242188 51.847656 73.496094 48.613281 74.546875 45.601562 C 75.585938 42.796875 77.417969 40.363281 79.820312 38.589844 C 82.449219 36.691406 85.5 35.464844 88.710938 35.019531 C 89.90625 34.824219 91.117188 34.726562 92.328125 34.71875 C 94.410156 34.703125 96.480469 35.058594 98.441406 35.769531 C 101.320312 36.832031 103.8125 38.738281 105.59375 41.246094 C 107.519531 44.011719 108.761719 47.195312 109.21875 50.535156 C 109.332031 51.28125 109.40625 51.886719 109.433594 52.292969 C 109.457031 52.679688 109.183594 53.023438 108.800781 53.085938 L 100.777344 54.355469 L 108.207031 59.644531 C 108.535156 59.878906 108.621094 60.332031 108.402344 60.671875 C 106.925781 62.914062 104.957031 64.789062 102.648438 66.15625 C 100.121094 67.636719 97.328125 68.613281 94.429688 69.027344 C 93.109375 69.242188 91.777344 69.351562 90.445312 69.359375 Z M 89.363281 56.121094 C 89.765625 56.644531 90.285156 57.070312 90.875 57.363281 C 91.507812 57.671875 92.203125 57.824219 92.902344 57.816406 C 93.222656 57.816406 93.539062 57.789062 93.855469 57.738281 C 95.898438 57.359375 97.730469 56.238281 99 54.59375 Z M 90.945312 45.113281 C 90.773438 45.113281 90.601562 45.128906 90.429688 45.152344 C 89.609375 45.265625 88.886719 45.75 88.464844 46.464844 C 88.058594 47.140625 87.792969 47.898438 87.695312 48.683594 L 93.867188 47.722656 C 93.71875 46.988281 93.332031 46.324219 92.773438 45.828125 C 92.273438 45.375 91.621094 45.125 90.945312 45.125 Z M 90.945312 45.113281 "/>
<path style=" stroke:none;fill-rule:nonzero;fill:rgb(18.039216%,17.647059%,17.254902%);fill-opacity:1;" d="M 92.328125 35.472656 C 94.320312 35.457031 96.300781 35.792969 98.175781 36.472656 C 100.914062 37.472656 103.285156 39.277344 104.976562 41.652344 C 106.839844 44.316406 108.039062 47.390625 108.476562 50.617188 C 108.589844 51.355469 108.65625 51.914062 108.679688 52.308594 L 88.109375 55.566406 C 88.628906 56.640625 89.484375 57.515625 90.546875 58.0625 C 91.277344 58.410156 92.078125 58.589844 92.890625 58.582031 C 93.25 58.582031 93.609375 58.550781 93.964844 58.492188 C 96.214844 58.132812 98.203125 56.847656 99.925781 54.640625 L 107.738281 60.226562 C 106.34375 62.382812 104.472656 64.191406 102.269531 65.511719 C 99.824219 66.945312 97.125 67.886719 94.320312 68.285156 C 93.039062 68.492188 91.742188 68.597656 90.445312 68.601562 C 88.527344 68.617188 86.621094 68.332031 84.792969 67.75 C 82.089844 66.894531 79.703125 65.246094 77.945312 63.015625 C 76.128906 60.628906 74.964844 57.808594 74.566406 54.835938 C 74.007812 51.828125 74.238281 48.722656 75.242188 45.828125 C 76.234375 43.179688 77.984375 40.878906 80.273438 39.21875 C 82.800781 37.386719 85.734375 36.207031 88.824219 35.78125 C 89.984375 35.59375 91.15625 35.496094 92.328125 35.492188 M 86.867188 49.617188 L 94.726562 48.371094 C 94.664062 47.1875 94.136719 46.078125 93.261719 45.28125 C 92.625 44.707031 91.800781 44.386719 90.945312 44.390625 C 90.730469 44.390625 90.519531 44.410156 90.308594 44.445312 C 89.269531 44.574219 88.34375 45.171875 87.789062 46.066406 C 87.160156 47.136719 86.832031 48.355469 86.839844 49.597656 M 92.300781 33.964844 C 91.046875 33.96875 89.796875 34.074219 88.558594 34.273438 C 85.230469 34.738281 82.066406 36.011719 79.34375 37.984375 C 76.820312 39.84375 74.902344 42.398438 73.820312 45.335938 C 72.714844 48.46875 72.441406 51.835938 73.035156 55.105469 C 73.476562 58.339844 74.753906 61.402344 76.734375 63.992188 C 78.683594 66.4375 81.316406 68.246094 84.300781 69.183594 C 86.277344 69.8125 88.34375 70.125 90.417969 70.109375 C 91.796875 70.105469 93.171875 69.992188 94.53125 69.773438 C 97.527344 69.34375 100.410156 68.335938 103.019531 66.804688 C 105.417969 65.363281 107.457031 63.394531 108.976562 61.042969 C 109.402344 60.371094 109.234375 59.484375 108.589844 59.015625 L 102.714844 54.769531 L 108.914062 53.78125 C 109.679688 53.664062 110.230469 52.980469 110.183594 52.207031 C 110.183594 51.753906 110.082031 51.152344 109.960938 50.367188 C 109.488281 46.90625 108.199219 43.613281 106.199219 40.75 C 104.328125 38.140625 101.71875 36.152344 98.703125 35.046875 C 96.660156 34.304688 94.5 33.933594 92.328125 33.949219 Z M 88.667969 47.785156 C 88.773438 47.464844 88.914062 47.15625 89.085938 46.871094 C 89.398438 46.339844 89.9375 45.988281 90.546875 45.910156 C 90.679688 45.890625 90.8125 45.878906 90.945312 45.875 C 91.445312 45.871094 91.929688 46.058594 92.296875 46.40625 C 92.527344 46.605469 92.71875 46.847656 92.863281 47.121094 L 88.6875 47.796875 Z M 91.058594 56.628906 L 96.730469 55.726562 C 95.847656 56.394531 94.816406 56.832031 93.726562 57.007812 C 93.449219 57.050781 93.167969 57.074219 92.890625 57.074219 C 92.308594 57.082031 91.730469 56.957031 91.207031 56.703125 Z M 91.058594 56.628906 "/>
<path style=" stroke:none;fill-rule:nonzero;fill:rgb(46.27451%,72.156863%,16.470588%);fill-opacity:1;" d="M 201.242188 68.46875 C 200.875 68.464844 200.558594 68.195312 200.492188 67.832031 L 195.488281 36.179688 C 195.425781 35.769531 195.707031 35.382812 196.117188 35.316406 L 209.117188 33.285156 L 209.238281 33.285156 C 209.394531 33.285156 209.550781 33.335938 209.679688 33.429688 C 209.839844 33.546875 209.949219 33.722656 209.980469 33.921875 L 214.984375 65.574219 C 215.019531 65.769531 214.96875 65.972656 214.851562 66.136719 C 214.734375 66.296875 214.554688 66.402344 214.359375 66.433594 L 201.359375 68.460938 Z M 200.933594 33.484375 C 199.421875 33.5 197.949219 33.027344 196.730469 32.128906 C 195.128906 30.953125 194.078125 29.164062 193.828125 27.1875 C 193.445312 25.230469 193.894531 23.203125 195.066406 21.589844 C 196.234375 19.976562 198.023438 18.921875 200 18.683594 C 200.460938 18.609375 200.925781 18.574219 201.390625 18.574219 C 202.902344 18.558594 204.375 19.035156 205.59375 19.925781 C 207.195312 21.105469 208.246094 22.890625 208.496094 24.867188 C 208.878906 26.824219 208.429688 28.855469 207.257812 30.46875 C 206.089844 32.082031 204.300781 33.132812 202.324219 33.375 C 201.859375 33.445312 201.394531 33.484375 200.925781 33.484375 Z M 200.933594 33.484375 "/>
<path style=" stroke:none;fill-rule:nonzero;fill:rgb(18.039216%,17.647059%,17.254902%);fill-opacity:1;" d="M 201.386719 19.324219 C 202.734375 19.308594 204.054688 19.730469 205.144531 20.527344 C 206.59375 21.601562 207.535156 23.226562 207.746094 25.019531 C 208.097656 26.777344 207.699219 28.601562 206.644531 30.054688 C 205.59375 31.503906 203.980469 32.449219 202.203125 32.65625 C 201.78125 32.722656 201.351562 32.757812 200.925781 32.757812 C 199.578125 32.765625 198.269531 32.328125 197.191406 31.523438 C 195.734375 30.460938 194.785156 28.839844 194.570312 27.046875 C 194.214844 25.285156 194.613281 23.457031 195.667969 22.007812 C 196.71875 20.554688 198.335938 19.609375 200.117188 19.40625 C 200.535156 19.332031 200.960938 19.296875 201.386719 19.296875 M 209.230469 33.96875 L 214.234375 65.621094 L 201.238281 67.648438 L 196.226562 36 L 209.230469 33.96875 M 201.386719 17.816406 C 200.878906 17.816406 200.378906 17.859375 199.878906 17.9375 C 197.703125 18.210938 195.738281 19.371094 194.449219 21.148438 C 193.160156 22.921875 192.664062 25.152344 193.078125 27.308594 C 193.363281 29.472656 194.519531 31.429688 196.28125 32.71875 C 197.152344 33.367188 198.152344 33.824219 199.21875 34.058594 L 195.988281 34.570312 C 195.167969 34.703125 194.609375 35.472656 194.738281 36.296875 L 199.742188 67.945312 C 199.855469 68.683594 200.492188 69.226562 201.238281 69.21875 L 201.464844 69.21875 L 214.472656 67.1875 C 214.867188 67.125 215.222656 66.90625 215.457031 66.582031 C 215.691406 66.257812 215.785156 65.855469 215.722656 65.457031 L 210.699219 33.761719 C 210.636719 33.367188 210.417969 33.015625 210.097656 32.78125 C 209.839844 32.59375 209.53125 32.492188 209.210938 32.488281 C 209.132812 32.480469 209.054688 32.480469 208.976562 32.488281 L 205.464844 33.042969 C 206.398438 32.5 207.210938 31.765625 207.839844 30.886719 C 209.117188 29.105469 209.605469 26.878906 209.191406 24.726562 C 208.90625 22.5625 207.75 20.605469 205.992188 19.316406 C 204.644531 18.328125 203.015625 17.804688 201.34375 17.824219 Z M 201.386719 17.816406 "/>
<path style=" stroke:none;fill-rule:nonzero;fill:rgb(46.27451%,72.156863%,16.470588%);fill-opacity:1;" d="M 321.605469 69.574219 C 320.148438 69.582031 318.707031 69.304688 317.355469 68.757812 C 315.398438 67.953125 313.703125 66.621094 312.460938 64.902344 C 311.101562 63.003906 310.230469 60.800781 309.914062 58.488281 L 306.71875 38.296875 C 306.6875 38.101562 306.734375 37.898438 306.847656 37.734375 C 306.96875 37.574219 307.144531 37.464844 307.339844 37.433594 L 320.347656 35.402344 L 320.460938 35.402344 C 320.832031 35.402344 321.148438 35.671875 321.207031 36.039062 L 323.804688 52.46875 C 323.90625 53.4375 324.335938 54.34375 325.019531 55.03125 C 325.445312 55.460938 326.023438 55.703125 326.628906 55.707031 C 326.785156 55.707031 326.945312 55.695312 327.101562 55.667969 C 327.988281 55.566406 328.761719 55.019531 329.160156 54.21875 C 329.648438 53.164062 329.78125 51.976562 329.539062 50.839844 L 327.0625 35.160156 C 327.027344 34.960938 327.074219 34.757812 327.195312 34.597656 C 327.3125 34.433594 327.488281 34.324219 327.6875 34.292969 L 340.6875 32.230469 L 340.804688 32.230469 C 340.964844 32.230469 341.121094 32.28125 341.25 32.375 C 341.410156 32.492188 341.519531 32.671875 341.554688 32.867188 L 346.558594 64.519531 C 346.585938 64.714844 346.539062 64.917969 346.421875 65.078125 C 346.304688 65.242188 346.125 65.351562 345.929688 65.382812 L 332.929688 67.414062 L 332.808594 67.414062 C 332.4375 67.410156 332.125 67.140625 332.066406 66.777344 L 331.714844 64.550781 C 331.03125 65.558594 330.195312 66.449219 329.226562 67.1875 C 327.609375 68.390625 325.714844 69.171875 323.71875 69.453125 C 323.015625 69.550781 322.3125 69.589844 321.605469 69.574219 Z M 321.605469 69.574219 "/>
<path style=" stroke:none;fill-rule:nonzero;fill:rgb(18.039216%,17.647059%,17.254902%);fill-opacity:1;" d="M 340.804688 32.886719 L 345.8125 64.539062 L 332.808594 66.566406 L 332.132812 62.171875 C 331.398438 63.882812 330.234375 65.375 328.753906 66.5 C 327.234375 67.628906 325.457031 68.359375 323.582031 68.621094 C 322.925781 68.730469 322.257812 68.785156 321.589844 68.785156 C 320.234375 68.792969 318.886719 68.539062 317.625 68.027344 C 315.796875 67.277344 314.214844 66.027344 313.054688 64.421875 C 311.769531 62.621094 310.941406 60.53125 310.644531 58.339844 L 307.449219 38.140625 L 320.449219 36.078125 L 323.050781 52.515625 C 323.171875 53.65625 323.683594 54.71875 324.5 55.519531 C 325.074219 56.058594 325.828125 56.355469 326.613281 56.351562 C 326.8125 56.351562 327.007812 56.335938 327.203125 56.304688 C 328.324219 56.167969 329.304688 55.480469 329.816406 54.472656 C 330.382812 53.261719 330.542969 51.902344 330.269531 50.597656 L 327.789062 34.917969 L 340.789062 32.886719 M 340.789062 31.378906 C 340.710938 31.375 340.632812 31.375 340.554688 31.378906 L 327.546875 33.441406 C 326.734375 33.578125 326.183594 34.347656 326.316406 35.160156 L 328.796875 50.839844 C 329.011719 51.824219 328.90625 52.847656 328.5 53.769531 C 328.210938 54.359375 327.632812 54.757812 326.980469 54.824219 C 326.863281 54.832031 326.746094 54.832031 326.628906 54.824219 C 326.21875 54.828125 325.824219 54.667969 325.527344 54.382812 C 324.96875 53.808594 324.625 53.058594 324.546875 52.261719 L 321.949219 35.828125 C 321.835938 35.09375 321.203125 34.550781 320.460938 34.550781 L 320.226562 34.550781 L 307.226562 36.578125 C 306.832031 36.640625 306.476562 36.855469 306.242188 37.179688 C 306.007812 37.503906 305.910156 37.910156 305.96875 38.304688 L 309.164062 58.5 C 309.503906 60.941406 310.429688 63.261719 311.867188 65.261719 C 313.1875 67.089844 314.992188 68.511719 317.078125 69.367188 C 318.519531 69.953125 320.058594 70.25 321.609375 70.238281 C 322.355469 70.238281 323.101562 70.175781 323.839844 70.054688 C 325.957031 69.753906 327.96875 68.925781 329.6875 67.648438 C 330.246094 67.21875 330.769531 66.742188 331.246094 66.222656 L 331.328125 66.75 C 331.386719 67.144531 331.605469 67.503906 331.929688 67.738281 C 332.1875 67.921875 332.496094 68.023438 332.8125 68.019531 C 332.894531 68.027344 332.972656 68.027344 333.050781 68.019531 L 346.058594 65.992188 C 346.453125 65.929688 346.804688 65.710938 347.039062 65.386719 C 347.273438 65.0625 347.371094 64.65625 347.304688 64.261719 L 342.300781 32.609375 C 342.183594 31.878906 341.554688 31.34375 340.816406 31.339844 Z M 340.789062 31.378906 "/>
<path style=" stroke:none;fill-rule:nonzero;fill:rgb(0%,72.156863%,93.333333%);fill-opacity:1;" d="M 123.191406 70.773438 C 122.820312 70.769531 122.507812 70.503906 122.449219 70.136719 L 116.03125 29.566406 C 116 29.371094 116.050781 29.167969 116.167969 29.007812 C 116.285156 28.847656 116.464844 28.738281 116.660156 28.710938 L 135.671875 25.695312 C 137.136719 25.453125 138.617188 25.328125 140.101562 25.320312 C 143.242188 25.234375 146.34375 26.042969 149.042969 27.65625 C 152.503906 29.832031 154.652344 33.386719 155.417969 38.222656 C 156.21875 43.308594 155.320312 47.582031 152.714844 50.914062 C 150.109375 54.246094 146.078125 56.324219 140.628906 57.222656 L 135.765625 57.992188 L 137.316406 67.777344 C 137.378906 68.1875 137.101562 68.574219 136.691406 68.644531 L 123.285156 70.765625 Z M 133.949219 46.316406 L 138.113281 45.640625 C 139.183594 45.554688 140.15625 45.003906 140.78125 44.132812 C 141.351562 43.144531 141.527344 41.980469 141.273438 40.867188 C 141.183594 39.769531 140.660156 38.75 139.824219 38.035156 C 139.226562 37.578125 138.492188 37.339844 137.742188 37.355469 C 137.4375 37.359375 137.128906 37.386719 136.824219 37.4375 L 132.652344 38.113281 Z M 133.949219 46.316406 "/>
<path style=" stroke:none;fill-rule:nonzero;fill:rgb(18.039216%,17.647059%,17.254902%);fill-opacity:1;" d="M 140.101562 26.085938 C 143.097656 25.988281 146.058594 26.753906 148.636719 28.289062 C 151.925781 30.359375 153.941406 33.707031 154.671875 38.335938 C 155.445312 43.242188 154.597656 47.28125 152.140625 50.453125 C 149.683594 53.628906 145.816406 55.632812 140.539062 56.472656 L 134.933594 57.363281 L 136.59375 67.890625 L 123.191406 70.023438 L 116.773438 29.453125 L 135.785156 26.4375 C 137.210938 26.203125 138.65625 26.085938 140.101562 26.078125 M 133.347656 47.175781 L 138.261719 46.398438 C 139.539062 46.273438 140.695312 45.601562 141.4375 44.558594 C 142.117188 43.414062 142.332031 42.050781 142.046875 40.75 C 141.921875 39.460938 141.300781 38.273438 140.308594 37.4375 C 139.574219 36.898438 138.675781 36.621094 137.765625 36.652344 C 137.414062 36.65625 137.066406 36.683594 136.722656 36.734375 L 131.8125 37.519531 L 133.339844 47.183594 M 140.09375 24.570312 C 138.570312 24.578125 137.050781 24.707031 135.546875 24.957031 L 116.53125 27.972656 C 116.136719 28.03125 115.78125 28.25 115.546875 28.574219 C 115.3125 28.898438 115.214844 29.300781 115.28125 29.695312 L 121.699219 70.265625 C 121.8125 71 122.441406 71.539062 123.183594 71.535156 L 123.421875 71.535156 L 136.824219 69.414062 C 137.21875 69.347656 137.574219 69.128906 137.8125 68.804688 C 138.046875 68.480469 138.144531 68.078125 138.082031 67.683594 L 136.648438 58.644531 L 140.769531 57.964844 C 146.414062 57.066406 150.636719 54.855469 153.328125 51.375 C 156.023438 47.890625 156.988281 43.402344 156.152344 38.101562 C 155.355469 33.042969 153.09375 29.3125 149.398438 27.011719 C 146.582031 25.328125 143.339844 24.480469 140.058594 24.570312 Z M 133.507812 38.769531 L 136.933594 38.230469 C 137.199219 38.183594 137.46875 38.164062 137.738281 38.160156 C 138.316406 38.136719 138.890625 38.304688 139.363281 38.640625 C 140.039062 39.246094 140.457031 40.089844 140.527344 40.996094 C 140.75 41.921875 140.609375 42.902344 140.140625 43.734375 C 139.628906 44.421875 138.847656 44.851562 137.992188 44.910156 L 134.570312 45.449219 Z M 133.507812 38.769531 "/>
<path style=" stroke:none;fill-rule:nonzero;fill:rgb(0%,72.156863%,93.333333%);fill-opacity:1;" d="M 229.335938 68.820312 C 228.105469 68.816406 226.878906 68.730469 225.664062 68.5625 C 221.933594 68.035156 219.039062 66.535156 217.050781 64.167969 C 215.066406 61.800781 214.285156 58.757812 214.777344 55.261719 L 216.289062 44.445312 L 212.722656 43.949219 C 212.523438 43.921875 212.34375 43.820312 212.222656 43.660156 C 212.105469 43.5 212.054688 43.300781 212.082031 43.105469 L 213.238281 34.863281 C 213.277344 34.480469 213.601562 34.1875 213.984375 34.1875 L 214.074219 34.1875 L 217.671875 34.695312 L 218.816406 26.578125 C 218.855469 26.195312 219.179688 25.90625 219.5625 25.902344 L 219.664062 25.902344 L 232.644531 27.730469 C 232.84375 27.757812 233.023438 27.863281 233.144531 28.019531 C 233.265625 28.179688 233.316406 28.382812 233.285156 28.582031 L 232.144531 36.695312 L 238.816406 37.632812 C 239.015625 37.664062 239.191406 37.765625 239.308594 37.925781 C 239.433594 38.085938 239.484375 38.289062 239.460938 38.488281 L 238.296875 46.722656 C 238.273438 46.921875 238.167969 47.101562 238.007812 47.222656 C 237.878906 47.320312 237.71875 47.375 237.554688 47.371094 L 237.453125 47.371094 L 230.78125 46.4375 L 229.539062 55.226562 C 229.421875 55.761719 229.523438 56.320312 229.824219 56.777344 C 230.109375 57.160156 230.558594 57.390625 231.039062 57.398438 C 231.207031 57.410156 231.375 57.410156 231.542969 57.398438 C 232.429688 57.363281 233.304688 57.238281 234.164062 57.027344 C 234.21875 57.019531 234.273438 57.019531 234.328125 57.027344 C 234.710938 57.027344 235.035156 57.320312 235.078125 57.703125 L 236.027344 66.945312 C 236.058594 67.277344 235.875 67.589844 235.570312 67.714844 C 234.121094 68.273438 232.589844 68.589844 231.039062 68.648438 C 230.457031 68.804688 229.898438 68.820312 229.335938 68.820312 Z M 229.335938 68.820312 "/>
<path style=" stroke:none;fill-rule:nonzero;fill:rgb(18.039216%,17.647059%,17.254902%);fill-opacity:1;" d="M 219.542969 26.707031 L 232.523438 28.535156 L 231.273438 37.410156 L 238.703125 38.460938 L 237.546875 46.695312 L 230.121094 45.652344 L 228.769531 55.222656 C 228.625 55.949219 228.773438 56.707031 229.179688 57.324219 C 229.601562 57.886719 230.253906 58.226562 230.957031 58.25 C 231.148438 58.265625 231.339844 58.265625 231.53125 58.25 C 232.46875 58.21875 233.402344 58.089844 234.3125 57.859375 L 235.265625 67.101562 C 233.894531 67.628906 232.445312 67.925781 230.976562 67.980469 C 230.429688 67.980469 229.890625 68.035156 229.351562 68.035156 C 228.152344 68.03125 226.957031 67.949219 225.769531 67.785156 C 222.21875 67.285156 219.515625 65.90625 217.667969 63.644531 C 215.816406 61.386719 215.113281 58.617188 215.554688 55.335938 L 217.171875 43.789062 L 212.824219 43.179688 L 213.984375 34.945312 L 218.328125 35.550781 L 219.542969 26.707031 M 219.542969 25.199219 C 219.214844 25.203125 218.894531 25.308594 218.632812 25.503906 C 218.316406 25.746094 218.105469 26.101562 218.050781 26.5 L 217.011719 33.882812 L 214.160156 33.484375 C 214.089844 33.476562 214.019531 33.476562 213.945312 33.484375 C 213.195312 33.484375 212.5625 34.039062 212.460938 34.78125 L 211.304688 43.003906 C 211.246094 43.398438 211.351562 43.800781 211.589844 44.121094 C 211.828125 44.441406 212.1875 44.652344 212.582031 44.707031 L 215.4375 45.105469 L 214.027344 55.160156 C 213.507812 58.871094 214.332031 62.0625 216.472656 64.625 C 218.613281 67.1875 221.636719 68.738281 225.554688 69.285156 C 226.808594 69.464844 228.074219 69.554688 229.34375 69.554688 C 229.910156 69.554688 230.492188 69.554688 231.066406 69.5 C 232.699219 69.433594 234.3125 69.097656 235.839844 68.507812 C 236.449219 68.253906 236.824219 67.625 236.757812 66.964844 L 235.804688 57.742188 C 235.765625 57.3125 235.539062 56.917969 235.183594 56.667969 C 234.929688 56.484375 234.621094 56.386719 234.304688 56.382812 C 234.195312 56.382812 234.082031 56.398438 233.976562 56.425781 C 233.171875 56.628906 232.351562 56.746094 231.523438 56.777344 C 231.402344 56.785156 231.28125 56.785156 231.160156 56.777344 L 231.085938 56.777344 C 230.597656 56.730469 230.46875 56.554688 230.410156 56.464844 C 230.222656 56.160156 230.179688 55.789062 230.28125 55.445312 L 231.402344 47.332031 L 237.324219 48.164062 L 237.535156 48.164062 C 237.859375 48.160156 238.179688 48.054688 238.4375 47.859375 C 238.761719 47.621094 238.972656 47.261719 239.027344 46.863281 L 240.179688 38.628906 C 240.238281 38.230469 240.132812 37.828125 239.890625 37.507812 C 239.652344 37.1875 239.292969 36.976562 238.898438 36.925781 L 232.984375 36.125 L 234.015625 28.75 C 234.074219 28.351562 233.972656 27.949219 233.730469 27.628906 C 233.492188 27.308594 233.128906 27.097656 232.734375 27.046875 L 219.753906 25.214844 L 219.542969 25.214844 Z M 219.542969 25.199219 "/>
<path style=" stroke:none;fill-rule:nonzero;fill:rgb(0%,72.156863%,93.333333%);fill-opacity:1;" d="M 371.011719 72.308594 C 370.183594 72.304688 369.355469 72.246094 368.539062 72.125 C 366.816406 71.902344 365.160156 71.316406 363.683594 70.402344 C 362.785156 69.839844 361.96875 69.160156 361.257812 68.371094 L 361.050781 69.847656 C 361.019531 70.042969 360.917969 70.222656 360.757812 70.347656 C 360.625 70.441406 360.46875 70.492188 360.304688 70.496094 L 360.199219 70.496094 L 347.164062 68.664062 C 346.964844 68.632812 346.785156 68.527344 346.664062 68.367188 C 346.546875 68.207031 346.492188 68.007812 346.523438 67.8125 L 352.558594 24.761719 C 352.589844 24.5625 352.695312 24.386719 352.859375 24.265625 C 352.988281 24.167969 353.144531 24.113281 353.308594 24.113281 L 353.410156 24.113281 L 366.453125 25.949219 C 366.65625 25.972656 366.84375 26.074219 366.96875 26.234375 C 367.097656 26.394531 367.152344 26.597656 367.125 26.800781 L 365.34375 39.492188 C 367.089844 38.371094 369.128906 37.78125 371.207031 37.796875 C 371.8125 37.796875 372.417969 37.839844 373.015625 37.925781 C 375.851562 38.269531 378.53125 39.40625 380.753906 41.199219 C 382.898438 42.988281 384.46875 45.367188 385.277344 48.039062 C 386.175781 51.0625 386.382812 54.246094 385.878906 57.359375 C 385.511719 60.414062 384.46875 63.347656 382.828125 65.953125 C 381.355469 68.246094 379.242188 70.058594 376.75 71.160156 C 374.9375 71.9375 372.980469 72.328125 371.011719 72.308594 Z M 367.410156 48.941406 C 366.496094 48.929688 365.617188 49.304688 364.984375 49.96875 C 364.015625 51.035156 363.421875 52.390625 363.296875 53.828125 C 363.023438 55.242188 363.21875 56.707031 363.859375 58 C 364.382812 58.996094 365.367188 59.664062 366.484375 59.785156 C 366.683594 59.8125 366.878906 59.824219 367.078125 59.824219 C 368 59.84375 368.890625 59.480469 369.539062 58.824219 C 370.523438 57.773438 371.125 56.417969 371.246094 54.976562 C 371.523438 53.5625 371.316406 52.097656 370.664062 50.8125 C 370.128906 49.8125 369.132812 49.136719 368.003906 49.015625 C 367.808594 48.976562 367.609375 48.953125 367.410156 48.941406 Z M 367.410156 48.941406 "/>
<path style=" stroke:none;fill-rule:nonzero;fill:rgb(18.039216%,17.647059%,17.254902%);fill-opacity:1;" d="M 353.308594 24.855469 L 366.34375 26.6875 L 364.316406 41.191406 C 366.1875 39.476562 368.636719 38.527344 371.171875 38.539062 C 371.742188 38.542969 372.308594 38.582031 372.875 38.664062 C 375.570312 38.988281 378.125 40.066406 380.242188 41.773438 C 382.273438 43.46875 383.761719 45.722656 384.53125 48.257812 C 385.390625 51.171875 385.585938 54.242188 385.097656 57.242188 C 384.753906 60.1875 383.75 63.019531 382.167969 65.527344 C 380.777344 67.703125 378.777344 69.417969 376.417969 70.457031 C 374.714844 71.191406 372.875 71.5625 371.015625 71.542969 C 370.222656 71.542969 369.429688 71.488281 368.644531 71.375 C 367.03125 71.167969 365.476562 70.617188 364.089844 69.757812 C 362.753906 68.921875 361.621094 67.804688 360.765625 66.480469 L 360.3125 69.726562 L 347.273438 67.890625 L 353.316406 24.847656 M 367.078125 60.582031 C 368.207031 60.589844 369.285156 60.140625 370.070312 59.332031 C 371.179688 58.164062 371.859375 56.65625 372.003906 55.050781 C 372.304688 53.46875 372.066406 51.832031 371.328125 50.402344 C 370.675781 49.195312 369.472656 48.386719 368.113281 48.238281 C 367.890625 48.203125 367.664062 48.183594 367.4375 48.183594 C 366.320312 48.175781 365.25 48.625 364.480469 49.433594 C 363.390625 50.613281 362.722656 52.121094 362.574219 53.71875 C 362.285156 55.304688 362.523438 56.9375 363.25 58.371094 C 363.890625 59.574219 365.085938 60.382812 366.4375 60.535156 C 366.660156 60.566406 366.886719 60.582031 367.113281 60.582031 M 353.308594 23.347656 C 352.566406 23.359375 351.945312 23.910156 351.835938 24.644531 L 345.761719 67.691406 C 345.648438 68.515625 346.21875 69.273438 347.042969 69.394531 L 360.082031 71.226562 C 360.152344 71.234375 360.222656 71.234375 360.292969 71.226562 C 361.042969 71.226562 361.675781 70.671875 361.777344 69.925781 C 362.25 70.328125 362.746094 70.695312 363.269531 71.023438 C 364.839844 71.988281 366.59375 72.613281 368.417969 72.855469 C 369.269531 72.976562 370.132812 73.035156 370.996094 73.039062 C 373.0625 73.054688 375.109375 72.640625 377.007812 71.828125 C 379.632812 70.667969 381.859375 68.761719 383.410156 66.34375 C 385.113281 63.660156 386.199219 60.628906 386.589844 57.472656 C 387.109375 54.25 386.894531 50.953125 385.960938 47.824219 C 385.121094 45.015625 383.476562 42.515625 381.234375 40.628906 C 378.90625 38.746094 376.101562 37.554688 373.128906 37.1875 C 372.496094 37.101562 371.859375 37.054688 371.21875 37.054688 C 369.523438 37.042969 367.847656 37.40625 366.308594 38.121094 L 367.882812 26.910156 C 367.9375 26.515625 367.835938 26.113281 367.59375 25.792969 C 367.355469 25.472656 366.996094 25.261719 366.601562 25.207031 L 353.566406 23.375 C 353.496094 23.367188 353.425781 23.367188 353.355469 23.375 Z M 367.078125 59.074219 C 366.917969 59.074219 366.753906 59.0625 366.59375 59.042969 C 365.707031 58.957031 364.921875 58.425781 364.511719 57.636719 C 363.957031 56.484375 363.792969 55.183594 364.039062 53.929688 C 364.148438 52.660156 364.664062 51.460938 365.511719 50.507812 C 366 49.980469 366.691406 49.683594 367.410156 49.691406 C 367.574219 49.691406 367.734375 49.703125 367.898438 49.730469 C 368.792969 49.820312 369.585938 50.355469 370.011719 51.152344 C 370.578125 52.292969 370.753906 53.589844 370.503906 54.84375 C 370.394531 56.101562 369.871094 57.289062 369.019531 58.222656 C 368.511719 58.753906 367.8125 59.050781 367.078125 59.046875 Z M 367.078125 59.074219 "/>
</g>
</svg>
