<svg height="2480" width="3508" xmlns="http://www.w3.org/2000/svg" version="1.1">
<path transform="translate(72,963)" fill="#140F15" d="M0 0 C237.27 0 474.54 0 719 0 C719 3.96 719 7.92 719 12 C696.23 12 673.46 12 650 12 C650.08371792 56.17889938 650.17439858 100.35776006 650.28005161 144.53661129 C650.29256777 149.7738377 650.30500096 155.01106429 650.31738281 160.24829102 C650.31984881 161.29075731 650.3223148 162.3332236 650.32485552 163.40727978 C650.3643832 180.20035955 650.39721807 196.99344588 650.42749982 213.78654457 C650.45881422 231.06803198 650.49750574 248.34949199 650.54279006 265.63094848 C650.57041998 276.26091456 650.59256084 286.89086103 650.60726251 297.52085298 C650.61795368 304.84899544 650.63592619 312.17709952 650.65916704 319.50521279 C650.67229656 323.70843276 650.68265901 327.91159993 650.68421364 332.11484146 C650.69298118 349.73197102 651.0274081 367.29034106 651.93789673 384.88609314 C651.97957212 385.69559296 652.0212475 386.50509278 652.06418578 387.3391229 C654.01906984 424.55904126 657.92987885 467.25501165 683 497 C683.79792969 497.97066406 684.59585938 498.94132812 685.41796875 499.94140625 C703.87999468 521.6577554 728.71314216 530.8092062 756.5625 533.625 C802.19844228 536.86786412 850.72040616 528.74285524 886.27734375 498.27148438 C915.06182088 472.92033644 927.95769572 433.66128497 930.81621885 396.26112342 C931.52250738 383.72831425 931.31250339 371.13201171 931.31667423 358.58387411 C931.32040534 353.92225105 931.33557869 349.26066251 931.34928894 344.59906006 C931.3714503 336.54320458 931.38653009 328.48736157 931.39665604 320.43148232 C931.4113065 308.78435998 931.43686074 297.13728111 931.46498732 285.49018445 C931.51034027 266.58876409 931.54700233 247.68733743 931.578125 228.78588867 C931.60835782 210.43626806 931.64272967 192.08666282 931.68261719 173.73706055 C931.68507874 172.60400698 931.68754028 171.47095341 931.69007643 170.30356488 C931.70245195 164.61877564 931.7149083 158.93398658 931.72740483 153.2491976 C931.83080029 106.16615261 931.91951943 59.08308927 932 12 C909.56 12 887.12 12 864 12 C864 8.04 864 4.08 864 0 C1574.49 0 2284.98 0 3017 0 C3017 3.96 3017 7.92 3017 12 C2997.86 12.33 2978.72 12.66 2959 13 C2965.435 23.89 2965.435 23.89 2972 35 C2974.31732139 38.95571241 2976.63227132 42.91230197 2978.9375 46.875 C2980.11718171 48.89974296 2981.29686938 50.92448244 2982.4765625 52.94921875 C2983.06083008 53.95259277 2983.64509766 54.9559668 2984.24707031 55.98974609 C2992.31133523 69.83826788 3000.39221108 83.6769217 3008.5 97.5 C3016.58588585 111.28573547 3024.64162818 125.08890156 3032.68847656 138.89746094 C3039.61018665 150.77407819 3046.54523025 162.64271958 3053.5 174.5 C3061.58588585 188.28573547 3069.64162818 202.08890156 3077.68847656 215.89746094 C3078.82349354 217.84497998 3079.95866756 219.79240751 3081.09399414 221.73974609 C3082.23421263 223.69556339 3083.37402779 225.65161589 3084.51342773 227.60791016 C3087.46531766 232.67196034 3090.42722425 237.72984573 3093.4070282 242.7775116 C3094.97280134 245.42999597 3096.53620967 248.08387155 3098.09970093 250.73770142 C3098.86015069 252.02669129 3099.62186862 253.31493393 3100.38491821 254.60238647 C3101.45245105 256.40366964 3102.51567454 258.20743455 3103.578125 260.01171875 C3104.19075195 261.04772217 3104.80337891 262.08372559 3105.43457031 263.15112305 C3106.84855965 265.7243984 3107.98287298 268.24965063 3109 271 C3109.66 271 3110.32 271 3111 271 C3111.32677734 270.01773438 3111.32677734 270.01773438 3111.66015625 269.015625 C3113.47326653 264.93480536 3115.92377093 261.42946501 3118.4375 257.75 C3119.53607797 256.12171524 3120.63371466 254.49279507 3121.73046875 252.86328125 C3122.55877197 251.63472412 3122.55877197 251.63472412 3123.40380859 250.38134766 C3125.72184013 246.92309138 3127.99250413 243.43548622 3130.25 239.9375 C3130.90875122 238.9172876 3130.90875122 238.9172876 3131.58081055 237.87646484 C3134.97072461 232.61598606 3138.33950875 227.34203103 3141.70922852 222.06860352 C3142.38268311 221.01471436 3143.0561377 219.9608252 3143.75 218.875 C3144.42796631 217.814021 3145.10593262 216.75304199 3145.80444336 215.65991211 C3151.66090416 206.50612204 3157.58922072 197.40051555 3163.53515625 188.3046875 C3167.9433565 181.56102494 3172.31800915 174.79584148 3176.68945312 168.02832031 C3178.95776799 164.51767204 3181.22907298 161.00895887 3183.5 157.5 C3184.41668015 156.08334206 3185.33334684 154.66667541 3186.25 153.25 C3202.74999998 127.75000003 3202.74999998 127.75000003 3204.1237793 125.62695312 C3205.04459589 124.20382839 3205.96533098 122.78065093 3206.88598633 121.35742188 C3209.11350909 117.91413629 3211.34222399 114.47163872 3213.57421875 111.03125 C3218.99831801 102.66620167 3224.38312742 94.27688722 3229.75 85.875 C3236.28609994 75.64593368 3242.89320366 65.46525154 3249.53515625 55.3046875 C3253.93001595 48.58143331 3258.29163736 41.83685223 3262.64990234 35.08984375 C3265.11936065 31.26731878 3267.59090386 27.44614287 3270.0625 23.625 C3270.76101074 22.54436279 3270.76101074 22.54436279 3271.47363281 21.44189453 C3272.12283691 20.43811768 3272.12283691 20.43811768 3272.78515625 19.4140625 C3273.16551025 18.8257666 3273.54586426 18.2374707 3273.93774414 17.63134766 C3274.94762612 16.0804326 3275.97340007 14.5398999 3277 13 C3256.21 12.67 3235.42 12.34 3214 12 C3214 8.04 3214 4.08 3214 0 C3261.52 0 3309.04 0 3358 0 C3358 3.96 3358 7.92 3358 12 C3336.22 12 3314.44 12 3292 12 C3291.34 13.65 3290.68 15.3 3290 17 C3289.19087068 18.3872908 3288.34019522 19.7510486 3287.453125 21.08984375 C3286.69165161 22.24842896 3286.69165161 22.24842896 3285.91479492 23.43041992 C3285.3654126 24.25775635 3284.81603027 25.08509277 3284.25 25.9375 C3283.06284812 27.74416518 3281.87668351 29.55147941 3280.69140625 31.359375 C3279.77319092 32.75833008 3279.77319092 32.75833008 3278.83642578 34.18554688 C3275.91547127 38.66211742 3273.05030997 43.17360386 3270.1875 47.6875 C3265.18149906 55.57205638 3260.16138755 63.44731391 3255.125 71.3125 C3254.45750732 72.35494873 3253.79001465 73.39739746 3253.10229492 74.47143555 C3251.74568084 76.58989202 3250.38899117 78.70830009 3249.03222656 80.82666016 C3245.68695051 86.05033844 3242.34356187 91.27522441 3239 96.5 C3237.66667591 98.58333925 3236.33334257 100.66667258 3235 102.75 C3234.34 103.78125 3233.68 104.8125 3233 105.875 C3226.99999997 115.25000005 3226.99999997 115.25000005 3224.99951172 118.37573242 C3223.66776903 120.4566007 3222.33606323 122.53749258 3221.00439453 124.6184082 C3217.64702821 129.8646523 3214.28899812 135.11046939 3210.9296875 140.35546875 C3204.60686764 150.22879515 3198.29047013 160.10602493 3192 170 C3185.03370716 180.9569438 3178.03499968 191.89300601 3171.03222656 202.82666016 C3167.68695051 208.05033844 3164.34356187 213.27522441 3161 218.5 C3159.66667591 220.58333925 3158.33334257 222.66667258 3157 224.75 C3156.34 225.78125 3155.68 226.8125 3155 227.875 C3153 231 3151 234.125 3149 237.25 C3148.01157104 238.79457886 3148.01157104 238.79457886 3147.00317383 240.37036133 C3145.65964841 242.46940488 3144.31573098 244.56819756 3142.97143555 246.66674805 C3139.7908975 251.63281089 3136.61549012 256.60189229 3133.45703125 261.58203125 C3123.310066 277.55265191 3112.90064817 293.34636156 3102.46606445 309.13012695 C3095.63306187 319.46836256 3088.84436032 329.83241892 3082.13027954 340.24829102 C3079.59802993 344.17277539 3077.04764024 348.08549833 3074.5 352 C3070.49227777 358.16169423 3066.4906923 364.32726249 3062.5 370.5 C3057.95694887 377.5271171 3053.39815885 384.54391069 3048.8359375 391.55859375 C3045.38365615 396.86790796 3041.93833272 402.18164325 3038.5 407.5 C3034.50930733 413.67273808 3030.50751303 419.83816936 3026.5 426 C3020.65277062 434.99103982 3014.82273792 443.99308549 3009 453 C3002.62507479 462.86106659 2996.23842272 472.71434476 2989.83642578 482.55786133 C2986.38396676 487.86741002 2982.93849202 493.18139685 2979.5 498.5 C2975.50930733 504.67273808 2971.50751303 510.83816936 2967.5 517 C2963.45170535 523.22489321 2959.40827961 529.45286681 2955.375 535.6875 C2954.92898437 536.37642334 2954.48296875 537.06534668 2954.0234375 537.77514648 C2951.76153886 541.27032234 2949.50531831 544.76898735 2947.2578125 548.2734375 C2915.13303804 598.30410378 2915.13303804 598.30410378 2886.3125 610.25 C2885.53600098 610.57943604 2884.75950195 610.90887207 2883.95947266 611.24829102 C2870.76381754 616.47920599 2857.22342525 617.52974673 2843.1875 617.375 C2842.44842407 617.37101196 2841.70934814 617.36702393 2840.94787598 617.36291504 C2829.4365967 617.29027496 2818.22879503 616.69126934 2807 614 C2805.73800781 613.69835938 2804.47601562 613.39671875 2803.17578125 613.0859375 C2778.76754136 606.59466505 2755.35670642 593.01815142 2742 571 C2734.97562997 558.599417 2729.65081531 545.77499171 2727.60742188 531.61328125 C2727.4831205 530.76604996 2727.35881912 529.91881866 2727.23075104 529.0459137 C2725.32459637 515.67014697 2723.87823455 502.23111148 2722.36181831 488.80677032 C2721.90528355 484.77177547 2721.44475177 480.73723652 2720.98474121 476.70263672 C2720.21256236 469.92523433 2719.44299424 463.14753989 2718.67529297 456.36962891 C2717.70023216 447.7610539 2716.72108567 439.15294904 2715.74053192 430.54499817 C2714.8853955 423.03794815 2714.03192743 415.53070858 2713.17883492 408.02342606 C2712.91061203 405.66338071 2712.64222132 403.30335449 2712.37382507 400.94332886 C2711.9481523 397.19909793 2711.5233928 393.45476446 2711.0994215 389.7103405 C2710.93648932 388.27169632 2710.77337076 386.83307324 2710.61005878 385.39447212 C2709.76565883 377.95096116 2708.94151467 370.50633551 2708.171875 363.0546875 C2708.04102257 361.79506195 2707.91017014 360.5354364 2707.77535248 359.23764038 C2707.53584197 356.91506046 2707.30059459 354.59203434 2707.07089996 352.26846313 C2705.34974878 335.56900071 2701.70072871 319.41167603 2695 304 C2694.53851562 302.93652344 2694.07703125 301.87304688 2693.6015625 300.77734375 C2685.06008241 282.49102587 2671.18802033 268.70986889 2652.5 261.125 C2624.07239979 251.08358214 2592.19361578 254.49480705 2563 254 C2563 343.1 2563 432.2 2563 524 C2585.77 524 2608.54 524 2632 524 C2632 527.96 2632 531.92 2632 536 C2391.76 536 2151.52 536 1904 536 C1904 532.04 1904 528.08 1904 524 C1926.77 524 1949.54 524 1973 524 C1973 355.04 1973 186.08 1973 12 C1950.56 12 1928.12 12 1905 12 C1905 50.94 1905 89.88 1905 130 C1901.37 130 1897.74 130 1894 130 C1893.29875 128.3809375 1892.5975 126.761875 1891.875 125.09375 C1886.56594831 112.89204738 1881.22011819 100.76700007 1875 89 C1874.62020996 88.27232422 1874.24041992 87.54464844 1873.84912109 86.79492188 C1866.21870974 72.25319553 1857.28801673 59.99093352 1846 48 C1845.06800781 46.97132813 1845.06800781 46.97132813 1844.1171875 45.921875 C1824.57835058 25.15675125 1793.47889614 13.94897904 1765.42313385 12.8613348 C1763.59798374 12.85165597 1763.59798374 12.85165597 1761.73596191 12.84178162 C1761.05288971 12.83685196 1760.3698175 12.8319223 1759.66604614 12.82684326 C1757.39520497 12.81160189 1755.1243914 12.80314319 1752.85351562 12.79467773 C1751.19049592 12.78495142 1749.52747862 12.77480536 1747.86446381 12.76427555 C1743.42701212 12.73732979 1738.98955063 12.71609874 1734.55206299 12.69608307 C1730.38201864 12.67639875 1726.21201147 12.6515184 1722.04199219 12.6270752 C1709.86135621 12.55868443 1697.68067476 12.49859522 1685.5 12.4375 C1658.275 12.293125 1631.05 12.14875 1603 12 C1603 94.5 1603 177 1603 262 C1662.0811604 263.37555316 1662.0811604 263.37555316 1714 239 C1714.86238281 238.3503125 1714.86238281 238.3503125 1715.7421875 237.6875 C1741.38812345 217.83258184 1749.70702027 179.60993574 1757 150 C1760.63 150 1764.26 150 1768 150 C1768 227.22 1768 304.44 1768 384 C1764.37 384 1760.74 384 1757 384 C1756.79955078 383.27224365 1756.59910156 382.5444873 1756.39257812 381.79467773 C1740.95258166 325.09490271 1740.95258166 325.09490271 1700.2890625 284.78515625 C1670.35103608 268.53613241 1636.40363845 273.54760063 1603 273 C1603 355.83 1603 438.66 1603 524 C1626.1 524 1649.2 524 1673 524 C1673 527.96 1673 531.92 1673 536 C1590.83 536 1508.66 536 1424 536 C1424 532.04 1424 528.08 1424 524 C1446.77 524 1469.54 524 1493 524 C1493 355.04 1493 186.08 1493 12 C1470.56 12 1448.12 12 1425 12 C1425 50.94 1425 89.88 1425 130 C1421.37 130 1417.74 130 1414 130 C1413.49569458 128.80177612 1413.49569458 128.80177612 1412.98120117 127.5793457 C1394.48950304 83.81890374 1373.21494323 41.24377619 1327.09667969 21.84765625 C1303.24928895 12.20651272 1278.61958906 12.5278107 1253.33670044 12.49352264 C1249.19331218 12.48517737 1245.05007252 12.46078568 1240.90673828 12.43786621 C1228.85455738 12.38026698 1216.80226666 12.34786436 1204.75 12.3125 C1177.7725 12.209375 1150.795 12.10625 1123 12 C1123 94.5 1123 177 1123 262 C1186.79479518 262.95177565 1186.79479518 262.95177565 1240.23046875 233.890625 C1261.13939485 211.68793301 1271.23423137 179.34518063 1277 150 C1280.63 150 1284.26 150 1288 150 C1288 227.22 1288 304.44 1288 384 C1284.37 384 1280.74 384 1277 384 C1276.764021 383.13012451 1276.52804199 382.26024902 1276.28491211 381.36401367 C1265.84760952 341.31826934 1265.84760952 341.31826934 1245 306 C1244.31292969 305.14921875 1243.62585937 304.2984375 1242.91796875 303.421875 C1227.45252411 285.25346076 1207.15474593 276.89434324 1184 274 C1153.805 273.505 1153.805 273.505 1123 273 C1123 355.83 1123 438.66 1123 524 C1146.1 524 1169.2 524 1193 524 C1193 527.96 1193 531.92 1193 536 C1110.83 536 1028.66 536 944 536 C944 532.04 944 528.08 944 524 C966.77 524 989.54 524 1013 524 C1013 355.04 1013 186.08 1013 12 C990.56 12 968.12 12 945 12 C945.00666183 16.75748657 945.01332367 21.51497314 945.02018738 26.41662598 C945.07998254 70.12188289 945.12471914 113.82713495 945.15319599 157.53242388 C945.15694776 163.26966288 945.16083076 169.00690177 945.16479492 174.74414062 C945.16558185 175.88624125 945.16636878 177.02834187 945.16717956 178.2050516 C945.18020589 196.65725258 945.20384434 215.10942531 945.23145839 233.56160957 C945.25958996 252.51881173 945.27619259 271.47599916 945.28226548 290.43322134 C945.2863659 302.1150671 945.29927999 313.79683295 945.3237494 325.47865409 C945.33970246 333.50750037 945.34437889 341.53630582 945.34050413 349.56516677 C945.33859735 354.18580266 945.34135784 358.8062997 945.35761642 363.4269104 C945.50973689 408.9806471 940.37863173 456.5789032 910 493 C909.35546875 493.79535156 908.7109375 494.59070312 908.046875 495.41015625 C902.98799722 501.40472078 897.19534879 506.21852749 891 511 C890.18144531 511.65742187 889.36289062 512.31484375 888.51953125 512.9921875 C857.29029675 537.10406158 815.14323881 546.03133358 776.4296875 546.203125 C774.82804497 546.21357849 774.82804497 546.21357849 773.19404602 546.22424316 C769.75432351 546.24156664 766.31476437 546.24796639 762.875 546.25 C761.6969278 546.25100708 760.51885559 546.25201416 759.30508423 546.25305176 C710.06327453 546.22464166 660.96694923 540.71224945 617 517 C616.09411133 516.52095215 616.09411133 516.52095215 615.16992188 516.03222656 C606.05979891 511.19216663 597.95256641 505.52760062 590 499 C589.17628906 498.33097656 588.35257813 497.66195313 587.50390625 496.97265625 C581.54956637 491.9264306 576.7586126 486.16572923 572 480 C571.34257813 479.18144531 570.68515625 478.36289063 570.0078125 477.51953125 C552.25063285 454.52077448 545.92956617 427.15262921 542.25 398.875 C542.13446777 398.00818604 542.01893555 397.14137207 541.89990234 396.24829102 C539.38161413 375.16765832 539.85689656 353.79564552 539.88393438 332.60288095 C539.88831148 328.28693563 539.88678738 323.97099148 539.8860321 319.65504456 C539.88551141 312.20328534 539.88861034 304.75153498 539.89426994 297.29977798 C539.90244708 286.52620072 539.90500649 275.75262767 539.90625793 264.97904764 C539.90843876 247.49351632 539.9150724 230.00798971 539.92456055 212.52246094 C539.93375986 195.55143253 539.94082833 178.5804054 539.94506836 161.609375 C539.94533108 160.56074548 539.94559381 159.51211596 539.94586449 158.43170978 C539.94716967 153.17028659 539.94843334 147.9088634 539.94967639 142.6474402 C539.96001879 99.09828928 539.97844069 55.54914709 540 12 C517.56 12 495.12 12 472 12 C472 53.91 472 95.82 472 139 C468.37 139 464.74 139 461 139 C460.71914551 138.15107178 460.43829102 137.30214355 460.14892578 136.42749023 C446.17581348 94.41462134 429.87040416 47.88142905 388.1875 26.03515625 C357.98959261 10.9713491 323.93445693 12.73187682 291 12 C291 180.96 291 349.92 291 524 C313.77 524 336.54 524 360 524 C360 527.96 360 531.92 360 536 C278.16 536 196.32 536 112 536 C112 532.04 112 528.08 112 524 C134.77 524 157.54 524 181 524 C181 355.04 181 186.08 181 12 C110.4066587 12.78908654 110.4066587 12.78908654 54.94921875 48.04296875 C31.9722825 72.58546779 20.44381577 107.44808095 11 139 C7.37 139 3.74 139 0 139 C0 93.13 0 47.26 0 0 Z M2083 12 C2083 94.5 2083 177 2083 262 C2142.85905239 264.47640946 2142.85905239 264.47640946 2195 239 C2196.33611328 237.80117187 2196.33611328 237.80117187 2197.69921875 236.578125 C2220.4349789 215.14245713 2230.90839494 182.89695641 2237 153 C2237 152.01 2237 151.02 2237 150 C2240.63 150 2244.26 150 2248 150 C2248 227.22 2248 304.44 2248 384 C2244.37 384 2240.74 384 2237 384 C2236.8040625 383.07445312 2236.608125 382.14890625 2236.40625 381.1953125 C2228.78791326 346.48415524 2216.91194952 307.95740787 2185.78613281 287.13330078 C2154.26670415 267.13423191 2120.58330898 273 2083 273 C2083 355.83 2083 438.66 2083 524 C2105.336875 524.061875 2127.67375 524.12375 2150.6875 524.1875 C2157.70088623 524.21481201 2164.71427246 524.24212402 2171.94018555 524.27026367 C2178.31058283 524.28030632 2178.31058283 524.28030632 2184.6809845 524.28633118 C2187.48513637 524.28908945 2190.28911218 524.30018165 2193.09321594 524.31672668 C2213.00977931 524.42903935 2233.16767525 524.51377626 2252.3125 518.25 C2253.53283936 517.86593994 2253.53283936 517.86593994 2254.77783203 517.47412109 C2297.27512027 503.70131367 2330.75853267 472.65152186 2351.04418945 433.21069336 C2352.74558197 429.83034338 2354.38137079 426.42060904 2356 423 C2356.44641846 422.06728271 2356.44641846 422.06728271 2356.90185547 421.11572266 C2360.97083104 412.53524488 2364.23097987 403.75146151 2367.25 394.75 C2367.7440332 393.27756836 2367.7440332 393.27756836 2368.24804688 391.77539062 C2370.49249991 384.92269456 2372.33674504 378.01540499 2374 371 C2377.3 370.67 2380.6 370.34 2384 370 C2384 420.82 2384 471.64 2384 524 C2406.77 524 2429.54 524 2453 524 C2453 355.04 2453 186.08 2453 12 C2430.56 12 2408.12 12 2385 12 C2385 50.94 2385 89.88 2385 130 C2381.37 130 2377.74 130 2374 130 C2373.64615234 128.12828125 2373.64615234 128.12828125 2373.28515625 126.21875 C2371.97989024 120.37188915 2369.77184735 115.0025165 2367.4375 109.5 C2366.99277344 108.44699707 2366.54804688 107.39399414 2366.08984375 106.30908203 C2359.85555266 91.76609263 2352.68144752 78.52847576 2343 66 C2342.2471875 65.02289062 2341.494375 64.04578125 2340.71875 63.0390625 C2328.18479809 47.28335534 2313.44218496 35.75137129 2296 26 C2294.99195312 25.4328125 2293.98390625 24.865625 2292.9453125 24.28125 C2267.98199277 11.0216005 2240.90558413 11.56279427 2213.43798065 11.69615936 C2209.29242804 11.7134544 2205.14693198 11.71405998 2201.00134277 11.71618652 C2188.9383626 11.73182583 2176.87542794 11.77370951 2164.8125 11.8125 C2124.3153125 11.9053125 2124.3153125 11.9053125 2083 12 Z M2563 12 C2563 88.23 2563 164.46 2563 243 C2619.87153127 244.86572624 2619.87153127 244.86572624 2668.34765625 219.01171875 C2690.16491299 195.13398734 2690.36865042 161.47210807 2690.31567383 130.99487305 C2690.31251373 127.2039714 2690.33606426 123.41385281 2690.36132812 119.62304688 C2690.44400892 87.94998043 2687.28053987 54.9064381 2664.140625 31.0859375 C2637.23099558 5.84426032 2596.45330303 12 2563 12 Z M2717 12 C2719.30916731 13.53944487 2721.19548059 14.59627106 2723.703125 15.6640625 C2724.42838379 15.97698242 2725.15364258 16.28990234 2725.90087891 16.61230469 C2726.67608887 16.94649414 2727.45129883 17.28068359 2728.25 17.625 C2760.33357425 31.76874985 2787.00650694 52.62938048 2800.2109375 86.06640625 C2809.62080373 113.76537338 2808.77281438 145.74615004 2796.47265625 172.296875 C2792.23256048 180.63739281 2786.94688824 187.83335351 2781 195 C2780.21753906 195.96035156 2779.43507813 196.92070313 2778.62890625 197.91015625 C2751.28971862 229.82832112 2703.33038991 239.28109597 2664 246 C2664 246.33 2664 246.66 2664 247 C2665.794375 247.25910156 2665.794375 247.25910156 2667.625 247.5234375 C2701.76265788 252.80160387 2739.80713496 260.72138173 2770 278 C2770.98484375 278.55042969 2771.9696875 279.10085938 2772.984375 279.66796875 C2794.88332103 292.68979965 2809.63033641 315.64189421 2816 340 C2819.76016405 355.92325761 2822.00224694 371.89508649 2823.6255188 388.15716553 C2824.3047507 394.90055286 2825.03727519 401.63806516 2825.77734375 408.375 C2825.85838789 409.11374233 2825.93943203 409.85248466 2826.02293205 410.61361313 C2828.32729963 431.52154634 2830.99759819 452.38464214 2833.7043457 473.24371338 C2834.27299233 477.62682331 2834.83502037 482.01069585 2835.39086914 486.39544678 C2839.96063519 541.89762971 2839.96063519 541.89762971 2866 589 C2872.34950363 593.70972891 2877.96092268 595.94102912 2886 595 C2900.50496756 591.44863626 2910.49582319 580.70794231 2919.25 569.1875 C2919.81009766 568.45249268 2920.37019531 567.71748535 2920.94726562 566.96020508 C2925.8244805 560.44459398 2930.05000591 553.62890149 2934.20703125 546.640625 C2937.0781583 541.82454092 2940.11515293 537.12704389 2943.1875 532.4375 C2948.10328285 524.92149383 2952.97594948 517.37976824 2957.8125 509.8125 C2958.48369873 508.76247803 2959.15489746 507.71245605 2959.84643555 506.63061523 C2961.21503219 504.4890527 2962.58343952 502.34736918 2963.95166016 500.20556641 C2967.29813379 494.96847478 2970.64926658 489.73436677 2974 484.5 C2975.33335644 482.41668145 2976.66668975 480.33334811 2978 478.25 C2980.66666667 474.08333333 2983.33333333 469.91666667 2986 465.75 C2986.66040283 464.71810547 2987.32080566 463.68621094 2988.0012207 462.62304688 C2989.33042957 460.54618846 2990.65969362 458.46936537 2991.98901367 456.39257812 C2995.38591186 451.08547128 2998.78175767 445.77769576 3002.17578125 440.46875 C3008.39405926 430.74401759 3014.61885922 421.02432702 3020.90380859 411.3425293 C3025.39135957 404.41837177 3029.8129217 397.45230244 3034.23095703 390.48364258 C3034.79282715 389.59829834 3035.35469727 388.7129541 3035.93359375 387.80078125 C3036.46065918 386.96369629 3036.98772461 386.12661133 3037.53076172 385.26416016 C3038.78148321 383.33674389 3040.10248278 381.50992786 3041.47265625 379.66796875 C3043.24386021 377.17024831 3043.24386021 377.17024831 3042.77368164 374.66210938 C3041.91262074 371.69934257 3040.71215838 369.39803917 3039.1484375 366.73828125 C3038.55216553 365.71524902 3037.95589355 364.6922168 3037.34155273 363.63818359 C3036.69259033 362.54070801 3036.04362793 361.44323242 3035.375 360.3125 C3034.69595025 359.1522916 3034.01765913 357.99163889 3033.34008789 356.83056641 C3031.93127575 354.41772689 3030.5192137 352.00683365 3029.10498047 349.59716797 C3025.84912129 344.04239623 3022.64729543 338.45646353 3019.4375 332.875 C3014.07869807 323.57819566 3008.68365291 314.30310478 3003.26928711 305.03857422 C2998.34948718 296.61430661 2993.47477862 288.16446104 2988.60546875 279.7109375 C2984.42650872 272.4604851 2980.22259494 265.22511731 2976 258 C2970.50054464 248.5900967 2965.04550804 239.15529437 2959.60546875 229.7109375 C2955.42650872 222.4604851 2951.22259494 215.22511731 2947 208 C2941.50054464 198.5900967 2936.04550804 189.15529437 2930.60546875 179.7109375 C2926.42650872 172.4604851 2922.22259494 165.22511731 2918 158 C2912.50054464 148.5900967 2907.04550804 139.15529437 2901.60546875 129.7109375 C2897.42650872 122.4604851 2893.22259494 115.22511731 2889 108 C2883.50054464 98.5900967 2878.04550804 89.15529437 2872.60546875 79.7109375 C2867.86234621 71.481669 2863.08356073 63.27378219 2858.28930664 55.07421875 C2855.16468184 49.72556244 2852.05458087 44.36888571 2848.96484375 39 C2848.62756256 38.41412109 2848.29028137 37.82824219 2847.94277954 37.22460938 C2846.31319993 34.3931652 2844.68556772 31.5606259 2843.06054688 28.7265625 C2842.47208984 27.70304688 2841.88363281 26.67953125 2841.27734375 25.625 C2840.76421631 24.73039063 2840.25108887 23.83578125 2839.72241211 22.9140625 C2839.15401611 21.95242188 2838.58562012 20.99078125 2838 20 C2837.57051843 19.00868954 2837.57051843 19.00868954 2837.13236046 17.9973526 C2835.96740488 15.61731793 2834.87924534 13.87846784 2833 12 C2829.27301042 10.82660344 2825.66342526 10.98719229 2821.78393555 11.09179688 C2820.65179123 11.09062866 2819.51964691 11.08946045 2818.35319519 11.08825684 C2814.61311936 11.09382808 2810.87623701 11.15604408 2807.13671875 11.21875 C2804.54313397 11.23367171 2801.94952664 11.24505905 2799.35591125 11.25305176 C2793.22851117 11.28046952 2787.10242792 11.34350563 2780.97552377 11.42384768 C2773.99867739 11.5133441 2767.02177557 11.55727161 2760.04449785 11.59741116 C2745.69571748 11.68097715 2731.34789944 11.82164183 2717 12 Z"></path>
<path transform="translate(1439,769)" fill="#221E1F" d="M0 0 C6.93 0 13.86 0 21 0 C28.03172447 15.58257763 34.98753959 31.19117129 41.75708008 46.88989258 C45.00147218 54.40909587 48.27443733 61.91507652 51.57421875 69.41015625 C51.97080185 70.31130157 52.36738495 71.2124469 52.77598572 72.14089966 C54.72972034 76.57917588 56.68589357 81.01635742 58.64526367 85.45214844 C63.25495673 95.90770882 67.68953958 106.41719414 72 117 C64.41 117 56.82 117 49 117 C44.59545689 108.19091378 40.74995069 99.1070231 37 90 C19.18 89.67 1.36 89.34 -17 89 C-17.33 90.65 -17.66 92.3 -18 94 C-18.71551272 95.85830084 -19.48114052 97.69777408 -20.28515625 99.51953125 C-20.73310547 100.54111328 -21.18105469 101.56269531 -21.64257812 102.61523438 C-22.34543945 104.19788086 -22.34543945 104.19788086 -23.0625 105.8125 C-23.53494141 106.88693359 -24.00738281 107.96136719 -24.49414062 109.06835938 C-25.65831124 111.71420169 -26.82856657 114.35736524 -28 117 C-35.26 117 -42.52 117 -50 117 C-46.62492489 106.87477467 -46.62492489 106.87477467 -45.10913086 103.40625 C-44.76637115 102.61678482 -44.42361145 101.82731964 -44.07046509 101.01393127 C-43.70561005 100.18433395 -43.340755 99.35473663 -42.96484375 98.5 C-42.57388519 97.60268661 -42.18292664 96.70537323 -41.78012085 95.78086853 C-40.50297166 92.85227012 -39.22029614 89.92612874 -37.9375 87 C-37.04225204 84.95008645 -36.1473182 82.90003568 -35.25268555 80.84985352 C-28.54702694 65.49294958 -21.80468965 50.15202824 -15.05883789 34.81274414 C-9.97002324 23.23722479 -4.94788287 11.63668749 0 0 Z M10 27 C5.90945207 34.78127665 2.44893054 42.78281944 -0.93139648 50.88916016 C-1.82335631 53.02600821 -2.72288731 55.1595638 -3.62304688 57.29296875 C-4.19315821 58.6534574 -4.7628362 60.01412775 -5.33203125 61.375 C-5.60070511 62.01139404 -5.86937897 62.64778809 -6.14619446 63.3034668 C-7.54936926 66.54232515 -7.54936926 66.54232515 -8 70 C4.21 70 16.42 70 29 70 C27.00993694 64.02981083 24.9836076 58.38843022 22.42578125 52.68359375 C22.09708542 51.94166275 21.76838959 51.19973175 21.42973328 50.43531799 C20.39450954 48.10097727 19.35362122 45.76921547 18.3125 43.4375 C17.60313681 41.84066302 16.89414914 40.24365917 16.18554688 38.64648438 C14.46135853 34.76238377 12.73209057 30.88058271 11 27 C10.67 27 10.34 27 10 27 Z"></path>
<path transform="translate(1965.71484375,803.27734375)" fill="#221E1F" d="M0 0 C10.43894823 7.86936097 14.93206677 19.21412798 17.28515625 31.72265625 C17.28515625 36.67265625 17.28515625 41.62265625 17.28515625 46.72265625 C-3.83484375 46.72265625 -24.95484375 46.72265625 -46.71484375 46.72265625 C-41.82361578 59.01627273 -41.82361578 59.01627273 -31.71484375 65.72265625 C-23.95951608 68.13223337 -16.26289118 67.17657017 -8.9375 63.94921875 C-6.80824605 62.77419987 -5.14446658 61.52934165 -3.33984375 59.91015625 C-0.71484375 57.72265625 -0.71484375 57.72265625 1.19140625 57.87890625 C3.7236764 58.89937333 5.37000249 60.22384103 7.41015625 62.03515625 C8.43496094 62.92654297 8.43496094 62.92654297 9.48046875 63.8359375 C11.27424791 65.71125207 12.26955533 67.35117575 13.28515625 69.72265625 C1.79690954 81.15288152 -9.17910837 85.02452265 -24.98388672 85.03735352 C-37.75525715 84.84188516 -47.33807437 80.52311552 -56.71484375 71.87890625 C-65.20270144 62.95202144 -68.49103937 51.49935081 -69.02734375 39.41015625 C-68.63373307 26.46731084 -64.39893582 13.93780509 -55.5234375 4.34765625 C-39.83896868 -9.74465267 -17.67544605 -11.40080276 0 0 Z M-41.46484375 17.77734375 C-45.16465301 22.91794411 -46.07300447 26.15529914 -47.71484375 32.72265625 C-33.19484375 32.72265625 -18.67484375 32.72265625 -3.71484375 32.72265625 C-5.960937 21.24061796 -5.960937 21.24061796 -13.46484375 13.33984375 C-23.02938466 7.64097146 -34.36316286 9.4392095 -41.46484375 17.77734375 Z"></path>
<path transform="translate(1703.71484375,803.27734375)" fill="#221E1F" d="M0 0 C10.04834485 7.57490612 14.44874977 18.09227987 16.7890625 30.1640625 C17.51188415 35.34902725 17.76058095 40.50212734 17.28515625 45.72265625 C15.49363249 47.51418001 12.80989193 46.89428021 10.38842773 46.92797852 C8.49657997 46.95789635 8.49657997 46.95789635 6.56651306 46.98841858 C5.17975998 47.0054042 3.79300559 47.02228296 2.40625 47.0390625 C0.99519735 47.05962551 -0.41584904 47.0806218 -1.82688904 47.10203552 C-5.54717965 47.1573238 -9.26752648 47.20670311 -12.98791504 47.25488281 C-16.781708 47.30504867 -20.57541898 47.36076033 -24.36914062 47.41601562 C-31.81763898 47.52367976 -39.26620534 47.62510622 -46.71484375 47.72265625 C-46.12627661 49.3215718 -45.52477601 50.91572984 -44.91796875 52.5078125 C-44.41765137 53.84017944 -44.41765137 53.84017944 -43.90722656 55.19946289 C-41.45387392 60.39098614 -37.10700397 63.31108091 -31.96484375 65.59765625 C-24.01669597 68.16008999 -16.48436128 67.27414337 -8.9375 63.94921875 C-6.80824605 62.77419987 -5.14446658 61.52934165 -3.33984375 59.91015625 C-0.71484375 57.72265625 -0.71484375 57.72265625 1.12109375 57.80078125 C4.15036371 59.09122838 6.13603711 61.04387389 8.53515625 63.28515625 C9.4271875 64.11144531 10.31921875 64.93773437 11.23828125 65.7890625 C12.25148438 66.74619141 12.25148438 66.74619141 13.28515625 67.72265625 C8.61139121 76.22171822 0.09293703 80.70224373 -8.84765625 83.8125 C-13.49008931 84.90511303 -17.77620005 85.06646674 -22.52734375 85.03515625 C-23.41663574 85.0295166 -24.30592773 85.02387695 -25.22216797 85.01806641 C-37.41729264 84.79202354 -47.18460691 80.87047721 -56.40234375 72.72265625 C-65.73961988 62.76584521 -69.21250926 49.3396567 -68.96484375 36.05859375 C-67.96175508 22.67362931 -62.64155045 10.81342976 -52.71484375 1.72265625 C-37.10505382 -10.15323044 -16.39311646 -10.57369002 0 0 Z M-43.08984375 19.47265625 C-46.45743507 23.79972889 -46.36675681 26.656265 -47.71484375 32.72265625 C-33.19484375 32.72265625 -18.67484375 32.72265625 -3.71484375 32.72265625 C-5.66128014 23.96369251 -6.84176837 18.74365505 -13.83984375 13.28515625 C-24.78224184 7.33820076 -35.44272576 10.28140866 -43.08984375 19.47265625 Z"></path>
<path transform="translate(1542,1588)" fill="#221E1F" d="M0 0 C16 0 16 0 21.4375 5.25 C22.81713867 7.04150391 22.81713867 7.04150391 23.79296875 8.6015625 C25.81018623 11.72380309 27.98807101 14.67250036 30.25 17.625 C31.34248047 19.10033203 31.34248047 19.10033203 32.45703125 20.60546875 C35.55303368 24.76576133 38.74809696 28.84866396 41.9375 32.9375 C43.14324222 34.48436483 44.34897153 36.03123971 45.5546875 37.578125 C46.13702148 38.32513672 46.71935547 39.07214844 47.31933594 39.84179688 C49.74094845 42.95147941 52.15517054 46.06675012 54.5625 49.1875 C55.67818359 50.63189453 55.67818359 50.63189453 56.81640625 52.10546875 C59.27098098 55.35920735 61.63101744 58.68342442 64 62 C64.33 41.54 64.66 21.08 65 0 C70.61 0 76.22 0 82 0 C82 31.35 82 62.7 82 95 C67 95 67 95 63.296875 91.9921875 C61.97509766 90.02392578 61.97509766 90.02392578 60.75 87.875 C59.77558127 86.38921684 58.79897647 84.90486532 57.8203125 83.421875 C57.35012695 82.67357422 56.87994141 81.92527344 56.39550781 81.15429688 C54.33822745 77.97839731 52.00322074 75.06366831 49.625 72.125 C48.72122941 70.98420185 47.81891971 69.84224503 46.91796875 68.69921875 C46.21873291 67.81435791 46.21873291 67.81435791 45.50537109 66.91162109 C38.36240128 57.84099935 31.30123984 48.70455262 24.25 39.5625 C23.47140625 38.55316406 22.6928125 37.54382812 21.890625 36.50390625 C20.53677906 34.71089954 19.24625863 32.86938795 18 31 C17.67 52.12 17.34 73.24 17 95 C11.39 95 5.78 95 0 95 C0 63.65 0 32.3 0 0 Z"></path>
<path transform="translate(1303,1588)" fill="#221E1F" d="M0 0 C11.9728125 -0.12375 11.9728125 -0.12375 24.1875 -0.25 C27.92549927 -0.30462402 27.92549927 -0.30462402 31.73901367 -0.36035156 C58.68707571 -0.59099824 58.68707571 -0.59099824 69.34765625 8.2890625 C76.35056008 15.54029625 77.34973229 22.67892252 77.3828125 32.42724609 C77.2271419 40.03726847 75.3059581 45.36897908 70.1328125 51.05078125 C66.11448846 54.82675501 62.18017654 57.16535414 57 59 C63.50826553 69.74455472 70.73289362 80.32270365 78.68066406 90.05883789 C80 92 80 92 80 95 C73.33170451 96.07703277 66.56263687 97.04805851 60 95 C53.46350268 90.11504013 49.6012457 81.84403097 45.81298828 74.78955078 C42.33829072 68.11315283 42.33829072 68.11315283 37 63 C30.34913661 61.09331907 23.89725826 61.72410967 17 62 C17 72.89 17 83.78 17 95 C11.39 95 5.78 95 0 95 C0 63.65 0 32.3 0 0 Z M17 16 C17 25.9 17 35.8 17 46 C21.30562412 46.06911525 25.60930087 46.12876967 29.91503906 46.16479492 C31.37767075 46.17982196 32.84025782 46.20024955 34.30273438 46.22631836 C36.4128728 46.26297267 38.52241226 46.27978676 40.6328125 46.29296875 C42.53377686 46.31653442 42.53377686 46.31653442 44.47314453 46.34057617 C49.78054162 45.82805929 52.95405684 43.97621362 56.8125 40.375 C59.70629563 36.61025617 60.27726481 32.67149193 60 28 C58.27553417 22.72516336 55.39570657 20.13979041 51 17 C47.4051682 15.70963722 43.83348253 15.8862988 40.046875 15.90234375 C38.23461426 15.90609009 38.23461426 15.90609009 36.38574219 15.90991211 C34.0910498 15.92356812 34.0910498 15.92356812 31.75 15.9375 C26.8825 15.958125 22.015 15.97875 17 16 Z"></path>
<path transform="translate(2072.265625,1592.25)" fill="#221E1F" d="M0 0 C5.61975288 3.66324632 8.78488502 8.35351676 10.734375 14.75 C11.68182265 21.25636619 11.43241043 27.22414824 8.08984375 32.9921875 C5.71769447 36.06846178 2.84227016 38.44526876 -0.265625 40.75 C0.7553125 41.5234375 0.7553125 41.5234375 1.796875 42.3125 C4.09078511 44.21595732 6.27245625 46.12801509 8.421875 48.1875 C9.00324219 48.74308594 9.58460938 49.29867188 10.18359375 49.87109375 C14.44170297 55.0301631 14.21964246 60.75409263 14.10546875 67.16796875 C13.36930841 74.27385331 10.59076717 79.60442261 5.046875 84.125 C-6.3541234 91.7472584 -19.20206133 93.15699113 -32.5625 91.2890625 C-41.62471133 89.29349783 -49.47170204 85.88720338 -54.828125 78.0625 C-58.83812891 71.4851848 -58.88496236 65.31668688 -58.265625 57.75 C-56.49663204 50.86557518 -51.62529061 47.04237289 -46.265625 42.75 C-45.605625 42.09 -44.945625 41.43 -44.265625 40.75 C-44.80832031 40.3375 -45.35101562 39.925 -45.91015625 39.5 C-51.82970553 34.72169715 -54.68991923 30.90667885 -55.5390625 23.30078125 C-55.80905291 16.51986826 -54.82366517 11.02861486 -50.6015625 5.6171875 C-37.67929953 -8.33473786 -15.97568878 -8.81417312 0 0 Z M-34.140625 12.625 C-37.3421383 15.8265133 -38.13778538 17.59944346 -38.640625 22.125 C-38.10291595 27.32285413 -36.0764442 30.20547774 -32.140625 33.5625 C-26.56750845 35.86443944 -20.75723802 36.54525587 -14.953125 34.6875 C-10.9011631 32.85466531 -8.55837263 30.61901162 -6.265625 26.75 C-5.20094888 21.88041576 -5.72174044 18.69741182 -8.203125 14.375 C-11.4941743 10.98022135 -15.72969969 9.71834361 -20.265625 8.75 C-25.47638924 8.75 -29.81093535 9.80128936 -34.140625 12.625 Z M-40.265625 57.75 C-41.79777388 60.81429776 -41.49501048 63.3665642 -41.265625 66.75 C-39.25483938 71.83610481 -35.96458376 73.40052062 -31.265625 75.75 C-25.46140276 77.68474075 -18.08809117 77.81308281 -12.328125 75.5625 C-8.48622916 73.28872491 -5.29117855 70.8011071 -3.265625 66.75 C-2.87722602 62.71065064 -3.02648339 60.25817593 -4.765625 56.5625 C-8.78479307 52.04093592 -12.37114258 50.06803572 -18.4296875 49.40234375 C-27.92189376 49.15140037 -33.81585521 50.35173465 -40.265625 57.75 Z"></path>
<path transform="translate(1782,1588)" fill="#221E1F" d="M0 0 C23.43 0 46.86 0 71 0 C71 5.28 71 10.56 71 16 C53.51 16 36.02 16 18 16 C18 23.59 18 31.18 18 39 C33.51 39 49.02 39 65 39 C65 44.28 65 49.56 65 55 C49.49 55 33.98 55 18 55 C18 62.92 18 70.84 18 79 C35.49 79 52.98 79 71 79 C71 84.28 71 89.56 71 95 C47.57 95 24.14 95 0 95 C0 63.65 0 32.3 0 0 Z"></path>
<path transform="translate(2178.3125,1594.25)" fill="#221E1F" d="M0 0 C9.20086987 8.71856621 12.48337675 19.87600332 12.890625 32.31640625 C13.16573447 49.6707959 11.23207851 66.97986266 -1.125 80.3125 C-11.14233436 89.41206688 -22.19120602 90.46303075 -35.13330078 89.92919922 C-43.80287505 89.21628554 -51.18781863 84.38645208 -58.3125 79.75 C-57.68856349 75.98880524 -55.96476285 73.56039958 -53.75 70.5 C-53.10933594 69.60796875 -52.46867187 68.7159375 -51.80859375 67.796875 C-51.31488281 67.12140625 -50.82117187 66.4459375 -50.3125 65.75 C-46.69738282 66.42357136 -43.99206307 68.00476455 -40.8125 69.8125 C-34.52596109 73.00956625 -29.28126938 73.82370669 -22.3125 72.75 C-18.84153143 71.47746144 -18.84153143 71.47746144 -16.3125 69.75 C-15.3225 69.42 -14.3325 69.09 -13.3125 68.75 C-12.17826974 66.95714848 -12.17826974 66.95714848 -11.3125 64.75 C-10.97089844 63.98042969 -10.62929687 63.21085937 -10.27734375 62.41796875 C-8.23024343 57.47535011 -6.77649926 53.08599151 -6.3125 47.75 C-6.7971875 48.15992188 -7.281875 48.56984375 -7.78125 48.9921875 C-15.46157666 55.16598855 -22.53798989 56.63731144 -32.3125 55.75 C-41.94711809 54.26870859 -48.53908498 51.02597874 -55.125 43.875 C-60.92007955 35.59631493 -61.2360755 27.66794146 -60.3125 17.75 C-58.28979364 8.78026047 -52.87867826 1.87812934 -45.25 -3.125 C-31.3610489 -11.08443736 -12.5038714 -10.19868841 0 0 Z M-39.3125 12.75 C-42.76178141 17.447312 -44.14753733 21.90473867 -43.3125 27.75 C-41.83149683 32.40332948 -40.03141407 35.68396127 -35.75 38.1875 C-29.08594826 41.21661443 -23.58125164 41.78510469 -16.5625 39.5625 C-11.79532714 36.90388437 -8.41007888 33.82299914 -6.3125 28.75 C-5.61172183 23.81195847 -5.75691599 19.86116802 -8 15.375 C-11.91183962 10.93453341 -15.13504096 8.05427104 -21.16796875 7.4765625 C-28.4148565 7.2556726 -34.02639657 7.37298079 -39.3125 12.75 Z"></path>
<path transform="translate(1451,1587)" fill="#221E1F" d="M0 0 C5.28 0 10.56 0 16 0 C20.22650427 8.28419845 24.09983382 16.63590079 27.75 25.1875 C28.87681409 27.81079784 30.00668207 30.4327765 31.13671875 33.0546875 C31.58621132 34.0986544 31.58621132 34.0986544 32.04478455 35.16371155 C36.17036108 44.73382092 40.36967879 54.27171642 44.5625 63.8125 C45.34408184 65.59203824 46.1256575 67.3715792 46.90722656 69.15112305 C47.64772085 70.83645461 48.38827791 72.52175859 49.12890625 74.20703125 C49.62666313 75.33983017 49.62666313 75.33983017 50.13447571 76.49551392 C50.45305038 77.21991669 50.77162506 77.94431946 51.09985352 78.69067383 C51.40778839 79.39519684 51.71572327 80.09971985 52.0329895 80.82559204 C52.71540101 82.3600542 53.41615975 83.88642039 54.12985229 85.40658569 C54.49684235 86.1962674 54.8638324 86.9859491 55.24194336 87.79956055 C55.57826279 88.50912399 55.91458221 89.21868744 56.26109314 89.94975281 C57 92 57 92 57 96 C51.06 96 45.12 96 39 96 C37.49562154 92.54351139 35.99632578 89.08497253 34.5 85.625 C34.07074219 84.64015625 33.64148437 83.6553125 33.19921875 82.640625 C32.59013672 81.22910156 32.59013672 81.22910156 31.96875 79.7890625 C31.59169922 78.91975098 31.21464844 78.05043945 30.82617188 77.15478516 C30 75 30 75 30 73 C15.48 73 0.96 73 -14 73 C-14.99 75.97 -15.98 78.94 -17 82 C-18.91687485 86.70590443 -20.96532855 91.34286311 -23 96 C-28.94 96 -34.88 96 -41 96 C-40.08094418 91.4047209 -38.66374959 87.58619391 -36.78125 83.3515625 C-36.28634819 82.22189056 -36.28634819 82.22189056 -35.78144836 81.06939697 C-34.69223537 78.58588073 -33.59612985 76.1054702 -32.5 73.625 C-31.73736795 71.88970814 -30.97524996 70.15419028 -30.21362305 68.41845703 C-28.62134501 64.79051172 -27.02681934 61.16356525 -25.43115234 57.53710938 C-23.04046296 52.09846761 -20.66803697 46.65200061 -18.30078125 41.203125 C-17.92190765 40.33146698 -17.54303406 39.45980896 -17.15267944 38.56173706 C-15.68416214 35.18297264 -14.2157599 31.80415951 -12.74902344 28.42462158 C-8.61114396 18.89421515 -4.39368847 9.41602288 0 0 Z M7 23 C5.00390666 27.68042936 3.01013816 32.3618393 1.01855469 37.04418945 C0.34016328 38.63821413 -0.33887206 40.23196492 -1.01855469 41.82543945 C-1.99321652 44.11077991 -2.96558761 46.39708291 -3.9375 48.68359375 C-4.24373291 49.40026718 -4.54996582 50.11694061 -4.86547852 50.85533142 C-6.35232257 53.82828137 -6.35232257 53.82828137 -7 57 C2.9 57 12.8 57 23 57 C19.451487 48.30976407 15.88891774 39.6264283 12.1875 31 C11.8980249 30.31228516 11.6085498 29.62457031 11.31030273 28.91601562 C9.92731241 25.29285574 9.92731241 25.29285574 7 23 Z"></path>
<path transform="translate(1744.4140625,1597.73046875)" fill="#221E1F" d="M0 0 C1.28003906 1.12341797 1.28003906 1.12341797 2.5859375 2.26953125 C2.05416755 6.4076683 -0.19338416 8.54035443 -2.9765625 11.51953125 C-3.80285156 12.4115625 -4.62914062 13.30359375 -5.48046875 14.22265625 C-6.11855469 14.898125 -6.75664063 15.57359375 -7.4140625 16.26953125 C-11.40759799 14.35115854 -15.11408733 12.03458545 -18.87890625 9.70703125 C-26.61128764 5.32256846 -35.53612579 4.79165002 -44.1484375 6.95703125 C-46.40763007 7.89186956 -48.36577348 8.93731075 -50.4140625 10.26953125 C-51.36539062 10.88828125 -51.36539062 10.88828125 -52.3359375 11.51953125 C-58.27941552 15.9898395 -62.07697591 22.96903844 -63.4140625 30.26953125 C-64.32108308 41.05011868 -63.47666567 50.48662604 -56.8046875 59.42578125 C-51.93882346 64.69341388 -45.12717684 68.82585845 -37.8828125 69.5078125 C-25.7523458 69.81107417 -17.46679421 66.22699419 -8.4140625 58.26953125 C-4.96204611 59.74674547 -2.76444314 61.70747126 -0.1640625 64.39453125 C0.54234375 65.11898438 1.24875 65.8434375 1.9765625 66.58984375 C2.50765625 67.14414063 3.03875 67.6984375 3.5859375 68.26953125 C0.33777063 75.69159255 -6.71885699 79.75822176 -13.7265625 83.2265625 C-25.89641519 87.94945591 -41.56379919 88.49606733 -53.7421875 83.59375 C-67.86981368 76.59190018 -75.40632775 67.63938328 -81.4140625 53.26953125 C-85.56294168 40.40066265 -83.81311906 26.27700731 -78.2890625 14.08203125 C-71.58207158 1.73233241 -61.45188608 -5.94658382 -48.19921875 -9.984375 C-31.48655422 -14.46140014 -13.41888637 -11.15096094 0 0 Z"></path>
<path transform="translate(2278,1591)" fill="#221E1F" d="M0 0 C5.84448076 3.85956276 9.44330732 9.26138832 11.62109375 15.890625 C13.26162977 25.02350595 12.56943081 34.21793956 7.6640625 42.1640625 C0.68505923 51.7984914 -9.11309606 59.44259017 -18.33203125 66.83203125 C-21.60616327 69.49256313 -24.79683952 72.25443388 -28 75 C-7.705 75.495 -7.705 75.495 13 76 C13 81.28 13 86.56 13 92 C-9.77 92 -32.54 92 -56 92 C-56 78 -56 78 -53.54296875 74.32421875 C-51.93774414 72.9609375 -51.93774414 72.9609375 -50.1875 71.6875 C-49.59509521 71.20152344 -49.00269043 70.71554687 -48.39233398 70.21484375 C-46.62139552 68.77208536 -44.81503996 67.38655979 -43 66 C-41.18439469 64.50376017 -39.3716569 63.00403044 -37.5625 61.5 C-36.68207031 60.79101562 -35.80164062 60.08203125 -34.89453125 59.3515625 C-16.831766 46.31419392 -16.831766 46.31419392 -6.62109375 27.703125 C-6.34314687 22.35937203 -7.37860759 19.12436358 -11 15 C-14.14789741 13.01041982 -16.68020985 12.70302433 -20.375 12.6875 C-21.29023438 12.67074219 -22.20546875 12.65398437 -23.1484375 12.63671875 C-29.38246661 13.43091698 -33.13839067 16.77913624 -37.375 21.1875 C-38.24898437 22.08855469 -39.12296875 22.98960938 -40.0234375 23.91796875 C-40.67570312 24.60503906 -41.32796875 25.29210938 -42 26 C-46 23 -50 20 -54 17 C-53.09041781 11.01880802 -48.26163078 6.93906193 -44 3 C-31.6322448 -5.30620437 -13.29417926 -8.14804535 0 0 Z"></path>
<path transform="translate(1554,774)" fill="#221E1F" d="M0 0 C6.93 0 13.86 0 21 0 C21 7.92 21 15.84 21 24 C28.59 24 36.18 24 44 24 C44 29.94 44 35.88 44 42 C36.41 42 28.82 42 21 42 C21.07396268 48.62093548 21.15676142 55.24051074 21.26245117 61.86083984 C21.29571024 64.1130469 21.32373908 66.36533751 21.34643555 68.61767578 C21.37996296 71.85485446 21.43227888 75.0912668 21.48828125 78.328125 C21.49467117 79.33554749 21.5010611 80.34296997 21.50764465 81.38092041 C21.53733589 82.79193024 21.53733589 82.79193024 21.56762695 84.23144531 C21.58428154 85.47054657 21.58428154 85.47054657 21.60127258 86.73468018 C22.09701709 89.55119046 23.05101384 90.92895706 25 93 C31.84433058 95.28144353 37.06111741 93.73472065 44 92 C44 97.94 44 103.88 44 110 C33.80216856 114.37049919 23.87808815 115.89967185 13.0625 112.4375 C7.09868583 109.97720931 3.5904036 106.51041311 0.94213867 100.66503906 C-0.45212297 95.24118423 -0.24442709 89.95959421 -0.1953125 84.3828125 C-0.1924826 83.17051971 -0.18965271 81.95822693 -0.18673706 80.709198 C-0.17556667 76.84769711 -0.15046737 72.98643047 -0.125 69.125 C-0.11496616 66.50260752 -0.10584102 63.8802114 -0.09765625 61.2578125 C-0.07563754 54.83845178 -0.04112886 48.41926558 0 42 C-3.63 42 -7.26 42 -11 42 C-11 36.06 -11 30.12 -11 24 C-7.37 24 -3.74 24 0 24 C0 16.08 0 8.16 0 0 Z"></path>
<path transform="translate(1197,1588)" fill="#221E1F" d="M0 0 C23.43 0 46.86 0 71 0 C71 5.28 71 10.56 71 16 C53.18 16 35.36 16 17 16 C17 24.25 17 32.5 17 41 C32.84 41 48.68 41 65 41 C65 45.95 65 50.9 65 56 C49.16 56 33.32 56 17 56 C17 68.87 17 81.74 17 95 C11.39 95 5.78 95 0 95 C0 63.65 0 32.3 0 0 Z"></path>
<path transform="translate(2077,796)" fill="#221E1F" d="M0 0 C0 7.59 0 15.18 0 23 C-2.97 23.3403125 -2.97 23.3403125 -6 23.6875 C-14.03644925 24.95273902 -19.07202159 27.38755253 -24.3125 33.625 C-31.52564624 44.52606077 -30.5375452 57.63552838 -30.6875 70.1875 C-30.72072862 72.11265267 -30.75522325 74.03778392 -30.79101562 75.96289062 C-30.87762743 80.64194239 -30.93822872 85.32029337 -31 90 C-37.93 90 -44.86 90 -52 90 C-52 60.96 -52 31.92 -52 2 C-45.07 2 -38.14 2 -31 2 C-30.505 8.93 -30.505 8.93 -30 16 C-28.63875 14.4325 -27.2775 12.865 -25.875 11.25 C-17.83908594 2.37413861 -11.77030361 0 0 0 Z"></path>
<path transform="translate(1764,765)" fill="#221E1F" d="M0 0 C6.93 0 13.86 0 21 0 C21 39.93 21 79.86 21 121 C14.07 121 7.14 121 0 121 C0 81.07 0 41.14 0 0 Z"></path>
<path transform="translate(1833,798)" fill="#221E1F" d="M0 0 C7.26 0 14.52 0 22 0 C22 29.04 22 58.08 22 88 C14.74 88 7.48 88 0 88 C0 58.96 0 29.92 0 0 Z"></path>
<path transform="translate(1977,1587)" fill="#221E1F" d="M0 0 C0 31.68 0 63.36 0 96 C-5.61 96 -11.22 96 -17 96 C-17 70.59 -17 45.18 -17 19 C-22.61 20.32 -28.22 21.64 -34 23 C-37 12.5 -37 12.5 -37 8 C-33.28241815 6.63278076 -29.54955474 5.31295929 -25.8125 4 C-24.25885742 3.42765625 -24.25885742 3.42765625 -22.67382812 2.84375 C-21.63291016 2.4828125 -20.59199219 2.121875 -19.51953125 1.75 C-18.11344604 1.24726562 -18.11344604 1.24726562 -16.67895508 0.734375 C-11.22158261 -0.35499897 -5.56503818 0 0 0 Z"></path>
<path transform="translate(1833,766)" fill="#221E1F" d="M0 0 C7.26 0 14.52 0 22 0 C22 6.6 22 13.2 22 20 C14.74 20 7.48 20 0 20 C0 13.4 0 6.8 0 0 Z"></path>
</svg>
