<?xml version="1.0" standalone="no"?>
<!DOCTYPE svg PUBLIC "-//W3C//DTD SVG 1.1//EN" "http://www.w3.org/Graphics/SVG/1.1/DTD/svg11.dtd">
<svg xmlns="http://www.w3.org/2000/svg" id="Calque_1" data-name="Calque 1" viewBox="0 0 168.54 198.11" width="168.5399932861328" height="198.11000061035156">
  <title>QUIZ_logo jaune violine</title>
  <g>
    <path d="M87.7,97.65c4.65,0,6.6-16.93,5.82-60.16,0,1.59,0,.09,0,0L85.1,28.94Q80.5,96.85,87.7,97.65Z" transform="translate(-27.18 -23.15)" style="fill: #282c62"/>
    <path d="M49.62,136.76c.24-5.91-.37-9.48-1.82-10.68-1.29-1.08-4.06-1.62-8.29-1.62l-1.6,0-.62,22.89,5.75.08Q49.27,145.62,49.62,136.76Z" transform="translate(-27.18 -23.15)" style="fill: #282c62"/>
    <path d="M77.14,127.09h-.25c-3.16.14-5,2.81-5.55,8l-1,37.53q.7,9.1,5.17,9.23h.14c2.9,0,4.77-3.09,5.61-9.24L82.48,135C81.93,129.71,80.16,127.09,77.14,127.09Z" transform="translate(-27.18 -23.15)" style="fill: #282c62"/>
    <path d="M43.52,100.13a11.88,11.88,0,0,0,2.07.21c1.94,0,2.93-.73,3-2.19l-7.31-7,5.11-5.62,6.1,6.21.74-11.85,3.18-35.17c.33-6.82-1.37-10.28-5.13-10.37h-.17q-5.47,0-7.19,9.11L38.2,90.75C38.46,96.4,40.24,99.54,43.52,100.13Z" transform="translate(-27.18 -23.15)" style="fill: #282c62"/>
    <path d="M111.27,127.62H111c-2.87.15-4.56,2.8-5,8l-1.76,36.76q.61,9.09,4.67,9.22c2.81,0,5.93-3.07,7.39-9.22L116,134.73C114.88,129.54,113.92,127.62,111.27,127.62Z" transform="translate(-27.18 -23.15)" style="fill: #282c62"/>
    <polygon points="35.04 3.93 35.04 3.93 35.04 3.93 35.04 3.93 35.04 3.93" style="fill: #282c62"/>
    <path d="M194.47,126.4l-18.85-19.16,20.09-51.75L167.31,26.6,139.42,98.45l26.64-.93-1.3,12.39H129.21l-.13-10.32L150,36.67l-15.51,2.6,0-2.49-7.38-7.51L119,109.87l-7.53-.32,4.82-69.62-12-12.19L102.92,95.4q-.6,14.52-14.58,14.5h-.43q-14.39-.24-15.16-14l1.34-56.72L62.22,27.08h0q3.47,3.54,3.51,10.25l-5.21,62,11.27,8.26-7.32,8.56L55,105q-2.79,5.34-11.26,5.33a32.26,32.26,0,0,1-3.44-.19,14.93,14.93,0,0,1-9-3.72l10.44,10.77c4.51.4,7.75,1.19,9.69,2.38,3.35,2.07,5,7.39,5.11,16S55.51,149.58,53.22,152,49,155.33,47,155.33h-.36L56.47,190l-8.21,1.13-11.08-35.8-.47,35.8-8.91-.8h0L56.17,219.2l9,.8.15-11.59L76.67,220l8.21-1.12L80.8,204.43l12.82,13,.15.13h0c.12.11.25.23.4.35l.54.46c2,1.59,5.72,3.81,12.76,2.38l.22,0c.27-.05.54-.09.8-.15l.54-.14.71-.19.52-.18c4.17-1.41,7.24-4.19,7.82-11.54,0-.15,0-.28,0-.43l0-.83,8,8.11c.62.67,1.48,1.56,2.66,2.71,4,3.88,18.6,5.11,22.5-6.34a1.3,1.3,0,0,1,.08-.17l8.24,8.38,8.63.44.19-15L183,220.22l10.27-.22,1-72.17-8.89-9h7.8ZM89.73,179.26q-1.11,12.9-13.91,12.91h-.35q-13.12-.18-13.68-12.9l1.36-50.78q1.71-10.84,13.8-11.14h.59q11.56,0,13.95,11Zm34.2-.26c-1.4,8.6-7,12.9-14.81,12.9h-.32q-11.92-.18-12.36-12.9l2-50q1.59-10.83,12.57-11.12h.7c6.85,0,10.37,3,12.48,10.21Zm40.92,12.12-10.27.21.73-44.55-4,11.89-6.27.81-4.68-12.11-.55,44.19-8.63-.44,1.63-72.58,8-.22L148.42,149l8-30.66,9.44.63Z" transform="translate(-27.18 -23.15)" style="fill: #282c62"/>
    <path d="M62.22,27.08Z" transform="translate(-27.18 -23.15)" style="fill: #282c62"/>
  </g>
  <g>
    <path d="M60.52,99.31l11.27,8.26-7.32,8.56L55,105q-2.79,5.34-11.26,5.33a32.26,32.26,0,0,1-3.44-.19q-11.38-1.23-13.11-12.44l7.94-63.17q2.77-11.32,15.23-11.33c.49,0,1,0,1.49,0q13.81.72,13.89,14.14ZM56.41,44.68c.33-6.82-1.37-10.28-5.13-10.37h-.17q-5.47,0-7.19,9.11L38.2,90.75c.26,5.65,2,8.79,5.32,9.38a11.88,11.88,0,0,0,2.07.21c1.94,0,2.93-.73,3-2.19l-7.31-7,5.11-5.62,6.1,6.21.74-11.85,3.18-35.17" transform="translate(-27.18 -23.15)" style="fill: #fdeb19"/>
    <path d="M56.47,190l-8.21,1.13-11.08-35.8-.47,35.8-8.94-.81L30,116.9c1.39,0,2.71-.06,4-.06q13.09,0,17.47,2.68c3.35,2.07,5,7.39,5.11,16S55.51,149.58,53.22,152,49,155.33,47,155.33h-.36ZM43,147.45q6.23-1.83,6.58-10.69c.24-5.91-.37-9.48-1.82-10.68-1.29-1.08-4.06-1.62-8.29-1.62l-1.6,0-.62,22.89,5.75.08" transform="translate(-27.18 -23.15)" style="fill: #fdeb19"/>
    <path d="M93.34,27.49l11,.25L102.92,95.4q-.6,14.52-14.58,14.5h-.43q-14.39-.24-15.16-14L74.36,28l10.74.93q-4.6,67.91,2.6,68.71C92.54,97.66,94.37,74.27,93.34,27.49Z" transform="translate(-27.18 -23.15)" style="fill: #fdeb19"/>
    <path d="M77.54,117.33q11.56,0,13.95,11l-1.76,51q-1.11,12.9-13.91,12.91h-.35q-13.12-.18-13.68-12.9l1.36-50.78q1.71-10.84,13.8-11.14Zm3.68,55.28L82.48,135c-.55-5.24-2.32-7.86-5.34-7.86h-.25c-3.16.14-5,2.81-5.55,8l-1,37.53q.7,9.1,5.17,9.23h.14c2.9,0,4.77-3.09,5.61-9.24" transform="translate(-27.18 -23.15)" style="fill: #fdeb19"/>
    <polygon points="89.9 5.43 99.9 6.12 91.83 86.73 84.29 86.4 89.9 5.43" style="fill: #fdeb19"/>
    <path d="M124.24,128.09,123.93,179c-1.4,8.6-7,12.9-14.81,12.9h-.32q-11.92-.18-12.36-12.9l2-50q1.59-10.83,12.57-11.12h.7C118.61,117.88,122.13,120.84,124.24,128.09Zm-15.41,53.5c2.81,0,5.93-3.07,7.39-9.22L116,134.73c-1.16-5.19-2.12-7.11-4.77-7.11H111c-2.87.15-4.56,2.8-5,8l-1.76,36.76q.61,9.09,4.67,9.22" transform="translate(-27.18 -23.15)" style="fill: #fdeb19"/>
    <polygon points="107.4 2.99 140.13 3.46 112.24 75.31 138.89 74.37 137.59 86.77 102.04 86.77 101.9 76.45 122.77 13.52 107.26 16.12 107.4 2.99" style="fill: #fdeb19"/>
    <polygon points="129.23 95.17 138.67 95.8 137.67 167.97 127.4 168.19 128.13 123.64 124.16 135.52 117.88 136.33 113.21 124.23 112.66 168.41 104.03 167.97 105.66 95.4 113.69 95.17 121.24 125.83 129.23 95.17" style="fill: #fdeb19"/>
  </g>
</svg>